<?xml version="1.0" encoding="UTF-8"?> <svg xmlns="http://www.w3.org/2000/svg" width="2367" height="405" viewBox="0 0 2367 405" fill="none"><path d="M241.5 339H110.5L89.5 401H3.7998e-07L127 50H226L353 401H262.5L241.5 339ZM219.5 273L176 144.5L133 273H219.5ZM477.152 161.5C485.152 148.5 496.652 138 511.652 130C526.652 122 543.819 118 563.152 118C586.152 118 606.986 123.833 625.652 135.5C644.319 147.167 658.986 163.833 669.652 185.5C680.652 207.167 686.152 232.333 686.152 261C686.152 289.667 680.652 315 669.652 337C658.986 358.667 644.319 375.5 625.652 387.5C606.986 399.167 586.152 405 563.152 405C543.486 405 526.319 401.167 511.652 393.5C496.986 385.5 485.486 375 477.152 362V401H391.652V31H477.152V161.5ZM599.152 261C599.152 239.667 593.152 223 581.152 211C569.486 198.667 554.986 192.5 537.652 192.5C520.652 192.5 506.152 198.667 494.152 211C482.486 223.333 476.652 240.167 476.652 261.5C476.652 282.833 482.486 299.667 494.152 312C506.152 324.333 520.652 330.5 537.652 330.5C554.652 330.5 569.152 324.333 581.152 312C593.152 299.333 599.152 282.333 599.152 261ZM816.508 168.5C826.508 153.167 839.008 141.167 854.008 132.5C869.008 123.5 885.674 119 904.008 119V209.5H880.508C859.174 209.5 843.174 214.167 832.508 223.5C821.841 232.5 816.508 248.5 816.508 271.5V401H731.008V122H816.508V168.5ZM1071.88 405C1044.54 405 1019.88 399.167 997.875 387.5C976.208 375.833 959.042 359.167 946.375 337.5C934.042 315.833 927.875 290.5 927.875 261.5C927.875 232.833 934.208 207.667 946.875 186C959.542 164 976.875 147.167 998.875 135.5C1020.88 123.833 1045.54 118 1072.88 118C1100.21 118 1124.88 123.833 1146.88 135.5C1168.88 147.167 1186.21 164 1198.88 186C1211.54 207.667 1217.88 232.833 1217.88 261.5C1217.88 290.167 1211.38 315.5 1198.38 337.5C1185.71 359.167 1168.21 375.833 1145.88 387.5C1123.88 399.167 1099.21 405 1071.88 405ZM1071.88 331C1088.21 331 1102.04 325 1113.38 313C1125.04 301 1130.88 283.833 1130.88 261.5C1130.88 239.167 1125.21 222 1113.88 210C1102.88 198 1089.21 192 1072.88 192C1056.21 192 1042.38 198 1031.38 210C1020.38 221.667 1014.88 238.833 1014.88 261.5C1014.88 283.833 1020.21 301 1030.88 313C1041.88 325 1055.54 331 1071.88 331ZM1246.23 261C1246.23 232.333 1251.57 207.167 1262.23 185.5C1273.23 163.833 1288.07 147.167 1306.73 135.5C1325.4 123.833 1346.23 118 1369.23 118C1388.9 118 1406.07 122 1420.73 130C1435.73 138 1447.23 148.5 1455.23 161.5V122H1540.73V401H1455.23V361.5C1446.9 374.5 1435.23 385 1420.23 393C1405.57 401 1388.4 405 1368.73 405C1346.07 405 1325.4 399.167 1306.73 387.5C1288.07 375.5 1273.23 358.667 1262.23 337C1251.57 315 1246.23 289.667 1246.23 261ZM1455.23 261.5C1455.23 240.167 1449.23 223.333 1437.23 211C1425.57 198.667 1411.23 192.5 1394.23 192.5C1377.23 192.5 1362.73 198.667 1350.73 211C1339.07 223 1333.23 239.667 1333.23 261C1333.23 282.333 1339.07 299.333 1350.73 312C1362.73 324.333 1377.23 330.5 1394.23 330.5C1411.23 330.5 1425.57 324.333 1437.23 312C1449.23 299.667 1455.23 282.833 1455.23 261.5ZM1585.59 261C1585.59 232.333 1590.92 207.167 1601.59 185.5C1612.59 163.833 1627.42 147.167 1646.09 135.5C1664.76 123.833 1685.59 118 1708.59 118C1726.92 118 1743.59 121.833 1758.59 129.5C1773.92 137.167 1785.92 147.5 1794.59 160.5V31H1880.09V401H1794.59V361C1786.59 374.333 1775.09 385 1760.09 393C1745.42 401 1728.26 405 1708.59 405C1685.59 405 1664.76 399.167 1646.09 387.5C1627.42 375.5 1612.59 358.667 1601.59 337C1590.92 315 1585.59 289.667 1585.59 261ZM1794.59 261.5C1794.59 240.167 1788.59 223.333 1776.59 211C1764.92 198.667 1750.59 192.5 1733.59 192.5C1716.59 192.5 1702.09 198.667 1690.09 211C1678.42 223 1672.59 239.667 1672.59 261C1672.59 282.333 1678.42 299.333 1690.09 312C1702.09 324.333 1716.59 330.5 1733.59 330.5C1750.59 330.5 1764.92 324.333 1776.59 312C1788.59 299.667 1794.59 282.833 1794.59 261.5Z" fill="#11232F"></path><path d="M1984.95 93C1969.95 93 1957.61 88.6666 1947.95 80C1938.61 71 1933.95 60 1933.95 47C1933.95 33.6667 1938.61 22.6666 1947.95 14C1957.61 4.99997 1969.95 0.499971 1984.95 0.499971C1999.61 0.499971 2011.61 4.99997 2020.95 14C2030.61 22.6666 2035.45 33.6667 2035.45 47C2035.45 60 2030.61 71 2020.95 80C2011.61 88.6666 1999.61 93 1984.95 93ZM2027.45 122V401H1941.95V122H2027.45ZM2259.41 119C2292.07 119 2318.07 129.667 2337.41 151C2357.07 172 2366.91 201 2366.91 238V401H2281.91V249.5C2281.91 230.833 2277.07 216.333 2267.41 206C2257.74 195.667 2244.74 190.5 2228.41 190.5C2212.07 190.5 2199.07 195.667 2189.41 206C2179.74 216.333 2174.91 230.833 2174.91 249.5V401H2089.41V122H2174.91V159C2183.57 146.667 2195.24 137 2209.91 130C2224.57 122.667 2241.07 119 2259.41 119Z" fill="#0038FF"></path></svg> 