<svg width="75" height="63" viewBox="0 0 75 63" fill="none" xmlns="http://www.w3.org/2000/svg">
<path fill-rule="evenodd" clip-rule="evenodd" d="M0 9.83948C11.2333 15.3059 16.8499 21.7288 16.8499 29.1085C12.0619 29.6551 8.10269 31.5911 4.97209 34.9165C1.8415 38.2419 0.27623 42.0911 0.27623 46.4642C0.27623 51.1106 1.79546 55.0282 4.83398 58.2169C7.87251 61.4057 11.6936 63 16.2974 63C21.4537 63 25.9193 60.9273 29.6945 56.782C33.4696 52.6366 35.3571 47.6031 35.3571 41.6811C35.3571 23.9153 25.321 10.0217 5.24832 0L0 9.83948ZM39.6429 9.83948C50.9682 15.3059 56.6309 21.7288 56.6309 29.1085C51.7508 29.6551 47.7456 31.5911 44.615 34.9165C41.4844 38.2419 39.9191 42.0911 39.9191 46.4642C39.9191 51.1106 41.4613 55.0282 44.5459 58.2169C47.6305 61.4057 51.4746 63 56.0784 63C61.2347 63 65.6773 60.9273 69.4064 56.782C73.1355 52.6366 75 47.6031 75 41.6811C75 23.9153 65.0099 10.0217 45.0293 0L39.6429 9.83948Z" fill="#EDECFB"/>
</svg>
