<svg width="15" height="17" viewBox="0 0 15 17" fill="none" xmlns="http://www.w3.org/2000/svg">
<path fill-rule="evenodd" clip-rule="evenodd" d="M2.8787 2.04097C4.18344 0.73416 5.95304 0 7.79822 0C9.6434 0 11.413 0.73416 12.7177 2.04097C14.0225 3.34778 14.7555 5.1202 14.7555 6.96831C14.7555 8.81643 14.0225 10.5888 12.7177 11.8957L7.79822 16.823L2.8787 11.8957C2.23262 11.2486 1.72011 10.4804 1.37045 9.635C1.02079 8.78956 0.84082 7.88342 0.84082 6.96831C0.84082 6.05321 1.02079 5.14707 1.37045 4.30163C1.72011 3.45619 2.23262 2.68802 2.8787 2.04097ZM7.79822 8.95916C8.32539 8.95916 8.83097 8.74941 9.20373 8.37605C9.57649 8.0027 9.78591 7.49632 9.78591 6.96831C9.78591 6.44031 9.57649 5.93393 9.20373 5.56057C8.83097 5.18722 8.32539 4.97747 7.79822 4.97747C7.27106 4.97747 6.76548 5.18722 6.39272 5.56057C6.01995 5.93393 5.81054 6.44031 5.81054 6.96831C5.81054 7.49632 6.01995 8.0027 6.39272 8.37605C6.76548 8.74941 7.27106 8.95916 7.79822 8.95916Z" fill="#1D66FF"/>
</svg>
