<svg width="102" height="141" viewBox="0 0 102 141" fill="none" xmlns="http://www.w3.org/2000/svg">
<g clip-path="url(#clip0_1085_5087)">
<path d="M101.904 0.109375H0.109375V140.912H101.904V0.109375Z" fill="white"/>
<path d="M101.903 140.912C101.903 140.032 101.861 83.3857 101.803 0.109397L101.903 0.210379L0.121723 0.218794L0.218263 0.109397C0.209868 52.7546 0.205671 101.478 0.197276 140.912L0.109131 140.823L101.903 140.912L0.109131 141H0.0209868V140.912C0 101.478 0 52.7546 0 0.109397V0H0.121723H101.903H101.996V0.109397C101.941 83.3857 101.903 140.032 101.903 140.912Z" fill="#263238"/>
<path d="M32.5402 22.7854C33.6596 17.9861 30.686 13.1859 25.8983 12.0637C21.1107 10.9416 16.3221 13.9226 15.2026 18.7218C14.0832 23.5211 17.0569 28.3214 21.8446 29.4435C26.6322 30.5657 31.4208 27.5847 32.5402 22.7854Z" fill="#24BFB4"/>
<path d="M23.5344 25.3969C22.6103 25.4207 21.7145 25.0762 21.0433 24.4389C20.3722 23.8016 19.9805 22.9235 19.9541 21.9972V16.9481L23.5344 17.7013L27.1148 16.9481V21.9972C27.0884 22.9235 26.6967 23.8016 26.0256 24.4389C25.3544 25.0762 24.4586 25.4207 23.5344 25.3969Z" fill="white"/>
<path d="M61.6132 16.4474H40.5047C39.7675 16.4474 39.1699 17.0464 39.1699 17.7854V17.92C39.1699 18.659 39.7675 19.258 40.5047 19.258H61.6132C62.3504 19.258 62.948 18.659 62.948 17.92V17.7854C62.948 17.0464 62.3504 16.4474 61.6132 16.4474Z" fill="#24BFB4"/>
<path d="M87.4565 52.9271H14.5525C13.8154 52.9271 13.2178 53.5262 13.2178 54.2651V54.3998C13.2178 55.1387 13.8154 55.7378 14.5525 55.7378H87.4565C88.1936 55.7378 88.7912 55.1387 88.7912 54.3998V54.2651C88.7912 53.5262 88.1936 52.9271 87.4565 52.9271Z" fill="#E0E0E0"/>
<path d="M87.4565 61.359H14.5525C13.8154 61.359 13.2178 61.9581 13.2178 62.697V62.8317C13.2178 63.5706 13.8154 64.1697 14.5525 64.1697H87.4565C88.1936 64.1697 88.7912 63.5706 88.7912 62.8317V62.697C88.7912 61.9581 88.1936 61.359 87.4565 61.359Z" fill="#E0E0E0"/>
<path d="M87.4565 91.8892H14.5525C13.8154 91.8892 13.2178 92.4882 13.2178 93.2272V93.3618C13.2178 94.1008 13.8154 94.6998 14.5525 94.6998H87.4565C88.1936 94.6998 88.7912 94.1008 88.7912 93.3618V93.2272C88.7912 92.4882 88.1936 91.8892 87.4565 91.8892Z" fill="#E0E0E0"/>
<path d="M87.4565 100.868H14.5525C13.8154 100.868 13.2178 101.467 13.2178 102.206V102.341C13.2178 103.08 13.8154 103.679 14.5525 103.679H87.4565C88.1936 103.679 88.7912 103.08 88.7912 102.341V102.206C88.7912 101.467 88.1936 100.868 87.4565 100.868Z" fill="#E0E0E0"/>
<path d="M87.4565 109.847H14.5525C13.8154 109.847 13.2178 110.446 13.2178 111.185V111.32C13.2178 112.059 13.8154 112.658 14.5525 112.658H87.4565C88.1936 112.658 88.7912 112.059 88.7912 111.32V111.185C88.7912 110.446 88.1936 109.847 87.4565 109.847Z" fill="#E0E0E0"/>
<path d="M87.6156 45.8457H14.7117C13.9745 45.8457 13.377 46.4448 13.377 47.1837V47.3184C13.377 48.0573 13.9745 48.6564 14.7117 48.6564H87.6156C88.3528 48.6564 88.9504 48.0573 88.9504 47.3184V47.1837C88.9504 46.4448 88.3528 45.8457 87.6156 45.8457Z" fill="#E0E0E0"/>
<path d="M33.0248 37.3086H14.7117C13.9745 37.3086 13.377 37.9076 13.377 38.6466V38.7812C13.377 39.5202 13.9745 40.1193 14.7117 40.1193H33.0248C33.762 40.1193 34.3595 39.5202 34.3595 38.7812V38.6466C34.3595 37.9076 33.762 37.3086 33.0248 37.3086Z" fill="#E0E0E0"/>
<path d="M83.0576 22.2496H40.1648C39.4277 22.2496 38.8301 22.8487 38.8301 23.5876V23.7223C38.8301 24.4612 39.4277 25.0603 40.1648 25.0603H83.0576C83.7948 25.0603 84.3924 24.4612 84.3924 23.7223V23.5876C84.3924 22.8487 83.7948 22.2496 83.0576 22.2496Z" fill="#E0E0E0"/>
<path d="M23.5428 79.864H19.5889L18.8334 81.6943H16.8145L20.5921 73.1571H22.5396L26.3467 81.6943H24.2941L23.5428 79.864ZM22.9216 78.3661L21.5701 75.0968L20.2185 78.3661H22.9216Z" fill="#24BFB4"/>
<path d="M27.2539 73.1571H31.1197C31.9696 73.1384 32.8121 73.32 33.5793 73.6872C34.2714 74.0117 34.8547 74.5306 35.2583 75.1809C35.6433 75.8661 35.8456 76.6392 35.8456 77.4257C35.8456 78.2121 35.6433 78.9852 35.2583 79.6704C34.8536 80.3198 34.2706 80.8384 33.5793 81.1641C32.8147 81.5301 31.9752 81.7116 31.1281 81.6942H27.2539V73.1571ZM31.0315 80.0701C31.778 80.1087 32.5099 79.8536 33.0714 79.359C33.5594 78.8341 33.8308 78.1432 33.8308 77.4257C33.8308 76.7081 33.5594 76.0172 33.0714 75.4923C32.5104 74.9966 31.7785 74.74 31.0315 74.777H29.2225V80.0701H31.0315Z" fill="#24BFB4"/>
<path d="M45.0506 81.6943V76.5694L42.5321 80.777H41.6465L39.1281 76.6704V81.6817H37.2812V73.1571H38.9098L42.0998 78.4629L45.2394 73.1571H46.8554L46.8806 81.6943H45.0506Z" fill="#24BFB4"/>
<path d="M48.9199 73.1571H50.8927V81.6943H48.9199V73.1571Z" fill="#24BFB4"/>
<path d="M54.6753 74.7644H51.9512V73.1571H59.3721V74.7644H56.6648V81.6943H54.692L54.6753 74.7644Z" fill="#24BFB4"/>
<path d="M62.314 74.7644H59.6025V73.1571H67.0235V74.7644H64.2994V81.6943H62.3266L62.314 74.7644Z" fill="#24BFB4"/>
<path d="M74.6624 80.108V81.6943H68.0684V73.1571H74.5071V74.7434H70.0285V76.5779H73.9824V78.1136H70.0285V80.0912L74.6624 80.108Z" fill="#24BFB4"/>
<path d="M76.2324 73.157H80.1024C80.9495 73.1406 81.7887 73.3221 82.5536 73.6872C83.2369 74.015 83.8111 74.5337 84.2074 75.1809C84.5952 75.8651 84.7991 76.6386 84.7991 77.4256C84.7991 78.2126 84.5952 78.9861 84.2074 79.6704C83.81 80.3166 83.2361 80.835 82.5536 81.164C81.7887 81.5291 80.9495 81.7106 80.1024 81.6942H76.2324V73.157ZM80.01 80.0701C80.7553 80.1094 81.4862 79.8541 82.0458 79.359C82.5366 78.8355 82.8098 78.144 82.8098 77.4256C82.8098 76.7072 82.5366 76.0158 82.0458 75.4922C81.4867 74.996 80.7558 74.7393 80.01 74.7769H78.2094V80.0701H80.01Z" fill="#24BFB4"/>
<path d="M89.8236 86.7476H12.29V67.7419H89.8236V86.7476ZM12.7014 86.3268H89.4039V68.1627H12.7098L12.7014 86.3268Z" fill="#24BFB4"/>
<path d="M83.0574 127.241C82.9651 127.241 82.9441 126.669 82.6377 125.727C82.226 124.405 81.3984 123.252 80.2788 122.44C79.5233 121.895 78.6531 121.531 77.7352 121.376C76.6899 121.2 75.6169 121.305 74.6249 121.679C74.0914 121.876 73.5905 122.153 73.1391 122.499C72.6636 122.852 72.2471 123.278 71.905 123.762C71.1677 124.771 70.7702 125.99 70.7702 127.241C70.7702 128.493 71.1677 129.711 71.905 130.721C72.2459 131.206 72.6626 131.632 73.1391 131.983C73.5905 132.33 74.0914 132.606 74.6249 132.804C75.5569 133.154 76.5608 133.268 77.5473 133.135C78.5337 133.002 79.472 132.626 80.2788 132.042C81.3973 131.231 82.2246 130.08 82.6377 128.76C82.9315 127.813 82.9525 127.237 83.0574 127.241C83.1623 127.245 83.2463 127.818 83.0574 128.861C82.9403 129.498 82.7206 130.112 82.4068 130.679C81.9929 131.442 81.4306 132.115 80.7531 132.656C79.9254 133.326 78.9494 133.786 77.9073 133.999C76.6997 134.247 75.4475 134.161 74.2849 133.75C73.653 133.535 73.0583 133.223 72.522 132.825C71.9543 132.418 71.4555 131.922 71.0446 131.356C70.1615 130.167 69.6846 128.724 69.6846 127.241C69.6846 125.759 70.1615 124.316 71.0446 123.126C71.4566 122.562 71.9553 122.066 72.522 121.658C73.0583 121.26 73.653 120.947 74.2849 120.732C75.4475 120.321 76.6997 120.235 77.9073 120.484C78.9494 120.696 79.9254 121.157 80.7531 121.826C81.4306 122.368 81.9929 123.04 82.4068 123.804C82.7206 124.37 82.9403 124.984 83.0574 125.621C83.2463 126.648 83.1078 127.245 83.0574 127.241Z" fill="#24BFB4"/>
<path d="M55.9632 129.635C55.9249 129.681 55.8812 129.722 55.833 129.757C55.7449 129.833 55.6106 129.938 55.4133 130.073C54.8777 130.466 54.2989 130.797 53.6882 131.058C52.7181 131.483 51.6595 131.666 50.6031 131.592C49.9439 131.539 49.299 131.371 48.6975 131.095C48.0177 130.787 47.4196 130.323 46.9514 129.741C46.4434 129.086 46.1397 128.296 46.0784 127.468C45.9976 126.57 46.2452 125.673 46.7751 124.944C47.0611 124.561 47.4376 124.256 47.8707 124.056C48.3226 123.837 48.8379 123.788 49.3229 123.917C49.8179 124.078 50.2326 124.423 50.4814 124.881C50.7394 125.339 50.8604 125.862 50.8298 126.387C50.7668 127.46 50.1246 128.403 49.3817 129.164C48.6108 129.946 47.7515 130.635 46.8213 131.217C45.8591 131.819 44.8309 132.307 43.7572 132.673C42.6511 133.064 41.4918 133.282 40.3196 133.321C39.12 133.379 37.9363 133.028 36.9617 132.324C36.0636 131.586 35.442 130.564 35.1988 129.425C34.9688 128.34 34.9874 127.216 35.2534 126.139C35.5001 125.116 35.8694 124.127 36.3531 123.194C36.5935 122.74 36.8973 122.324 37.2555 121.957C37.6168 121.568 38.0939 121.306 38.6155 121.212C38.8635 121.17 39.1177 121.183 39.36 121.251C39.6023 121.318 39.8267 121.439 40.0174 121.603C40.3803 121.922 40.6368 122.345 40.7519 122.815C40.9223 123.708 40.7321 124.633 40.2231 125.386C40.0135 125.746 39.7749 126.088 39.5095 126.408C39.2619 126.732 38.9974 127.022 38.733 127.313C38.2228 127.842 37.6742 128.333 37.0918 128.781C36.5673 129.177 36.0162 129.535 35.4423 129.854C34.525 130.366 33.5518 130.77 32.5419 131.058C31.9054 131.241 31.2556 131.375 30.5985 131.457L30.0822 131.504H29.9102C29.9665 131.488 30.0241 131.478 30.0822 131.474L30.5901 131.407C31.2409 131.309 31.8845 131.169 32.5167 130.986C33.5149 130.685 34.4765 130.273 35.3835 129.757C35.9482 129.435 36.4909 129.075 37.0079 128.68C37.5785 128.227 38.1158 127.734 38.6155 127.203C38.8715 126.922 39.1318 126.627 39.3752 126.307C39.6331 125.991 39.866 125.654 40.072 125.302C40.5466 124.583 40.72 123.707 40.5547 122.861C40.4449 122.429 40.2079 122.041 39.8747 121.746C39.7025 121.6 39.5006 121.494 39.2831 121.434C39.0656 121.375 38.8378 121.363 38.6155 121.401C38.152 121.495 37.7301 121.733 37.4108 122.083C37.0714 122.439 36.7857 122.843 36.563 123.282C36.0903 124.203 35.7309 125.178 35.4926 126.185C35.2345 127.231 35.2173 128.321 35.4423 129.375C35.6725 130.464 36.2644 131.443 37.1212 132.152C38.0514 132.821 39.1799 133.156 40.3238 133.102C41.4691 133.065 42.6017 132.851 43.6817 132.467C44.7401 132.107 45.754 131.627 46.7038 131.037C47.617 130.463 48.462 129.787 49.2222 129.021C49.9525 128.276 50.5612 127.368 50.6241 126.375C50.6871 125.382 50.154 124.372 49.26 124.102C48.8204 123.982 48.3522 124.025 47.942 124.224C47.5345 124.414 47.1809 124.704 46.9137 125.066C46.4049 125.761 46.1648 126.618 46.2379 127.477C46.2965 128.273 46.5886 129.034 47.0774 129.665C47.525 130.233 48.1003 130.687 48.7563 130.99C49.342 131.265 49.9714 131.435 50.6157 131.491C51.6533 131.571 52.6951 131.403 53.6546 130.999C54.2645 130.749 54.8457 130.435 55.3881 130.06C55.5728 129.93 55.7155 129.829 55.8079 129.757L55.9632 129.635Z" fill="#263238"/>
<path d="M76.6483 131.041C75.9142 131.06 75.2025 130.786 74.6697 130.28C74.1368 129.773 73.8264 129.075 73.8066 128.339V124.325L76.6483 124.923L79.4899 124.325V128.331C79.4812 128.696 79.4007 129.056 79.2531 129.39C79.1055 129.724 78.8937 130.025 78.6297 130.277C78.3658 130.528 78.0549 130.725 77.7149 130.857C77.3749 130.988 77.0124 131.05 76.6483 131.041Z" fill="#24BFB4"/>
</g>
<defs>
<clipPath id="clip0_1085_5087">
<rect width="102" height="141" fill="white"/>
</clipPath>
</defs>
</svg>
