<svg width="16" height="16" viewBox="0 0 16 16" fill="none" xmlns="http://www.w3.org/2000/svg">
<path d="M8.04945 0.25C3.79559 0.25 0.347168 3.71978 0.347168 8C0.347168 12.2802 3.79559 15.75 8.04945 15.75C12.3033 15.75 15.7517 12.2802 15.7517 8C15.7517 3.71978 12.3033 0.25 8.04945 0.25ZM8.04945 14.25C4.6166 14.25 1.83793 11.4547 1.83793 8C1.83793 4.54591 4.61607 1.75 8.04945 1.75C11.4823 1.75 14.261 4.54534 14.261 8C14.261 11.4541 11.4828 14.25 8.04945 14.25ZM11.3835 11.0918C11.0849 11.3953 9.96947 12.3854 8.15151 12.3854C5.59143 12.3854 3.78841 10.4658 3.78841 7.96141C3.78841 5.48791 5.66041 3.60512 8.12909 3.60512C9.85375 3.60512 10.8851 4.437 11.1601 4.69197C11.2247 4.75177 11.2662 4.83266 11.2772 4.92031C11.2882 5.00795 11.268 5.09669 11.2202 5.17078L10.6564 6.04931C10.5371 6.23525 10.2847 6.27687 10.1129 6.14059C9.84595 5.92884 9.12482 5.43628 8.19639 5.43628C6.69621 5.43628 5.7765 6.54034 5.7765 7.93884C5.7765 9.2385 6.61158 10.5542 8.2076 10.5542C9.22185 10.5542 9.97301 9.95925 10.2489 9.70344C10.4126 9.55166 10.6712 9.57722 10.8023 9.75775L11.4193 10.6068C11.4719 10.6786 11.4972 10.767 11.4906 10.8559C11.4841 10.9449 11.4461 11.0285 11.3835 11.0918Z" fill="#00414A"/>
</svg>
