<svg width="19" height="16" viewBox="0 0 19 16" fill="none" xmlns="http://www.w3.org/2000/svg">
<path d="M18.2911 2.58737C18.1731 2.83669 17.9535 3.15162 17.6322 3.53213C17.311 3.91265 16.9143 4.24726 16.4423 4.53593C16.4554 4.64092 16.4652 4.73932 16.4718 4.83117C16.5227 6.24535 16.1842 7.71261 15.7145 8.93498C14.8042 11.2077 13.4093 13.0368 11.417 14.2788C9.33932 15.4714 6.91966 15.725 4.69032 15.5089C3.2103 15.3388 1.75159 14.8552 0.648438 13.9442C2.66607 14.1855 4.54901 13.4987 6.03761 12.3892C4.38402 12.4311 3.18257 11.2341 2.6153 9.8502C2.87102 9.91727 3.13853 9.90918 3.38238 9.88958C3.68254 9.86136 3.96747 9.83319 4.24779 9.7715C3.19339 9.43106 2.2708 8.80524 1.78923 7.86228C1.50675 7.2648 1.37921 6.69583 1.3762 6.05149C1.87027 6.3118 2.46457 6.5655 3.00869 6.54354C2.18695 5.84694 1.52817 4.95667 1.40571 3.9356C1.32839 3.08423 1.54127 2.30708 1.84826 1.58354C3.07747 2.93542 4.45665 4.04794 6.04748 4.73274C7.13542 5.17857 8.22026 5.41699 9.34197 5.42162C9.21249 4.41903 9.31317 3.44939 9.78452 2.6267C10.3392 1.7422 11.1486 1.22902 12.0563 0.973362C13.355 0.640091 14.6217 1.11085 15.4196 2.01653C16.28 1.92354 17.1042 1.54157 17.7601 1.1505C17.4814 1.99516 16.9387 2.83499 16.1473 3.23685C16.9008 3.09725 17.6197 2.87405 18.2911 2.58737V2.58737Z" fill="#2E536B"/>
</svg>
