<svg width="19" height="18" viewBox="0 0 19 18" fill="none" xmlns="http://www.w3.org/2000/svg">
<g clip-path="url(#clip0_6298_14537)">
<path d="M4.86437 17.8472V6.461H1.0825V17.8472H4.86437ZM2.97393 4.90547C4.29273 4.90547 5.11362 4.03114 5.11362 2.93852C5.08905 1.82125 4.29278 0.971191 2.99895 0.971191C1.70533 0.971191 0.859375 1.82127 0.859375 2.93852C0.859375 4.03119 1.68006 4.90547 2.94924 4.90547H2.97381H2.97393ZM6.95762 17.8472H10.7395V11.4886C10.7395 11.1483 10.7641 10.8084 10.8639 10.5651C11.1373 9.88517 11.7596 9.18096 12.8043 9.18096C14.1728 9.18096 14.7203 10.2251 14.7203 11.7558V17.8472H18.5019V11.3184C18.5019 7.82099 16.6361 6.19369 14.1479 6.19369C12.1077 6.19369 11.212 7.33488 10.7143 8.11214H10.7396V6.46077H6.95771C7.00734 7.52919 6.95771 17.847 6.95771 17.847L6.95762 17.8472Z" fill="#2E536B"/>
</g>
<defs>
<clipPath id="clip0_6298_14537">
<rect width="17.6427" height="16.876" fill="white" transform="translate(0.859375 0.97168)"/>
</clipPath>
</defs>
</svg>
