<svg width="23" height="24" viewBox="0 0 23 24" fill="none" xmlns="http://www.w3.org/2000/svg">
<path d="M11.4665 8.82694C9.8225 8.82694 8.48086 10.1695 8.48086 11.8147C8.48086 13.4599 9.8225 14.8025 11.4665 14.8025C13.1105 14.8025 14.4522 13.4599 14.4522 11.8147C14.4522 10.1695 13.1105 8.82694 11.4665 8.82694ZM20.4212 11.8147C20.4212 10.5775 20.4324 9.35142 20.363 8.11642C20.2935 6.68193 19.9665 5.40883 18.9183 4.35986C17.8678 3.30865 16.5979 2.98365 15.1644 2.91417C13.928 2.84468 12.7029 2.85589 11.4687 2.85589C10.2324 2.85589 9.00721 2.84468 7.77309 2.91417C6.33962 2.98365 5.06742 3.31089 4.01919 4.35986C2.96873 5.41107 2.64396 6.68193 2.57453 8.11642C2.50509 9.35366 2.51629 10.5797 2.51629 11.8147C2.51629 13.0497 2.50509 14.278 2.57453 15.513C2.64396 16.9475 2.97097 18.2206 4.01919 19.2695C5.06966 20.3208 6.33962 20.6458 7.77309 20.7152C9.00945 20.7847 10.2346 20.7735 11.4687 20.7735C12.7051 20.7735 13.9303 20.7847 15.1644 20.7152C16.5979 20.6458 17.8701 20.3185 18.9183 19.2695C19.9688 18.2183 20.2935 16.9475 20.363 15.513C20.4346 14.278 20.4212 13.0519 20.4212 11.8147V11.8147ZM11.4665 16.4118C8.92434 16.4118 6.87269 14.3587 6.87269 11.8147C6.87269 9.27073 8.92434 7.21762 11.4665 7.21762C14.0087 7.21762 16.0603 9.27073 16.0603 11.8147C16.0603 14.3587 14.0087 16.4118 11.4665 16.4118ZM16.2485 8.10297C15.6549 8.10297 15.1756 7.62331 15.1756 7.02935C15.1756 6.43538 15.6549 5.95573 16.2485 5.95573C16.842 5.95573 17.3213 6.43538 17.3213 7.02935C17.3215 7.17039 17.2939 7.31008 17.24 7.44042C17.1862 7.57075 17.1071 7.68918 17.0075 7.78891C16.9078 7.88864 16.7895 7.96772 16.6592 8.02161C16.529 8.0755 16.3894 8.10315 16.2485 8.10297V8.10297Z" fill="#2E536B"/>
</svg>
