<svg width="82" height="69" viewBox="0 0 82 69" fill="none" xmlns="http://www.w3.org/2000/svg">
<g clip-path="url(#clip0_6250_14725)">
<path d="M81.1022 30.154C80.4614 40.0759 74.4292 49.1286 67.1116 56.1763C59.7909 63.1465 51.1849 68.1117 42.5771 68.3036C33.929 68.4583 25.242 63.88 17.7589 57.4292C10.2386 51.0186 3.9254 42.813 1.56223 32.5077C-0.800933 22.2025 1.559 10.1183 7.79131 3.65493C16.0039 -3.38171 26.8178 5.42956 38.5071 5.61791C50.1593 5.84657 61.4796 -1.65358 69.3524 3.88897C77.1476 9.43465 81.8206 20.2289 81.1022 30.154Z" fill="#F2F6FF"/>
<path d="M56.6147 21.3992C56.6193 21.2874 56.6233 21.1756 56.6233 21.0631C56.622 16.5397 52.8071 12.6183 48.1004 12.6183C44.6601 12.6183 41.6967 14.8334 40.351 17.6558C39.004 14.8334 36.0413 12.6183 32.6003 12.6183C27.8943 12.6183 24.0788 16.5397 24.0788 21.0631C24.0788 21.1756 24.0827 21.2874 24.0874 21.3992C24.0874 21.3992 23.6064 26.7728 29.586 32.6399C32.3052 35.3644 35.346 37.9533 40.351 42.0216C45.3561 37.9533 48.3968 35.3644 51.1161 32.6399C57.0957 26.7728 56.6147 21.3992 56.6147 21.3992Z" fill="#6F96E4" fill-opacity="0.6"/>
<path d="M19.5802 41.5749C19.5802 41.5749 17.8395 38.0935 16.7207 37.1639C15.602 36.2344 16.0982 34.9231 18.1492 35.2334C20.2001 35.5437 22.9987 39.2123 24.3683 40.8908C25.7378 42.5693 27.2899 42.6943 27.2899 42.6943C32.3261 43.44 33.8041 43.7966 36.5604 48.1486C40.1033 53.7425 37.4304 56.3526 33.7003 56.1065C29.9701 55.8603 27.9807 53.9926 27.9807 53.9926C27.9807 53.9926 22.6878 50.6515 20.6368 49.7193C18.5858 48.7871 14.0472 39.2745 12.9886 36.726C11.93 34.1774 12.7418 25.1002 14.2338 25.1624C15.7257 25.2246 16.5342 26.0946 16.5342 29.39C16.5342 32.6855 16.8451 34.239 16.8451 34.239" stroke="#6F96E4" stroke-opacity="0.6" stroke-width="1.5" stroke-linecap="round" stroke-linejoin="round"/>
<path d="M61.1124 41.5749C61.1124 41.5749 62.8531 38.0935 63.9719 37.1606C65.0907 36.2278 64.5938 34.9231 62.5422 35.2334C60.4905 35.5437 57.6932 39.2123 56.323 40.8908C54.9528 42.5693 53.4014 42.6943 53.4014 42.6943C48.3659 43.44 46.8872 43.7966 44.1309 48.1486C40.588 53.7425 43.2609 56.3526 46.991 56.1065C50.7212 55.8603 52.7107 53.9926 52.7107 53.9926C52.7107 53.9926 58.0035 50.6515 60.0545 49.7193C62.1055 48.7871 66.6454 39.2745 67.702 36.726C68.7586 34.1774 67.9508 25.1002 66.4589 25.1624C64.9669 25.2246 64.1585 26.0946 64.1585 29.39C64.1585 32.6855 63.8475 34.239 63.8475 34.239" stroke="#6F96E4" stroke-opacity="0.6" stroke-width="1.5" stroke-linecap="round" stroke-linejoin="round"/>
</g>
<defs>
<clipPath id="clip0_6250_14725">
<rect width="82" height="69" fill="white"/>
</clipPath>
</defs>
</svg>
