<svg width="79" height="79" viewBox="0 0 79 79" fill="none" xmlns="http://www.w3.org/2000/svg">
<g clip-path="url(#clip0_6250_14730)">
<path d="M72.6878 60.6103C67.1718 68.8825 57.4214 73.7062 47.5604 76.151C37.7354 78.527 27.7997 78.524 20.2492 74.3863C12.6824 70.1962 7.44835 61.8877 4.19321 52.5596C0.885729 43.2477 -0.478868 32.9849 2.62721 22.8787C5.7333 12.7725 13.3101 2.82285 22.4482 1.00595C31.5863 -0.810952 42.181 5.5375 52.2101 11.5453C62.1868 17.5694 71.5978 23.2528 75.6446 31.9892C79.6227 40.6895 78.2724 52.3741 72.6878 60.6103Z" fill="#F2F6FF"/>
<mask id="mask0_6250_14730" style="mask-type:alpha" maskUnits="userSpaceOnUse" x="1" y="0" width="78" height="79">
<path d="M72.9291 61.087C67.4833 69.3853 57.8152 74.1964 48.027 76.6138C38.2743 78.9622 28.4015 78.9168 20.8812 74.7222C13.3444 70.4747 8.10813 62.0942 4.83385 52.6962C1.50763 43.3145 0.107951 32.9843 3.15131 22.8307C6.19467 12.6772 13.6811 2.70021 22.7536 0.911346C31.8261 -0.877514 42.3808 5.55413 52.372 11.6406C62.3112 17.7434 71.6869 23.5009 75.7452 32.3069C79.7352 41.0764 78.4433 52.8252 72.9291 61.087Z" fill="#F2F6FF"/>
</mask>
<g mask="url(#mask0_6250_14730)">
</g>
<path d="M37.3289 14.9769C47.5016 14.8157 56.5454 19.9888 61.793 27.9037L63.2445 27.0229C57.6991 18.6118 48.1095 13.1161 37.3165 13.2898C20.5067 13.5503 7.07133 27.4323 7.33185 44.2297C7.60478 61.027 21.4868 74.4749 38.2842 74.2019C55.0815 73.929 68.5294 60.047 68.2564 43.2496C68.182 38.2253 66.867 33.4987 64.634 29.3552L63.1825 30.236C65.2666 34.1438 66.4948 38.5726 66.5692 43.2992C66.8174 59.1662 54.1263 72.279 38.2594 72.5272C22.3924 72.7753 9.27955 60.0718 9.03143 44.2049C8.77091 28.3379 21.4744 15.225 37.3289 14.9769Z" fill="#C2D4F6"/>
<path d="M37.4624 23.3631C44.5585 23.2514 50.873 26.787 54.6071 32.2332L60.4378 28.7099C55.4879 21.2665 46.9652 16.4158 37.3632 16.5647C22.3522 16.8004 10.3807 29.169 10.6288 44.1799C10.8645 59.1908 23.233 71.1624 38.2316 70.9143C53.2425 70.6785 65.214 58.31 64.9659 43.2991C64.8915 38.8702 63.7626 34.7019 61.8149 31.0298L55.9718 34.5654C57.324 37.2327 58.118 40.2225 58.1676 43.4107C58.3537 54.6627 49.3719 63.9422 38.1075 64.1159C26.8555 64.302 17.576 55.3202 17.4023 44.0558C17.2286 32.8162 26.2104 23.5492 37.4624 23.3631Z" fill="#C2D4F6"/>
<path d="M37.5805 30.1616C42.1706 30.0872 46.2645 32.3078 48.7828 35.7566L54.6135 32.2334C50.8794 26.7873 44.5773 23.2516 37.4688 23.3633C26.2168 23.5494 17.235 32.8164 17.4087 44.0684C17.5948 55.3204 26.8619 64.3022 38.1139 64.1285C49.3659 63.9424 58.3477 54.6754 58.174 43.4234C58.1244 40.2351 57.318 37.2453 55.9782 34.5781L50.1475 38.1013C50.9042 39.7637 51.3508 41.5873 51.3756 43.535C51.4997 51.0405 45.5077 57.2185 38.0023 57.3426C30.4968 57.4666 24.3187 51.4747 24.1947 43.9692C24.0954 36.4637 30.075 30.2733 37.5805 30.1616Z" fill="white"/>
<path d="M37.6897 36.9475C39.7739 36.9103 41.6595 37.8283 42.9249 39.2922L48.7804 35.7566C46.2621 32.3078 42.1806 30.0872 37.5781 30.1616C30.0726 30.2856 24.093 36.4637 24.2047 43.9692C24.3287 51.4746 30.5068 57.4542 38.0123 57.3426C45.5177 57.2185 51.4973 51.0404 51.3856 43.535C51.3608 41.5997 50.9142 39.7636 50.1575 38.1013L44.2647 41.6617C44.4632 42.282 44.5873 42.9519 44.5873 43.6466C44.6493 47.3932 41.6595 50.4946 37.9006 50.5442C34.1541 50.6062 31.065 47.6041 31.003 43.8575C30.941 40.0986 33.9308 37.0096 37.6897 36.9475Z" fill="#C2D4F6"/>
<path d="M38.6925 41.8476L42.9229 39.2921C41.6575 37.8282 39.7718 36.9226 37.6876 36.9474C33.9411 37.0094 30.9389 40.0984 31.0009 43.845C31.063 47.5915 34.152 50.5937 37.8985 50.5317C41.6575 50.4696 44.6473 47.3806 44.5852 43.6341C44.5728 42.9393 44.4612 42.2818 44.2627 41.6492L39.9331 44.2668C39.3872 44.6017 38.6677 44.4404 38.3203 43.8946L38.2583 43.7954C37.8241 43.1378 38.0226 42.257 38.6925 41.8476Z" fill="white"/>
<path d="M76.7995 26.5887C77.0724 26.7375 77.395 26.7251 77.6555 26.5638L78.5487 26.018C78.6852 25.9312 78.7596 25.7823 78.7596 25.6334C78.7596 25.4721 78.6604 25.3357 78.5239 25.2612L74.3804 23.0778L74.8518 22.7925C74.9511 22.7305 75.0255 22.6312 75.0503 22.5196C75.0751 22.4079 75.0627 22.2839 75.0007 22.1846L74.4176 21.2542C74.2936 21.0557 74.0206 20.9937 73.8221 21.1053L73.3383 21.3907L73.2391 16.7633C73.2391 16.6144 73.1522 16.4656 73.0158 16.3911C72.8793 16.3167 72.7056 16.3167 72.5816 16.4035L71.6884 16.937C71.4154 17.0983 71.2666 17.3836 71.2666 17.7062L71.3782 22.594L71.1425 22.7429L71.0433 18.1155C71.0433 17.9543 70.9564 17.8178 70.82 17.7434C70.6835 17.6689 70.5222 17.6689 70.3858 17.7558L69.4925 18.2892C69.2196 18.4505 69.0707 18.7358 69.0707 19.0584L69.1824 23.9462L68.9467 24.0951L68.8474 19.4678C68.8474 19.3065 68.7606 19.17 68.6241 19.0956C68.4877 19.0212 68.3264 19.0212 68.1899 19.108L67.2967 19.6414C67.0238 19.8027 66.8749 20.0881 66.8749 20.4106L66.9742 24.5665C66.9742 24.7278 66.8997 24.8643 66.7633 24.9511L63.2773 27.0601L61.8258 27.9409L60.4736 28.7597L54.6429 32.2829L48.8122 35.8061L42.9194 39.2921L38.6891 41.8477C38.0192 42.2571 37.8083 43.1379 38.2425 43.8078L38.3045 43.9071C38.6643 44.4405 39.3714 44.6018 39.9173 44.2792L44.2469 41.6616L50.1396 38.1012L55.9703 34.578L61.8134 31.0423L63.178 30.2235L64.6295 29.3551L68.1155 27.2462C68.2396 27.1717 68.4008 27.1593 68.5373 27.2338L72.3831 29.2559C72.656 29.3924 72.9786 29.3924 73.2391 29.2311L74.1323 28.6852C74.2687 28.5984 74.3432 28.4495 74.3432 28.3006C74.3432 28.1394 74.2439 28.0029 74.1075 27.9285L69.964 25.7451L70.1873 25.6086L74.5789 27.9161C74.8518 28.0649 75.1744 28.0525 75.4349 27.8913L76.3281 27.3454C76.4646 27.2586 76.539 27.1097 76.539 26.9608C76.539 26.7996 76.4397 26.6631 76.3033 26.5887L72.1598 24.4052L72.3831 24.2688L76.7995 26.5887Z" fill="#6F96E4"/>
</g>
<defs>
<clipPath id="clip0_6250_14730">
<rect width="79" height="79" fill="white"/>
</clipPath>
</defs>
</svg>
