<svg width="84" height="64" viewBox="0 0 84 64" fill="none" xmlns="http://www.w3.org/2000/svg">
<g clip-path="url(#clip0_6250_14685)">
<path d="M66.0122 61.0014C64.8005 61.0014 63.8177 61.7726 63.8177 62.7245C63.8177 63.1258 63.9933 63.4957 64.2873 63.7886H58.1204C56.5224 59.2409 56.5224 54.2838 58.1204 49.7361H64.289C63.9929 49.4419 63.8165 49.0721 63.8165 48.6687C63.8165 47.7155 64.7993 46.9456 66.011 46.9456C67.2227 46.9456 68.2067 47.7176 68.2067 48.6687C68.2067 49.0721 68.0303 49.4428 67.7342 49.7361H70.9649V55.0071C70.6772 54.7297 70.3181 54.5658 69.9296 54.5658C68.9783 54.5658 68.2076 55.5493 68.2076 56.7617C68.2076 57.9742 68.9791 58.9589 69.9296 58.9589C70.3181 58.9589 70.6772 58.795 70.9649 58.5176V63.7886H67.7372C68.0312 63.4944 68.2067 63.1258 68.2067 62.7245C68.208 61.7726 67.2252 61.0014 66.0122 61.0014Z" fill="#C2D4F6"/>
<path d="M16.375 26.5542C16.375 11.8889 28.256 0 42.9123 0C57.5686 0 69.4496 11.8889 69.4496 26.5542H16.375Z" fill="white"/>
<path opacity="0.1" d="M16.375 26.5542C16.375 11.8889 28.256 0 42.9123 0C57.5686 0 69.4496 11.8889 69.4496 26.5542H16.375Z" fill="white"/>
<path d="M39.665 64.2146C39.0296 64.2139 38.4195 63.9653 37.9642 63.5217C37.509 63.0782 37.2445 62.4745 37.2269 61.8389L33.2344 59.748H52.5808L48.5879 61.8389C48.5705 62.4742 48.3064 63.0777 47.8516 63.5213C47.3967 63.9648 46.787 64.2136 46.1519 64.2146H39.665Z" fill="#6F96E4"/>
<path d="M52.1577 59.5334L48.4877 61.4548C48.4878 61.7615 48.4275 62.0651 48.3102 62.3485C48.193 62.6318 48.0211 62.8892 47.8044 63.1061C47.5877 63.3229 47.3304 63.4949 47.0473 63.6122C46.7641 63.7295 46.4607 63.7899 46.1542 63.7898H39.6703C39.3638 63.7899 39.0603 63.7295 38.7771 63.6122C38.494 63.4949 38.2367 63.3229 38.0199 63.1061C37.8032 62.8893 37.6313 62.6318 37.514 62.3485C37.3967 62.0652 37.3363 61.7615 37.3363 61.4548L33.6668 59.5334H52.1577ZM53.012 59.3232H32.8125L33.5685 59.7196L37.1301 61.5839C37.164 62.2355 37.4463 62.8493 37.919 63.2988C38.3916 63.7483 39.0186 63.9992 39.6707 64H46.1546C46.8067 63.9992 47.4337 63.7483 47.9063 63.2988C48.379 62.8493 48.6613 62.2355 48.6952 61.5839L52.2556 59.7196L53.0116 59.3232H53.012Z" fill="white"/>
<path d="M42.8776 47.6327C54.5115 47.6327 63.9427 38.1955 63.9427 26.5542C63.9427 14.9128 54.5115 5.47565 42.8776 5.47565C31.2437 5.47565 21.8125 14.9128 21.8125 26.5542C21.8125 38.1955 31.2437 47.6327 42.8776 47.6327Z" fill="white"/>
<path d="M42.8776 47.6327C54.5115 47.6327 63.9427 38.1955 63.9427 26.5542C63.9427 14.9128 54.5115 5.47565 42.8776 5.47565C31.2437 5.47565 21.8125 14.9128 21.8125 26.5542C21.8125 38.1955 31.2437 47.6327 42.8776 47.6327Z" fill="white"/>
<path d="M52.155 41.2303H33.6641V51.3079H52.155V41.2303Z" fill="#C2D4F6"/>
<path d="M52.155 51.3075H33.6641V56.7848H52.155V51.3075Z" fill="#6F96E4"/>
<path d="M56.6272 16.701C55.4147 16.701 54.4315 17.473 54.4315 18.4262C54.4315 18.8296 54.6079 19.2003 54.904 19.4937H49.9282V14.7161C49.6372 15.0031 49.273 15.1741 48.8782 15.1741C47.9261 15.1741 47.1562 14.1907 47.1562 12.9774C47.1562 11.7641 47.9274 10.7815 48.8782 10.7815C49.2751 10.7815 49.6393 10.9526 49.9282 11.2396V6.6402C52.8898 7.69182 55.5795 9.39129 57.8015 11.6148C60.0235 13.8383 61.7218 16.5298 62.7727 19.4932H58.3492C58.6453 19.199 58.8217 18.8292 58.8217 18.4258C58.8217 17.473 57.8389 16.701 56.6272 16.701Z" fill="#FBD682"/>
<path d="M49.9283 42.2941C49.6372 42.5811 49.2731 42.7521 48.8783 42.7521C47.9261 42.7521 47.1562 41.7687 47.1562 40.5562C47.1562 39.3438 47.9274 38.3595 48.8783 38.3595C49.2752 38.3595 49.6393 38.5306 49.9283 38.8176V33.5462H54.9011C54.6071 33.252 54.4315 32.8834 54.4315 32.4821C54.4315 31.5289 55.4147 30.759 56.6273 30.759C57.8398 30.759 58.8218 31.5302 58.8218 32.4821C58.8218 32.8834 58.6462 33.2533 58.3522 33.5462H62.774C61.7231 36.5099 60.0246 39.2017 57.8024 41.4253C55.5801 43.649 52.8901 45.3485 49.9283 46.4001V42.2941Z" fill="#C2D4F6"/>
<path d="M56.6287 30.7577C55.4161 30.7577 54.4329 31.5289 54.4329 32.4808C54.4329 32.8821 54.6085 33.252 54.9025 33.5449H49.9297V28.1533C50.2354 28.5029 50.6387 28.7164 51.0826 28.7164C52.0339 28.7164 52.8046 27.733 52.8046 26.5205C52.8046 25.3081 52.0331 24.3234 51.0826 24.3234C50.6387 24.3234 50.2354 24.5369 49.9297 24.8865V19.4937H54.9054C54.6114 19.1995 54.4329 18.8296 54.4329 18.4262C54.4329 17.473 55.4161 16.701 56.6287 16.701C57.8412 16.701 58.8232 17.473 58.8232 18.4262C58.8232 18.8296 58.6468 19.2003 58.3507 19.4937H62.7741C64.3727 24.0413 64.3727 28.9985 62.7741 33.5461H58.3536C58.6476 33.252 58.8232 32.8834 58.8232 32.482C58.8232 31.5289 57.8404 30.7577 56.6287 30.7577Z" fill="#FBC343"/>
<path d="M35.8901 46.4V42.3108C35.6024 42.5882 35.2433 42.7521 34.8548 42.7521C33.9035 42.7521 33.1328 41.7687 33.1328 40.5562C33.1328 39.3437 33.9048 38.3595 34.8548 38.3595C35.2433 38.3595 35.6024 38.5234 35.8901 38.8007V33.5474H41.1851C40.8911 33.2532 40.7159 32.8846 40.7159 32.4833C40.7159 31.5301 41.6987 30.7602 42.9113 30.7602C44.1238 30.7602 45.1058 31.5314 45.1058 32.4833C45.1058 32.8846 44.9306 33.2545 44.6366 33.5474H49.9328V38.8176C49.6418 38.5305 49.2776 38.3595 48.8828 38.3595C47.9307 38.3595 47.1608 39.3429 47.1608 40.5562C47.1608 41.7695 47.9319 42.7521 48.8828 42.7521C49.2797 42.7521 49.6439 42.5811 49.9328 42.294V46.4C45.3882 47.9987 40.4347 47.9987 35.8901 46.4Z" fill="#C2D4F6"/>
<path d="M42.9113 22.3326C41.6987 22.3326 40.7159 21.5601 40.7159 20.6095C40.7159 20.1842 40.9121 19.7941 41.2376 19.4949H35.8901V14.7329C35.6024 15.0102 35.2433 15.1741 34.8548 15.1741C33.9035 15.1741 33.1328 14.1907 33.1328 12.9774C33.1328 11.7641 33.9048 10.7815 34.8548 10.7815C35.2433 10.7815 35.6024 10.9454 35.8901 11.2228V6.6402C40.4348 5.04205 45.3881 5.04205 49.9328 6.6402V11.2396C49.6418 10.9526 49.2776 10.7815 48.8828 10.7815C47.9307 10.7815 47.1608 11.7649 47.1608 12.9774C47.1608 14.1899 47.9319 15.1741 48.8828 15.1741C49.2797 15.1741 49.6439 15.0031 49.9328 14.7161V19.4937H44.5841C44.9096 19.7929 45.1058 20.1829 45.1058 20.6082C45.1058 21.5597 44.123 22.3326 42.9113 22.3326Z" fill="#FBC343"/>
<path d="M30.9374 16.701C29.7257 16.701 28.7429 17.473 28.7429 18.4262C28.7429 18.8296 28.9193 19.2003 29.2154 19.4937H23.0469C24.0977 16.5302 25.796 13.8386 28.018 11.615C30.24 9.3914 32.9298 7.69186 35.8913 6.6402V11.2211C35.6036 10.9437 35.2445 10.7798 34.856 10.7798C33.9047 10.7798 33.134 11.7633 33.134 12.9757C33.134 14.1882 33.906 15.1725 34.856 15.1725C35.2445 15.1725 35.6036 15.0086 35.8913 14.7312V19.4937H32.6603C32.9568 19.1995 33.1328 18.8296 33.1328 18.4262C33.1328 17.473 32.1504 16.701 30.9374 16.701Z" fill="#FBD682"/>
<path d="M56.6272 16.701C55.4147 16.701 54.4315 17.473 54.4315 18.4262C54.4315 18.8296 54.6079 19.2003 54.904 19.4937H49.9282V14.7161C49.6372 15.0031 49.273 15.1741 48.8782 15.1741C47.9261 15.1741 47.1562 14.1907 47.1562 12.9774C47.1562 11.7641 47.9274 10.7815 48.8782 10.7815C49.2751 10.7815 49.6393 10.9526 49.9282 11.2396V6.6402C52.8898 7.69182 55.5795 9.39129 57.8015 11.6148C60.0235 13.8383 61.7218 16.5298 62.7727 19.4932H58.3492C58.6453 19.199 58.8217 18.8292 58.8217 18.4258C58.8217 17.473 57.8389 16.701 56.6272 16.701Z" fill="#C2D4F6"/>
<path d="M56.6287 30.7577C55.4161 30.7577 54.4329 31.5289 54.4329 32.4808C54.4329 32.8821 54.6085 33.252 54.9025 33.5449H49.9297V28.1533C50.2354 28.5029 50.6387 28.7164 51.0826 28.7164C52.0339 28.7164 52.8046 27.733 52.8046 26.5205C52.8046 25.3081 52.0331 24.3234 51.0826 24.3234C50.6387 24.3234 50.2354 24.5369 49.9297 24.8865V19.4937H54.9054C54.6114 19.1995 54.4329 18.8296 54.4329 18.4262C54.4329 17.473 55.4161 16.701 56.6287 16.701C57.8412 16.701 58.8232 17.473 58.8232 18.4262C58.8232 18.8296 58.6468 19.2003 58.3507 19.4937H62.7741C64.3727 24.0413 64.3727 28.9985 62.7741 33.5461H58.3536C58.6476 33.252 58.8232 32.8834 58.8232 32.482C58.8232 31.5289 57.8404 30.7577 56.6287 30.7577Z" fill="#C2D4F6"/>
<path d="M42.9113 22.3326C41.6987 22.3326 40.7159 21.5601 40.7159 20.6095C40.7159 20.1842 40.9121 19.7941 41.2376 19.4949H35.8901V14.7329C35.6024 15.0102 35.2433 15.1741 34.8548 15.1741C33.9035 15.1741 33.1328 14.1907 33.1328 12.9774C33.1328 11.7641 33.9048 10.7815 34.8548 10.7815C35.2433 10.7815 35.6024 10.9454 35.8901 11.2228V6.6402C40.4348 5.04205 45.3881 5.04205 49.9328 6.6402V11.2396C49.6418 10.9526 49.2776 10.7815 48.8828 10.7815C47.9307 10.7815 47.1608 11.7649 47.1608 12.9774C47.1608 14.1899 47.9319 15.1741 48.8828 15.1741C49.2797 15.1741 49.6439 15.0031 49.9328 14.7161V19.4937H44.5841C44.9096 19.7929 45.1058 20.1829 45.1058 20.6082C45.1058 21.5597 44.123 22.3326 42.9113 22.3326Z" fill="#C2D4F6"/>
<path d="M30.9374 16.701C29.7257 16.701 28.7429 17.473 28.7429 18.4262C28.7429 18.8296 28.9193 19.2003 29.2154 19.4937H23.0469C24.0977 16.5302 25.796 13.8386 28.018 11.615C30.24 9.3914 32.9298 7.69186 35.8913 6.6402V11.2211C35.6036 10.9437 35.2445 10.7798 34.856 10.7798C33.9047 10.7798 33.134 11.7633 33.134 12.9757C33.134 14.1882 33.906 15.1725 34.856 15.1725C35.2445 15.1725 35.6036 15.0086 35.8913 14.7312V19.4937H32.6603C32.9568 19.1995 33.1328 18.8296 33.1328 18.4262C33.1328 17.473 32.1504 16.701 30.9374 16.701Z" fill="#C2D4F6"/>
<path d="M62.7795 19.5987H58.1003L58.2817 19.4188C58.5707 19.1331 58.7231 18.7884 58.7231 18.4262C58.7231 17.5327 57.7857 16.806 56.6336 16.806C55.4816 16.806 54.5429 17.5327 54.5429 18.4262C54.5429 18.7897 54.6957 19.1331 54.9843 19.4188L55.1661 19.5987H49.8296V14.9468C49.5599 15.1604 49.2265 15.2774 48.8825 15.2792C47.8745 15.2792 47.0547 14.2466 47.0547 12.9774C47.0547 11.7082 47.8745 10.6748 48.8825 10.6748C49.2265 10.6765 49.5599 10.7936 49.8296 11.0072V6.6402H50.0396V11.4901L49.8607 11.314C49.5772 11.0341 49.2387 10.8862 48.8825 10.8862C47.9904 10.8862 47.2647 11.8242 47.2647 12.977C47.2647 14.1298 47.9904 15.0687 48.8825 15.0687C49.2387 15.0687 49.5772 14.9207 49.8607 14.6408L50.0396 14.4647V19.3886H54.6768C54.458 19.1152 54.3369 18.7764 54.3329 18.4262C54.3329 17.4175 55.3652 16.5959 56.6336 16.5959C57.902 16.5959 58.9331 17.4167 58.9331 18.4262C58.9293 18.7765 58.8082 19.1153 58.5891 19.3886H62.7795V19.5987Z" fill="#FDF6E6"/>
<path d="M50.0396 46.4001H49.8296V42.5248C49.5598 42.7382 49.2265 42.8552 48.8825 42.8572C47.8745 42.8572 47.0547 41.825 47.0547 40.5563C47.0547 39.2875 47.8745 38.2544 48.8825 38.2544C49.2264 38.2563 49.5598 38.3731 49.8296 38.5865V33.4411H54.6747C54.4573 33.1684 54.3369 32.8309 54.3329 32.4821C54.3329 31.4734 55.3652 30.6526 56.6336 30.6526C57.902 30.6526 58.9331 31.4734 58.9331 32.4821C58.9291 32.8309 58.8087 33.1684 58.5912 33.4411H62.7803V33.6513H58.1045L58.2846 33.4718C58.5715 33.1856 58.7231 32.8414 58.7231 32.4821C58.7231 31.589 57.7857 30.8628 56.6336 30.8628C55.4816 30.8628 54.5429 31.589 54.5429 32.4821C54.5429 32.8435 54.6949 33.1856 54.9818 33.4718L55.1615 33.6513H50.0375V39.0685L49.8586 38.8924C49.5751 38.6125 49.2366 38.4646 48.8804 38.4646C47.9883 38.4646 47.2626 39.403 47.2626 40.5563C47.2626 41.7095 47.9883 42.6471 48.8804 42.6471C49.2366 42.6471 49.5751 42.4991 49.8586 42.2193L50.0375 42.0432L50.0396 46.4001Z" fill="#FDF6E6"/>
<path d="M35.992 19.4937H35.782V14.9615C35.5151 15.1667 35.1883 15.2788 34.8517 15.2805C33.8437 15.2805 33.0234 14.2479 33.0234 12.9787C33.0234 11.7095 33.8437 10.6748 34.8517 10.6748C35.1885 10.6767 35.5154 10.7894 35.782 10.9954V6.6402H35.992V11.4699L35.8139 11.2984C35.5346 11.0291 35.202 10.8866 34.8517 10.8866C33.9596 10.8866 33.2334 11.8246 33.2334 12.9774C33.2334 14.1302 33.9596 15.0691 34.8517 15.0691C35.202 15.0691 35.5346 14.9266 35.8139 14.6572L35.992 14.4857V19.4937Z" fill="#FDF6E6"/>
<path d="M52.2634 57H33.5625V59.9583H52.2634V57Z" fill="#6F96E4"/>
<path d="M52.154 56.7853V59.5334H33.6631V56.7853H52.154ZM52.364 56.5751H33.4531V59.7435H52.364V56.5751Z" fill="white"/>
<path d="M39.1596 36.3242H34.9062V36.009H38.8446V31.6928H39.1596V36.3242Z" fill="#FDF6E6"/>
<path d="M26.9565 63.4671C24.0492 62.2728 21.4448 60.4445 19.3331 58.1154C17.2215 55.7863 15.6557 53.0151 14.75 50.0038L20.9093 50.3035C20.63 49.9967 20.4725 49.6184 20.4922 49.2179C20.5384 48.266 21.5574 47.5436 22.7678 47.6024C23.9782 47.6613 24.9232 48.4791 24.877 49.431C24.8577 49.8319 24.6645 50.1929 24.3567 50.4712L27.5806 50.6283L27.3252 55.8762C27.0514 55.5854 26.7007 55.4043 26.3126 55.3853C25.3626 55.3391 24.544 56.2839 24.4852 57.4959C24.4264 58.708 25.1492 59.7267 26.0997 59.7729C26.4877 59.7918 26.8557 59.6469 27.1551 59.3825L26.9565 63.4671Z" fill="#C2D4F6"/>
<path d="M31.8097 33.2208C30.5972 33.2208 29.6143 33.992 29.6143 34.9439C29.6143 35.3453 29.7895 35.7151 30.0835 36.0081H24.7886V30.7379C24.5009 31.0153 24.1417 31.1792 23.7532 31.1792C22.802 31.1792 22.0312 30.1958 22.0312 28.982C22.0312 27.7683 22.8032 26.7866 23.7532 26.7866C24.1417 26.7866 24.5009 26.9505 24.7886 27.2278V21.9564H30.136C29.8105 22.2561 29.6143 22.6457 29.6143 23.0714C29.6143 24.0233 30.5972 24.7945 31.8097 24.7945C33.0222 24.7945 34.0042 24.0225 34.0042 23.0714C34.0042 22.6457 33.8081 22.2561 33.4826 21.9564H38.8312V27.3497C39.1366 26.9996 39.5398 26.7866 39.9842 26.7866C40.9355 26.7866 41.7062 27.77 41.7062 28.9833C41.7062 30.1966 40.9346 31.1792 39.9842 31.1792C39.5398 31.1792 39.1366 30.9657 38.8312 30.616V36.0089H33.5351C33.8291 35.7147 34.0042 35.3461 34.0042 34.9448C34.0042 33.992 33.0214 33.2208 31.8097 33.2208Z" fill="#C2D4F6"/>
<path d="M13 64L79 64" stroke="#6F96E4" stroke-miterlimit="10"/>
</g>
<defs>
<clipPath id="clip0_6250_14685">
<rect width="84" height="64" fill="white"/>
</clipPath>
</defs>
</svg>
