<svg width="77" height="84" viewBox="0 0 77 84" fill="none" xmlns="http://www.w3.org/2000/svg">
<path d="M62.9682 75.1399C55.1068 81.1993 44.3966 82.5819 34.3563 81.6632C24.372 80.691 15.0576 77.4175 9.32395 70.9929C3.59198 64.513 1.38633 54.8804 1.36759 44.9284C1.29447 34.9748 3.35217 24.7553 9.55052 16.1566C15.7489 7.5579 26.0878 0.579989 35.2462 1.85839C44.4046 3.1368 52.2737 12.6682 59.7231 21.689C67.1181 30.7081 74.0936 39.2167 75.0469 48.8659C75.9476 58.4581 70.8823 69.1374 62.9682 75.1399Z" fill="#F2F6FF"/>
<path d="M55.7401 43.1997C55.909 44.4499 54.7376 49.7689 54.2505 51.3486C53.8122 52.7794 53.0707 54.099 52.0767 55.2175C51.0996 56.3579 50.4492 57.3491 49.3932 58.4106C48.2703 59.5437 47.5637 61.0234 47.3884 62.609C47.3095 63.3749 47.5404 64.2084 47.1068 64.8448C46.859 65.2164 46.6281 65.7796 45.6201 65.7796C43.9137 65.7796 40.3545 66.1091 38.4764 66.0893C36.0435 66.1626 31.7184 65.4839 30.5921 65.4755C29.722 65.4755 29.432 64.1943 29.2321 63.3439C29.0321 62.4936 28.9702 61.6094 28.5816 60.8322C28.193 60.0551 27.506 59.4469 26.8921 58.8274C23.7581 55.73 21.7477 51.6612 20.4158 47.46C19.9427 45.9592 20.2637 39.8855 21.6435 37.4329C22.6023 35.6754 23.7002 33.9975 24.9267 32.4151C26.2445 30.7454 28.0776 29.6275 29.9473 28.6053C31.7747 27.6057 35.1762 26.8201 37.2684 26.5892C40.8444 26.1894 44.0573 26.4822 48.1796 29.4501C50.7617 31.3085 52.8736 33.3443 54.1379 36.9936C54.8642 39.0079 55.4006 41.0856 55.7401 43.1997V43.1997Z" fill="#CDDBF8"/>
<path d="M53.7373 38.0689C53.5784 37.5419 53.4058 36.9982 53.2195 36.446C51.9894 32.8023 49.9321 30.7871 47.4226 28.9372C43.412 25.983 40.2999 25.6916 36.807 26.0896C34.7852 26.3194 31.4759 27.1014 29.6979 28.0964C27.8789 29.1138 26.0954 30.2265 24.8133 31.8886C23.6139 33.4603 22.5393 35.1277 21.5999 36.8748C20.2575 39.3161 19.9562 45.3618 20.4054 46.8557C21.6985 51.0375 23.6545 55.0876 26.7064 58.1708C27.3145 58.7874 27.9775 59.3788 28.3501 60.1664C28.7226 60.954 28.7939 61.8284 28.9829 62.6665C29.1719 63.5045 29.4596 64.7826 30.3061 64.7882C30.654 64.7882 31.3033 64.8583 32.106 64.948C32.2046 62.972 32.0512 60.4635 30.7581 58.9499C23.6353 50.5863 22.1889 39.3301 28.6158 33.9515C35.5194 28.1777 46.2529 28.1328 53.7373 38.0689Z" fill="white"/>
<path d="M39.8854 25.9492C35.6414 25.9046 31.2174 27.0655 27.6742 29.3928C21.5278 33.4196 17.7763 42.2294 20.357 49.2811C21.2875 51.9263 22.5912 54.4273 24.2295 56.7096C25.011 57.706 25.8472 58.659 26.7342 59.5644C28.0513 60.9848 28.2455 62.2991 28.7802 64.0153C28.9137 64.5419 29.1712 65.0297 29.5316 65.4385C28.9012 66.0357 28.5663 66.9091 29.1179 67.7658C29.1275 67.7785 29.1379 67.7906 29.1489 67.8021C27.9894 69.2811 28.5157 70.1741 29.7849 70.7127C27.8768 73.4474 31.7549 74.0781 35.5458 74.12C35.5779 74.7038 35.7053 75.2787 35.9229 75.8222C36.2747 76.531 37.2428 76.5896 37.9407 76.5784C38.754 76.5784 39.9107 76.4947 40.6115 76.0678C41.3122 75.6408 41.4304 74.6474 41.4811 73.8576C43.2766 73.7795 46.4821 74.0362 47.8273 72.6298C48.4887 71.9405 48.2945 71.1592 47.7541 70.5815C48.7729 70.0429 49.1359 69.2058 48.1678 67.9193C48.6125 67.2608 48.4493 66.4124 47.605 65.6032C47.7557 65.4338 47.8843 65.2463 47.9877 65.045C48.4887 64.0488 48.2129 63.0386 48.4324 61.9754C48.8039 60.1755 50.09 59.023 51.227 57.6863C52.6341 56.0287 54.1172 54.3544 54.9137 52.3061C57.621 45.3297 57.03 36.7404 51.4465 31.2541C48.362 28.2235 44.2926 25.9911 39.8854 25.9492ZM31.496 66.192C33.8656 66.471 36.2634 66.7696 38.6527 66.7501C40.7634 66.7501 42.8742 66.5882 44.9905 66.471C45.531 66.4588 46.0684 66.3848 46.5918 66.2506C48.1819 67.7212 43.7438 68.0923 42.6518 68.123C41.3179 68.1593 39.9839 68.123 38.6499 68.0812C37.2034 68.0337 35.754 67.9891 34.3075 67.8942C33.632 67.8496 28.3975 67.0403 30.601 66.0385C30.895 66.112 31.1942 66.1633 31.496 66.192ZM35.5739 56.6343C35.4276 53.9581 35.4923 51.1564 34.8872 48.5416C36.0235 48.1807 37.1034 47.6641 38.0955 47.0068C39.0616 47.8242 40.1915 48.4291 41.4107 48.7816C39.9135 53.9414 40.2034 60.0862 40.5158 65.246C39.8657 65.246 39.2325 65.2181 38.6527 65.2209C37.7747 65.2209 36.9022 65.1818 36.0298 65.1148L35.5739 56.6343ZM37.3976 44.3558C36.8347 43.407 36.3563 41.7801 37.4313 40.915C38.7203 39.8769 39.4773 41.1132 39.6828 42.3103C39.8938 43.5465 39.3 44.6572 38.3066 45.5474C37.961 45.186 37.6562 44.7883 37.3976 44.3614V44.3558ZM43.4229 70.3611C41.8075 70.4308 40.1893 70.3778 38.5711 70.3611C37.1977 70.3611 35.8272 70.336 34.4538 70.269C33.4913 70.2215 28.8562 70.3471 30.072 68.5444C31.9547 69.4569 35.5486 69.1165 37.0204 69.1751C40.088 69.2895 43.4511 69.6327 46.4708 68.9267C46.7469 68.8606 47.0156 68.7671 47.2729 68.6477C48.1622 70.1518 44.1012 70.3164 43.4229 70.3611ZM39.7081 75.2055C39.1409 75.3759 38.5502 75.4569 37.9576 75.4455C37.4989 75.4455 37.1386 75.4929 36.9416 75.1329C36.8101 74.813 36.734 74.4734 36.7165 74.1283C38.1236 74.106 39.4435 74.0167 40.33 73.9525C40.2794 74.4492 40.164 75.0157 39.6996 75.1915L39.7081 75.2055ZM43.8141 72.5796C42.5027 72.6828 41.18 72.7442 39.8741 72.8112C38.6049 72.8782 37.3413 72.9423 36.0636 72.9647C35.6414 72.9647 29.5457 73.0233 30.8712 71.215C30.9014 71.1747 30.9261 71.1306 30.9444 71.0838C33.5504 71.6866 37.4764 71.4968 38.5824 71.508C39.4773 71.508 43.7916 71.748 46.5102 71.0587C48.2072 71.988 44.3151 72.5265 43.8057 72.5656L43.8141 72.5796ZM54.0722 49.7109C53.5094 51.9433 52.5806 53.5702 51.1454 55.3534C49.9521 56.8352 48.3817 58.197 47.5374 59.9188C46.5975 61.8387 47.1772 64.3055 44.6978 64.9418C43.7073 65.1645 42.6936 65.2694 41.6781 65.2543C41.4909 62.2238 41.4909 59.1848 41.6781 56.1543C41.8301 53.9023 41.9229 51.3127 42.5393 48.9909C42.8275 49.0297 43.118 49.0493 43.4089 49.0495C45.7475 49.0216 49.7579 47.2524 48.5055 44.1521C48.1059 43.1587 46.8367 42.9577 45.8798 43.0805C43.9295 43.3345 42.7391 45.2153 42.0693 46.8673C41.9651 47.124 41.8723 47.3891 41.7878 47.6542C41.4903 47.577 41.1995 47.4762 40.9182 47.3529C40.2639 47.0595 39.6501 46.6844 39.0918 46.2366C41.2334 44.3474 42.1199 41.3252 39.3253 39.3886C37.2906 37.9766 35.3853 41.2471 35.6668 43.0163C35.8978 44.2417 36.4847 45.3736 37.3553 46.2729C36.5062 46.7973 35.5821 47.1915 34.6142 47.4422C33.8544 45.0618 32.253 42.1764 29.3515 43.2173C27.5672 43.8563 27.6263 46.125 28.6845 47.4031C29.9172 48.91 31.8309 49.1667 33.7502 48.7984C34.2371 51.0308 34.2456 53.3721 34.3694 55.652C34.5382 58.7663 34.7062 61.8805 34.8731 64.9948C34.5411 64.9641 34.2118 64.9306 33.8797 64.8944C33.2211 64.8274 32.3966 64.8469 31.7521 64.6683C30.4069 64.2972 30.283 63.4851 29.9791 62.2015C29.1348 58.7077 25.7858 56.598 24.0156 53.52C22.2454 50.442 20.979 47.3808 21.2013 43.8256C21.4462 39.8686 22.8364 36.8213 25.2511 33.6763C30.359 27.0208 41.2109 25.5837 47.9483 30.3276C51.6463 32.9675 53.4418 36.3692 54.5703 40.6862C55.3977 43.8507 54.8433 46.5771 54.0722 49.7109ZM42.8854 47.8608C43.0316 47.4568 43.2037 47.0626 43.4004 46.6803C44.1096 45.3046 44.4192 44.9307 46.0205 44.8386C47.2588 44.7688 47.9371 44.7576 47.256 45.9994C46.4145 47.5203 44.5852 48.0031 42.8854 47.8496V47.8608ZM33.4407 47.6794C32.6092 47.8145 31.758 47.7668 30.9472 47.5398C30.0326 47.2412 28.6817 46.1753 29.1292 45.0283C30.1592 42.3912 32.8215 45.9464 33.1874 46.9064C33.2915 47.1492 33.3619 47.4087 33.4407 47.6682V47.6794Z" fill="#6F96E4"/>
<path d="M63.1079 30.1114C61.157 30.9878 59.1606 31.8023 57.411 33.0507C56.807 33.4819 57.3883 34.4879 58.0008 34.0511C59.7476 32.8027 61.7468 31.9882 63.6978 31.1118C64.3755 30.8046 63.7885 29.8042 63.1079 30.1114Z" fill="#6F96E4"/>
<path d="M49.8453 25.0711C51.0718 23.457 52.0108 21.7085 52.9841 19.9357C53.327 19.3142 52.3906 18.7547 52.0477 19.3788C51.1246 21.0628 50.2436 22.763 49.0777 24.2883C48.6531 24.8425 49.4154 25.6334 49.8453 25.0711Z" fill="#6F96E4"/>
<path d="M38.4822 21.9434C38.63 19.826 38.6953 17.7078 38.6783 15.5885C38.6783 14.8063 37.5047 14.8033 37.5076 15.5885C37.5189 17.7117 37.4545 19.831 37.3143 21.9463C37.2603 22.7226 38.4197 22.7196 38.4822 21.9434Z" fill="#6F96E4"/>
<path d="M26.0915 25.0057C26.4566 25.611 27.3335 25.0416 26.9733 24.4335C25.8903 22.6285 24.6731 20.8401 23.9801 18.8057C23.7491 18.1285 22.7604 18.4215 22.9865 19.1097C23.7242 21.2575 24.9513 23.1122 26.0915 25.0057Z" fill="#6F96E4"/>
<path d="M18.582 32.4086C16.7749 31.1826 14.8055 30.1756 12.7219 29.4121C12.0033 29.1419 11.6907 30.2227 12.4006 30.4929C14.3839 31.2284 16.2578 32.1945 17.9773 33.3678C18.5995 33.7947 19.2013 32.8301 18.582 32.4086Z" fill="#6F96E4"/>
</svg>
