<svg width="22" height="23" viewBox="0 0 22 23" fill="none" xmlns="http://www.w3.org/2000/svg">
<path d="M11.1295 7.98594C9.20603 7.98594 7.63636 9.56533 7.63636 11.5007C7.63636 13.436 9.20603 15.0154 11.1295 15.0154C13.0529 15.0154 14.6226 13.436 14.6226 11.5007C14.6226 9.56533 13.0529 7.98594 11.1295 7.98594ZM21.6062 11.5007C21.6062 10.0452 21.6193 8.60293 21.538 7.1501C21.4568 5.4626 21.0742 3.96494 19.8478 2.73096C18.6188 1.49434 17.133 1.11201 15.4559 1.03028C14.0094 0.948538 12.576 0.961722 11.1321 0.961722C9.68558 0.961722 8.25217 0.948538 6.80829 1.03028C5.13118 1.11201 3.64274 1.49698 2.41635 2.73096C1.18734 3.96758 0.807374 5.4626 0.726139 7.1501C0.644904 8.60557 0.658006 10.0479 0.658006 11.5007C0.658006 12.9535 0.644904 14.3984 0.726139 15.8513C0.807374 17.5388 1.18996 19.0364 2.41635 20.2704C3.64536 21.507 5.13118 21.8894 6.80829 21.9711C8.25479 22.0528 9.6882 22.0396 11.1321 22.0396C12.5786 22.0396 14.012 22.0528 15.4559 21.9711C17.133 21.8894 18.6214 21.5044 19.8478 20.2704C21.0768 19.0338 21.4568 17.5388 21.538 15.8513C21.6219 14.3984 21.6062 12.9562 21.6062 11.5007ZM11.1295 16.9086C8.15521 16.9086 5.75485 14.4934 5.75485 11.5007C5.75485 8.50801 8.15521 6.09278 11.1295 6.09278C14.1037 6.09278 16.5041 8.50801 16.5041 11.5007C16.5041 14.4934 14.1037 16.9086 11.1295 16.9086ZM16.7242 7.13428C16.0298 7.13428 15.469 6.57002 15.469 5.87129C15.469 5.17256 16.0298 4.6083 16.7242 4.6083C17.4186 4.6083 17.9794 5.17256 17.9794 5.87129C17.9796 6.03721 17.9473 6.20154 17.8843 6.35486C17.8213 6.50819 17.7288 6.6475 17.6122 6.76482C17.4956 6.88214 17.3572 6.97517 17.2048 7.03857C17.0524 7.10196 16.8891 7.13449 16.7242 7.13428Z" fill="#1D66FF"/>
</svg>
