<svg width="24" height="23" viewBox="0 0 24 23" fill="none" xmlns="http://www.w3.org/2000/svg">
<path d="M5.59997 22.458V7.30564H0.594629V22.458H5.59997ZM3.09794 5.23559C4.84339 5.23559 5.92985 4.07206 5.92985 2.61804C5.89733 1.13123 4.84346 0 3.13107 0C1.41894 0 0.299316 1.13125 0.299316 2.61804C0.299316 4.07213 1.38551 5.23559 3.06527 5.23559H3.09779H3.09794ZM8.3704 22.458H13.3757V13.9962C13.3757 13.5433 13.4083 13.0909 13.5404 12.7672C13.9023 11.8624 14.7259 10.9253 16.1085 10.9253C17.9198 10.9253 18.6444 12.3148 18.6444 14.3517V22.4579H23.6494V13.7697C23.6494 9.11546 21.18 6.9499 17.8868 6.9499C15.1866 6.9499 14.0011 8.46856 13.3424 9.5029H13.3759V7.30532H8.37052C8.4362 8.72714 8.37052 22.4577 8.37052 22.4577L8.3704 22.458Z" fill="#1D66FF"/>
</svg>
