<svg width="119" height="22" viewBox="0 0 119 22" fill="none" xmlns="http://www.w3.org/2000/svg">
<path d="M12.475 17.9H5.925L4.875 21H0.4L6.75 3.45H11.7L18.05 21H13.525L12.475 17.9ZM11.375 14.6L9.2 8.175L7.05 14.6H11.375ZM24.2576 9.025C24.6576 8.375 25.2326 7.85 25.9826 7.45C26.7326 7.05 27.591 6.85 28.5576 6.85C29.7076 6.85 30.7493 7.14167 31.6826 7.725C32.616 8.30833 33.3493 9.14167 33.8826 10.225C34.4326 11.3083 34.7076 12.5667 34.7076 14C34.7076 15.4333 34.4326 16.7 33.8826 17.8C33.3493 18.8833 32.616 19.725 31.6826 20.325C30.7493 20.9083 29.7076 21.2 28.5576 21.2C27.5743 21.2 26.716 21.0083 25.9826 20.625C25.2493 20.225 24.6743 19.7 24.2576 19.05V21H19.9826V2.5H24.2576V9.025ZM30.3576 14C30.3576 12.9333 30.0576 12.1 29.4576 11.5C28.8743 10.8833 28.1493 10.575 27.2826 10.575C26.4326 10.575 25.7076 10.8833 25.1076 11.5C24.5243 12.1167 24.2326 12.9583 24.2326 14.025C24.2326 15.0917 24.5243 15.9333 25.1076 16.55C25.7076 17.1667 26.4326 17.475 27.2826 17.475C28.1326 17.475 28.8576 17.1667 29.4576 16.55C30.0576 15.9167 30.3576 15.0667 30.3576 14ZM41.2254 9.375C41.7254 8.60833 42.3504 8.00833 43.1004 7.575C43.8504 7.125 44.6837 6.9 45.6004 6.9V11.425H44.4254C43.3587 11.425 42.5587 11.6583 42.0254 12.125C41.4921 12.575 41.2254 13.375 41.2254 14.525V21H36.9504V7.05H41.2254V9.375ZM53.9938 21.2C52.6271 21.2 51.3938 20.9083 50.2938 20.325C49.2104 19.7417 48.3521 18.9083 47.7188 17.825C47.1021 16.7417 46.7938 15.475 46.7938 14.025C46.7938 12.5917 47.1104 11.3333 47.7437 10.25C48.3771 9.15 49.2438 8.30833 50.3438 7.725C51.4438 7.14167 52.6771 6.85 54.0438 6.85C55.4104 6.85 56.6438 7.14167 57.7438 7.725C58.8438 8.30833 59.7104 9.15 60.3438 10.25C60.9771 11.3333 61.2938 12.5917 61.2938 14.025C61.2938 15.4583 60.9688 16.725 60.3188 17.825C59.6854 18.9083 58.8104 19.7417 57.6938 20.325C56.5938 20.9083 55.3604 21.2 53.9938 21.2ZM53.9938 17.5C54.8104 17.5 55.5021 17.2 56.0688 16.6C56.6521 16 56.9438 15.1417 56.9438 14.025C56.9438 12.9083 56.6604 12.05 56.0938 11.45C55.5438 10.85 54.8604 10.55 54.0438 10.55C53.2104 10.55 52.5188 10.85 51.9688 11.45C51.4188 12.0333 51.1438 12.8917 51.1438 14.025C51.1438 15.1417 51.4104 16 51.9438 16.6C52.4938 17.2 53.1771 17.5 53.9938 17.5ZM62.7117 14C62.7117 12.5667 62.9784 11.3083 63.5117 10.225C64.0617 9.14167 64.8034 8.30833 65.7367 7.725C66.6701 7.14167 67.7117 6.85 68.8617 6.85C69.8451 6.85 70.7034 7.05 71.4367 7.45C72.1867 7.85 72.7617 8.375 73.1617 9.025V7.05H77.4367V21H73.1617V19.025C72.7451 19.675 72.1617 20.2 71.4117 20.6C70.6784 21 69.8201 21.2 68.8367 21.2C67.7034 21.2 66.6701 20.9083 65.7367 20.325C64.8034 19.725 64.0617 18.8833 63.5117 17.8C62.9784 16.7 62.7117 15.4333 62.7117 14ZM73.1617 14.025C73.1617 12.9583 72.8617 12.1167 72.2617 11.5C71.6784 10.8833 70.9617 10.575 70.1117 10.575C69.2617 10.575 68.5367 10.8833 67.9367 11.5C67.3534 12.1 67.0617 12.9333 67.0617 14C67.0617 15.0667 67.3534 15.9167 67.9367 16.55C68.5367 17.1667 69.2617 17.475 70.1117 17.475C70.9617 17.475 71.6784 17.1667 72.2617 16.55C72.8617 15.9333 73.1617 15.0917 73.1617 14.025ZM79.6795 14C79.6795 12.5667 79.9462 11.3083 80.4795 10.225C81.0295 9.14167 81.7712 8.30833 82.7045 7.725C83.6378 7.14167 84.6795 6.85 85.8295 6.85C86.7462 6.85 87.5795 7.04167 88.3295 7.425C89.0962 7.80833 89.6962 8.325 90.1295 8.975V2.5H94.4045V21H90.1295V19C89.7295 19.6667 89.1545 20.2 88.4045 20.6C87.6712 21 86.8128 21.2 85.8295 21.2C84.6795 21.2 83.6378 20.9083 82.7045 20.325C81.7712 19.725 81.0295 18.8833 80.4795 17.8C79.9462 16.7 79.6795 15.4333 79.6795 14ZM90.1295 14.025C90.1295 12.9583 89.8295 12.1167 89.2295 11.5C88.6462 10.8833 87.9295 10.575 87.0795 10.575C86.2295 10.575 85.5045 10.8833 84.9045 11.5C84.3212 12.1 84.0295 12.9333 84.0295 14C84.0295 15.0667 84.3212 15.9167 84.9045 16.55C85.5045 17.1667 86.2295 17.475 87.0795 17.475C87.9295 17.475 88.6462 17.1667 89.2295 16.55C89.8295 15.9333 90.1295 15.0917 90.1295 14.025ZM99.6473 5.6C98.8973 5.6 98.2806 5.38333 97.7973 4.95C97.3306 4.5 97.0973 3.95 97.0973 3.3C97.0973 2.63333 97.3306 2.08333 97.7973 1.65C98.2806 1.2 98.8973 0.974999 99.6473 0.974999C100.381 0.974999 100.981 1.2 101.447 1.65C101.931 2.08333 102.172 2.63333 102.172 3.3C102.172 3.95 101.931 4.5 101.447 4.95C100.981 5.38333 100.381 5.6 99.6473 5.6ZM101.772 7.05V21H97.4973V7.05H101.772ZM113.37 6.9C115.004 6.9 116.304 7.43333 117.27 8.5C118.254 9.55 118.745 11 118.745 12.85V21H114.495V13.425C114.495 12.4917 114.254 11.7667 113.77 11.25C113.287 10.7333 112.637 10.475 111.82 10.475C111.004 10.475 110.354 10.7333 109.87 11.25C109.387 11.7667 109.145 12.4917 109.145 13.425V21H104.87V7.05H109.145V8.9C109.579 8.28333 110.162 7.8 110.895 7.45C111.629 7.08333 112.454 6.9 113.37 6.9Z" fill="white"/>
</svg>
