<svg width="16" height="10" viewBox="0 0 16 10" fill="none" xmlns="http://www.w3.org/2000/svg">
<path d="M1.31621 1.06675L7.52773 4.40884C7.73644 4.52082 8.00643 4.57391 8.27808 4.57391C8.54973 4.57391 8.81973 4.52082 9.02843 4.40884L15.24 1.06675C15.6449 0.848587 16.0276 0 15.2847 0H1.27232C0.529417 0 0.912047 0.848587 1.31621 1.06675ZM15.428 2.89416L9.02843 6.23459C8.74684 6.38224 8.54973 6.39966 8.27808 6.39966C8.00643 6.39966 7.80932 6.38224 7.52773 6.23459C7.24614 6.08693 1.62016 3.13305 1.16051 2.89333C0.837509 2.72411 0.840822 2.92236 0.840822 3.07499V9.12459C0.840822 9.47299 1.30958 9.9541 1.66902 9.9541H14.9203C15.2797 9.9541 15.7485 9.47299 15.7485 9.12459V3.07582C15.7485 2.92319 15.7518 2.72494 15.428 2.89416Z" fill="#1D66FF"/>
</svg>
