<svg width="25" height="25" viewBox="0 0 25 25" fill="none" xmlns="http://www.w3.org/2000/svg">
<path fill-rule="evenodd" clip-rule="evenodd" d="M9.03403 7.73064C10.0038 7.62534 11.1496 7.58346 12.5 7.58346C13.8504 7.58346 14.9962 7.62534 15.966 7.73064C15.8504 6.80968 15.4507 6.13337 14.9236 5.66481C14.2809 5.09349 13.4027 4.79175 12.5 4.79175C11.5973 4.79175 10.7191 5.09349 10.0764 5.66481C9.54926 6.13337 9.14959 6.80968 9.03403 7.73064ZM17.4925 7.98475C17.4198 6.51054 16.8232 5.34638 15.9201 4.54369C14.9691 3.69834 13.7223 3.29175 12.5 3.29175C11.2777 3.29175 10.0309 3.69834 9.07985 4.54369C8.17682 5.34638 7.58022 6.51054 7.5075 7.98475C4.72309 8.65709 4 10.3138 4 13.9585C4 19.2083 5.50025 20.3335 12.5 20.3335C19.4997 20.3335 21 19.2083 21 13.9585C21 10.3138 20.2769 8.65709 17.4925 7.98475ZM5.5 13.9585C5.5 16.5705 5.91023 17.4535 6.52509 17.9146C6.88198 18.1823 7.46187 18.4287 8.46548 18.596C9.46703 18.763 10.7751 18.8335 12.5 18.8335C14.2249 18.8335 15.533 18.763 16.5345 18.596C17.5381 18.4287 18.118 18.1823 18.4749 17.9146C19.0898 17.4535 19.5 16.5705 19.5 13.9585C19.5 11.3464 19.0898 10.4634 18.4749 10.0023C18.118 9.73461 17.5381 9.48817 16.5345 9.32088C15.533 9.15394 14.2249 9.08346 12.5 9.08346C10.7751 9.08346 9.46703 9.15394 8.46548 9.32088C7.46187 9.48817 6.88198 9.73461 6.52509 10.0023C5.91023 10.4634 5.5 11.3464 5.5 13.9585Z" fill="#2E536B"/>
<circle r="1.375" transform="matrix(-1 0 0 1 12.5 13.9584)" stroke="#2E536B" stroke-width="1.5"/>
</svg>
