<svg width="91" height="173" viewBox="0 0 91 173" fill="none" xmlns="http://www.w3.org/2000/svg">
<g clip-path="url(#clip0_1085_5115)">
<g style="mix-blend-mode:multiply">
<path d="M4.68555 44.4132V154.827C4.68555 156.195 5.22641 157.507 6.18917 158.475C7.15192 159.442 8.45769 159.985 9.81922 159.985H21.5132C21.7619 162.578 22.8832 165.008 24.692 166.874C26.5008 168.739 28.8888 169.929 31.4617 170.247L52.8556 172.913C53.3217 172.972 53.791 173.001 54.2606 173C56.5166 172.994 58.7204 172.318 60.5952 171.057C62.47 169.797 63.9322 168.007 64.7982 165.914C66.9393 164.508 68.549 162.42 69.3698 159.985H85.6733C86.6586 159.979 87.6384 159.839 88.586 159.567C94.3789 157.672 95.0004 153.052 95.0004 151.119V48.4854C94.8545 44.2232 92.2282 40.694 88.4617 39.7004C87.6067 39.4675 86.7304 39.322 85.8462 39.2661C85.722 39.2661 85.5923 39.2661 85.468 39.2661H80.8369L82.7498 23.7377C83.1181 20.7237 82.2815 17.6861 80.4235 15.291C78.5656 12.896 75.838 11.3392 72.8391 10.9621L61.826 9.58845C60.7326 8.00656 59.2581 6.72875 57.5401 5.87426C55.8222 5.01976 53.9168 4.61644 52.0018 4.70191L30.4674 5.6575C27.4477 5.79422 24.6052 7.12839 22.563 9.36752C20.5209 11.6066 19.4457 14.568 19.5732 17.6024L20.5351 39.2552H9.81922C8.45769 39.2552 7.15192 39.7986 6.18917 40.766C5.22641 41.7333 4.68555 43.0452 4.68555 44.4132Z" fill="white"/>
<path d="M0 39.7059V150.126C0 151.494 0.540868 152.806 1.50362 153.773C2.46637 154.74 3.77214 155.284 5.13367 155.284H16.8276C17.0804 157.874 18.2032 160.301 20.0113 162.165C21.8194 164.029 24.2052 165.219 26.7762 165.54L48.1701 168.206C50.6488 168.514 53.1599 167.997 55.3175 166.733C57.4751 165.468 59.1597 163.527 60.1126 161.207C62.2522 159.8 63.8631 157.715 64.6897 155.284H80.9878C81.973 155.272 82.9524 155.13 83.9005 154.86C89.6934 152.965 90.3148 148.345 90.3148 146.417V43.7997C90.1743 39.5376 87.5481 36.0084 83.7762 35.0202C82.9211 34.7873 82.0449 34.6418 81.1607 34.5859C81.0364 34.5859 80.9121 34.5859 80.7824 34.5859H76.1513L78.0697 19.0032C78.4333 15.991 77.5938 12.9568 75.7352 10.5653C73.8765 8.17373 71.1503 6.61981 68.1536 6.24392L57.1405 4.88655C56.047 3.30465 54.5725 2.02684 52.8546 1.17235C51.1367 0.31786 49.2313 -0.0854671 47.3163 3.87119e-06L25.7819 0.955595C22.7627 1.09372 19.921 2.42832 17.8791 4.66712C15.8373 6.90593 14.7616 9.86649 14.8877 12.9005L15.8279 34.5479H5.13367C3.77214 34.5479 2.46637 35.0913 1.50362 36.0586C0.540868 37.0259 0 38.3379 0 39.7059Z" fill="#606060"/>
</g>
<path d="M0 39.7059V150.126C0 151.494 0.540868 152.806 1.50362 153.773C2.46637 154.74 3.77214 155.284 5.13367 155.284H16.8276C17.0804 157.874 18.2032 160.301 20.0113 162.165C21.8194 164.029 24.2052 165.219 26.7762 165.54L48.1701 168.206C50.6488 168.514 53.1599 167.997 55.3175 166.733C57.4751 165.468 59.1597 163.527 60.1126 161.207C62.2522 159.8 63.8631 157.715 64.6897 155.284H80.9878C81.973 155.272 82.9524 155.13 83.9005 154.86C89.6934 152.965 90.3148 148.345 90.3148 146.417V43.7997C90.1743 39.5376 87.5481 36.0084 83.7762 35.0202C82.9211 34.7873 82.0449 34.6418 81.1607 34.5859C81.0364 34.5859 80.9121 34.5859 80.7824 34.5859H76.1513L78.0697 19.0032C78.4333 15.991 77.5938 12.9568 75.7352 10.5653C73.8765 8.17373 71.1503 6.61981 68.1536 6.24392L57.1405 4.88655C56.047 3.30465 54.5725 2.02684 52.8546 1.17235C51.1367 0.31786 49.2313 -0.0854671 47.3163 3.87119e-06L25.7819 0.955595C22.7627 1.09372 19.921 2.42832 17.8791 4.66712C15.8373 6.90593 14.7616 9.86649 14.8877 12.9005L15.8279 34.5479H5.13367C3.77214 34.5479 2.46637 35.0913 1.50362 36.0586C0.540868 37.0259 0 38.3379 0 39.7059Z" fill="white"/>
<path d="M55.7951 157.613C55.5898 159.271 54.7381 160.779 53.427 161.806C52.1159 162.833 50.4526 163.295 48.8024 163.091L27.4085 160.425C26.5915 160.324 25.8024 160.062 25.0863 159.654C24.3702 159.246 23.7412 158.7 23.2353 158.047C22.7294 157.395 22.3564 156.648 22.1379 155.851C21.9193 155.053 21.8593 154.22 21.9614 153.4L39.1403 14.171C39.2406 13.3494 39.5011 12.5557 39.9069 11.8353C40.3127 11.115 40.8558 10.482 41.5053 9.97273C42.1547 9.46342 42.8977 9.08774 43.6918 8.86715C44.4858 8.64657 45.3153 8.58542 46.1329 8.68719L67.5485 11.3639C69.1901 11.5805 70.6798 12.4409 71.6922 13.7573C72.7047 15.0736 73.1577 16.739 72.9523 18.3897L55.7951 157.613Z" fill="#C5D3CF"/>
<path d="M48.5539 9.0021L46.1329 8.68719C45.3153 8.58542 44.4858 8.64657 43.6918 8.86715C42.8977 9.08774 42.1547 9.46342 41.5053 9.97273C40.8558 10.482 40.3127 11.115 39.9069 11.8353C39.5011 12.5557 39.2406 13.3494 39.1403 14.171L21.9614 153.4C21.8593 154.22 21.9193 155.053 22.1379 155.851C22.3564 156.648 22.7294 157.395 23.2353 158.047C23.7412 158.7 24.3702 159.246 25.0863 159.654C25.8024 160.062 26.5915 160.324 27.4085 160.425L29.8295 160.724L48.5539 9.0021Z" fill="#7D6BEA"/>
<path d="M63.8846 33.7769L64.8789 33.5271C64.7309 33.2505 64.5494 32.9933 64.3385 32.7615C64.2467 32.7615 61.3178 32.3815 59.956 32.2186L59.9236 32.1371C59.7182 31.5942 59.4913 30.997 59.2481 30.3834C59.2481 30.3291 59.2102 30.2694 59.1886 30.2205C59.0697 29.9165 58.9455 29.607 58.8266 29.2975C58.8266 29.2487 58.7887 29.1998 58.7671 29.1564C58.6537 28.8577 58.5294 28.5537 58.4051 28.2496C58.4072 28.228 58.4072 28.2061 58.4051 28.1845C57.9349 27.0117 57.4432 25.8118 56.9676 24.6662L58.3348 24.3675V24.4001C58.3618 24.4426 58.3925 24.4826 58.4267 24.5196C58.4423 24.5207 58.4579 24.5178 58.4721 24.5111C58.4863 24.5045 58.4986 24.4943 58.5077 24.4816C58.5077 24.4816 58.5077 24.4164 58.4753 24.3784C58.4753 24.3784 58.4753 24.3513 58.4753 24.3458C58.4753 24.3404 58.4753 24.3458 58.4753 24.3132L59.7885 24.0309C59.79 24.0417 59.79 24.0527 59.7885 24.0635C59.8168 24.105 59.8475 24.1449 59.8803 24.1829C59.8967 24.1836 59.9129 24.1805 59.9279 24.1739C59.9429 24.1673 59.9562 24.1574 59.9668 24.1449C59.9697 24.1361 59.9697 24.1266 59.9668 24.1178C59.9688 24.0834 59.9688 24.049 59.9668 24.0146C59.9668 24.0146 59.9668 24.0146 59.9668 23.9875L60.9989 23.7649L61.2799 23.6997V23.7269C61.3065 23.768 61.3373 23.8062 61.3718 23.8409C61.3884 23.8398 61.4046 23.8354 61.4194 23.828C61.4343 23.8205 61.4475 23.8101 61.4583 23.7974C61.4583 23.7649 61.4583 23.7269 61.4258 23.6889V23.6509L62.9011 23.3468L62.9876 23.4717H63.02C63.0359 23.4713 63.0515 23.4671 63.0656 23.4596C63.0797 23.452 63.0918 23.4413 63.101 23.4282V23.4011C63.0927 23.366 63.0819 23.3315 63.0686 23.2979V23.2436L64.425 22.9504C64.4198 22.8159 64.3682 22.6873 64.2791 22.5867H64.2412H64.1818H64.1494H64.0467L63.663 22.5107H63.6198L63.3928 22.4672H63.3118C62.231 22.2555 60.4639 21.9243 58.805 21.6094C58.7374 21.4497 58.6579 21.2954 58.5672 21.1479C58.4962 21.0201 58.4149 20.8984 58.324 20.7841H58.2862H58.2538H58.2051H58.1403C57.9504 20.8263 57.7681 20.8977 57.5999 20.9958L57.508 21.061C57.4506 21.104 57.3981 21.1531 57.3513 21.2076V21.2673L56.2165 21.0556H56.0814L55.46 20.9361L55.1519 20.2248C54.9304 19.6819 54.7413 19.2638 54.5845 18.9109C54.5716 18.875 54.5553 18.8405 54.5359 18.8077L54.4711 18.6503L54.4224 18.5471C54.4224 18.4983 54.3846 18.4603 54.3684 18.4222L54.336 18.3408C54.3035 18.2811 54.2819 18.2322 54.2603 18.1888C53.4551 16.4513 52.2879 15.284 51.6556 15.5772C51.0234 15.8704 51.1639 17.5264 51.9745 19.2638C51.9933 19.3148 52.0168 19.3638 52.0447 19.4104C52.0447 19.443 52.0447 19.4756 52.088 19.5136C52.1064 19.5431 52.1227 19.574 52.1366 19.6059C52.1366 19.6439 52.1798 19.6927 52.2014 19.7416C52.223 19.7905 52.2014 19.7905 52.2393 19.8231L52.5149 20.366L52.6391 20.6158C52.6363 20.6319 52.6363 20.6485 52.6391 20.6646L52.9256 21.2456L53.2822 21.9514C53.1957 22.1089 53.0985 22.2826 52.985 22.4944C52.7959 22.8256 52.5851 23.2111 52.3527 23.6291L52.3203 23.5748L52.1042 23.602H52.0717H52.0339L51.9258 23.6346C51.7502 23.6955 51.5858 23.7854 51.4395 23.9006L51.3638 23.9603C51.3638 23.9603 51.3638 23.9603 51.3638 23.9875C51.3927 24.1315 51.4324 24.2731 51.4827 24.411C51.5476 24.5902 51.6232 24.753 51.6881 24.8888C51.272 25.638 50.8343 26.409 50.4452 27.1149L50.3857 27.2235L50.229 27.5058C50.1804 27.5872 50.1426 27.6632 50.0993 27.7393L50.0399 27.8424L49.921 28.065L49.8724 28.1465C49.8237 28.2442 49.7697 28.3311 49.7211 28.4234C49.6292 28.5971 49.5373 28.76 49.4563 28.9066C49.4416 28.929 49.4289 28.9526 49.4184 28.9772C49.3752 29.0478 49.3374 29.1238 49.2996 29.1889C49.2239 29.3301 49.1537 29.455 49.105 29.5527L49.051 29.6559C49.0426 29.6753 49.0317 29.6936 49.0186 29.7102V29.7427C49.027 29.8633 49.0812 29.976 49.1699 30.0577L49.2023 30.0902L50.2831 29.2378V29.2867C50.3021 29.3192 50.3238 29.3501 50.3479 29.379C50.3787 29.3768 50.4076 29.3633 50.429 29.341C50.4227 29.293 50.4119 29.2457 50.3965 29.1998V29.1509L51.4773 28.3202C51.4755 28.3328 51.4755 28.3456 51.4773 28.3582L51.5422 28.4505C51.5577 28.4512 51.5732 28.4481 51.5873 28.4414C51.6014 28.4348 51.6137 28.4249 51.6232 28.4125C51.6232 28.3691 51.6232 28.3202 51.5908 28.2713C51.5887 28.2588 51.5887 28.2459 51.5908 28.2333L52.3149 27.6904L52.6554 27.4243C52.6564 27.4388 52.6564 27.4533 52.6554 27.4678C52.6726 27.4984 52.6925 27.5275 52.7148 27.5547H52.7472C52.7637 27.5568 52.7805 27.5544 52.7957 27.5477C52.8109 27.541 52.824 27.5303 52.8337 27.5167C52.8354 27.5077 52.8354 27.4985 52.8337 27.4895C52.8292 27.4412 52.8183 27.3937 52.8013 27.3483C52.7982 27.334 52.7982 27.3192 52.8013 27.3049L53.882 26.4742V26.5176C53.901 26.5485 53.9227 26.5776 53.9469 26.6045C53.9766 26.6148 54.009 26.6148 54.0387 26.6045C54.0449 26.5576 54.0449 26.5102 54.0387 26.4633V26.409L55.1195 25.562C55.7031 26.6859 56.3192 27.8696 56.9244 29.0098L56.9893 29.1238C57.1244 29.3844 57.2649 29.6396 57.4 29.8948L57.4702 30.0359L57.9079 30.8341C57.9512 30.9209 57.9998 31.0024 58.043 31.0838C58.1889 31.3499 58.324 31.6268 58.4645 31.8548C58.4828 31.8844 58.4991 31.9153 58.5132 31.9471L58.9184 32.6638L58.9563 32.7344C58.8914 32.843 58.8158 32.9516 58.7347 33.0819C58.7191 33.0977 58.7063 33.116 58.6969 33.1362L57.1784 35.4871C57.1784 35.5143 57.146 35.5469 57.1298 35.5686C57.1136 35.5903 57.0487 35.6989 57.0055 35.7532L56.9622 35.8292C56.8758 35.9595 56.8055 36.0735 56.7461 36.1713L56.6704 36.2907L56.6218 36.3776C56.6173 36.3917 56.6173 36.4069 56.6218 36.421C56.6391 36.661 56.6976 36.8961 56.7947 37.116C56.8325 37.23 56.865 37.3169 56.865 37.3169L57.6918 36.7088L60.2478 34.8465L60.3018 34.9333C60.3302 34.973 60.3555 35.0147 60.3775 35.0582L60.545 35.308C60.6338 35.293 60.7196 35.2637 60.799 35.2211C60.8783 35.1856 60.9528 35.14 61.0205 35.0854C61.0095 35.0244 60.9932 34.9644 60.9719 34.9062C60.9635 34.8728 60.9527 34.8402 60.9395 34.8085C60.9395 34.8085 60.9395 34.7487 60.9395 34.7216C60.9319 34.681 60.9211 34.641 60.9071 34.6021L63.9981 33.8203L63.8846 33.7769Z" fill="#7D6BEA"/>
<path d="M42.3576 12.2845L39.5156 35.374L41.087 35.5693L43.929 12.4798L42.3576 12.2845Z" fill="white"/>
<path d="M43.7709 20.3207L42.8486 27.7285L44.4197 27.926L45.342 20.5181L43.7709 20.3207Z" fill="white"/>
<path d="M42.7772 28.3094L41.8613 35.718L43.4326 35.9141L44.3484 28.5055L42.7772 28.3094Z" fill="white"/>
<path d="M44.7335 12.5334L43.8164 19.9419L45.3876 20.1382L46.3047 12.7298L44.7335 12.5334Z" fill="white"/>
<path d="M26.1605 156.527L25.377 156.435L28.2194 133.343L29.0084 133.446L26.1605 156.527Z" fill="white"/>
<path d="M28.4497 141.226L27.5352 148.635L28.3181 148.732L29.2327 141.323L28.4497 141.226Z" fill="white"/>
<path d="M27.4565 149.211L26.542 156.619L27.325 156.717L28.2395 149.308L27.4565 149.211Z" fill="white"/>
<path d="M29.4135 133.453L28.4951 140.861L29.278 140.959L30.1964 133.551L29.4135 133.453Z" fill="white"/>
<path d="M31.1703 109.464L28.3203 132.553L29.1086 132.651L31.9587 109.563L31.1703 109.464Z" fill="white"/>
<path d="M31.3768 117.358L30.4932 124.771L31.2765 124.865L32.1602 117.452L31.3768 117.358Z" fill="white"/>
<path d="M30.4153 125.353L29.4854 132.76L30.2681 132.859L31.1981 125.452L30.4153 125.353Z" fill="white"/>
<path d="M32.3588 109.571L31.4404 116.98L32.2233 117.078L33.1417 109.669L32.3588 109.571Z" fill="white"/>
<g style="mix-blend-mode:multiply">
<path d="M65.7601 12.6454L62.145 12.1947C65.1981 12.5802 67.3381 15.6207 66.922 18.9924L50.17 154.958C49.7539 158.33 46.9277 160.751 43.8799 160.387L47.4789 160.833C50.5375 161.218 53.3475 158.791 53.769 155.403L70.521 19.4376C70.9533 16.0714 68.8187 13.0308 65.7601 12.6454Z" fill="#DEDFE0"/>
</g>
<path d="M41.0007 113.233L35.46 158.248L36.9884 158.438L42.5292 113.423L41.0007 113.233Z" fill="#ADAFB2"/>
<path d="M41.4414 128.608L39.6582 143.053L41.192 143.244L42.9751 128.799L41.4414 128.608Z" fill="#ADAFB2"/>
<path d="M39.5184 144.177L37.7334 158.617L39.2671 158.808L41.0521 144.368L39.5184 144.177Z" fill="#ADAFB2"/>
<path d="M43.31 113.408L41.5293 127.854L43.0631 128.044L44.8438 113.598L43.31 113.408Z" fill="#ADAFB2"/>
<path d="M46.7413 66.6839L41.209 111.695L42.7375 111.884L48.2698 66.8736L46.7413 66.6839Z" fill="#ADAFB2"/>
<path d="M47.1775 82.0482L45.3975 96.4889L46.9312 96.6797L48.7113 82.239L47.1775 82.0482Z" fill="#ADAFB2"/>
<path d="M45.2645 97.6423L43.4795 112.082L45.0132 112.274L46.7982 97.8337L45.2645 97.6423Z" fill="#ADAFB2"/>
<path d="M49.058 66.857L47.2773 81.3031L48.8111 81.494L50.5918 67.0479L49.058 66.857Z" fill="#ADAFB2"/>
<path d="M60.1502 151.342C60.1865 152.168 60.0604 152.993 59.779 153.77C59.4977 154.547 59.0666 155.261 58.5106 155.871C57.9545 156.48 57.2843 156.974 56.5383 157.323C55.7922 157.672 54.985 157.87 54.1627 157.906L32.6283 158.851C31.8054 158.887 30.9834 158.76 30.2093 158.477C29.4352 158.194 28.7242 157.761 28.1169 157.202C27.5097 156.642 27.018 155.968 26.6702 155.218C26.3223 154.468 26.1251 153.656 26.0896 152.829L19.9941 12.6724C19.9586 11.8442 20.0861 11.0172 20.3694 10.2387C20.6527 9.46018 21.0862 8.74551 21.645 8.13567C22.2037 7.52583 22.8768 7.0328 23.6256 6.68488C24.3744 6.33695 25.1842 6.14095 26.0086 6.10813L47.5538 5.1634C49.2127 5.0957 50.8307 5.69142 52.0532 6.82005C53.2758 7.94868 54.0033 9.51819 54.0763 11.1847L60.1502 151.342Z" fill="#E3F2ED"/>
<path d="M28.4457 5.99963L26.0086 6.10822C25.1842 6.14104 24.3744 6.33703 23.6256 6.68496C22.8768 7.03289 22.2037 7.52592 21.645 8.13576C21.0862 8.7456 20.6527 9.46027 20.3694 10.2388C20.0861 11.0173 19.9586 11.8443 19.9941 12.6725L26.0896 152.829C26.1251 153.656 26.3223 154.468 26.6702 155.218C27.018 155.969 27.5097 156.643 28.1169 157.202C28.7242 157.761 29.4352 158.194 30.2093 158.477C30.9834 158.76 31.8054 158.887 32.6283 158.851L35.0655 158.742L28.4457 5.99963Z" fill="#7D6BEA"/>
<path d="M47.6563 27.8751L48.5966 27.4624C48.5966 27.4624 48.0562 26.8109 47.9536 26.7946C47.8509 26.7783 44.9112 26.9249 43.544 26.9901L43.4954 26.9141C43.1982 26.4037 42.8793 25.8607 42.5389 25.2852C42.5389 25.2309 42.4794 25.1821 42.4524 25.1332C42.2849 24.8509 42.112 24.5902 41.912 24.2862C41.8892 24.2414 41.8639 24.1979 41.8364 24.1559C41.6743 23.879 41.5013 23.6129 41.3284 23.3252L41.2906 23.26C40.6313 22.1741 39.945 21.0882 39.2912 20.0023L40.5881 19.4594L40.6908 19.5625C40.707 19.5611 40.7226 19.5553 40.7359 19.5457C40.7492 19.5362 40.7598 19.5232 40.7664 19.5082C40.7664 19.5082 40.7664 19.5082 40.7664 19.4811C40.7536 19.4452 40.7373 19.4106 40.7178 19.3779V19.3454L41.9661 18.8458V18.873L42.0741 18.9761C42.0724 18.9918 42.0737 19.0077 42.078 19.0229C42.0824 19.0381 42.0896 19.0522 42.0994 19.0646C42.1092 19.0769 42.1213 19.0872 42.1351 19.0949C42.1488 19.1025 42.1639 19.1074 42.1795 19.1092C42.1951 19.111 42.2109 19.1096 42.226 19.1053C42.2411 19.1009 42.2553 19.0936 42.2675 19.0838C42.2798 19.074 42.2901 19.0618 42.2977 19.048C42.3053 19.0342 42.3101 19.019 42.3119 19.0033C42.3143 18.9926 42.3143 18.9814 42.3119 18.9707L42.2687 18.873L43.2306 18.4603L43.5008 18.3518C43.5386 18.3843 43.571 18.4278 43.6034 18.4495C43.6192 18.4463 43.634 18.4398 43.6471 18.4305C43.6601 18.4211 43.671 18.4091 43.6791 18.3952C43.6628 18.3617 43.6483 18.3272 43.6359 18.292V18.254L44.8842 17.7545V17.7817L44.9868 17.8848H45.0139C45.0292 17.8826 45.0439 17.8771 45.057 17.8687C45.07 17.8602 45.0811 17.8491 45.0895 17.836L45.0409 17.7382C45.0427 17.722 45.0427 17.7056 45.0409 17.6894L46.327 17.1464C46.327 17.1464 46.273 16.8858 46.1216 16.8098H45.8352H45.4462H45.4029H45.1706H45.0733C43.9925 16.7772 42.1714 16.7392 40.4854 16.712C40.3928 16.5672 40.2899 16.4293 40.1774 16.2994C40.0835 16.1879 39.9824 16.0827 39.8748 15.9845H39.8369H39.8045H39.7613H39.7019C39.5219 16.0579 39.3542 16.1586 39.2047 16.2831L39.129 16.3591H39.0966C39.0487 16.4128 39.0036 16.469 38.9615 16.5274C38.9704 16.5483 38.9813 16.5683 38.9939 16.5872H37.8321H37.7078H37.0702L36.7459 15.9791C36.4433 15.5067 36.2055 15.0995 35.9732 14.7791C35.9497 14.7478 35.9281 14.7152 35.9083 14.6814L35.8111 14.5403C35.7932 14.5065 35.7734 14.4739 35.7516 14.4425L35.6652 14.3339L35.6165 14.2579L35.5247 14.1167C34.4439 12.5368 33.0929 11.5812 32.5201 11.9775C31.9473 12.3739 32.358 13.981 33.4442 15.561C33.4442 15.599 33.5036 15.6424 33.536 15.6967L33.6009 15.7836L33.6603 15.865L33.7468 15.9899L33.8008 16.0659L34.1629 16.5655L34.325 16.7935L34.3574 16.8369L34.7411 17.3799C34.887 17.5753 35.0437 17.7871 35.2058 18.0151L35.0005 18.5852L34.5844 19.7906L34.5412 19.7471C34.4709 19.7471 34.4007 19.7906 34.3358 19.8123H34.3034L34.2007 19.8612C34.0363 19.9491 33.8883 20.0648 33.763 20.2032L33.7036 20.2738L33.6765 20.3009V20.3335C33.7257 20.4727 33.7871 20.6072 33.8603 20.7353C33.9459 20.8852 34.0397 21.0302 34.1413 21.1697C33.8549 21.9841 33.5577 22.7985 33.2821 23.5804C33.2821 23.6129 33.2821 23.6509 33.2442 23.689C33.2064 23.727 33.1686 23.8953 33.1362 23.9984C33.1037 24.1016 33.0767 24.1667 33.0443 24.2482C33.0119 24.3296 33.0443 24.3242 33.0119 24.3568C32.9794 24.3894 32.947 24.5197 32.9254 24.6011C32.9131 24.6295 32.9023 24.6585 32.893 24.688C32.8606 24.7911 32.8227 24.8889 32.7849 24.9866C32.7255 25.1712 32.666 25.3395 32.6066 25.5024V25.5784C32.6066 25.5784 32.5525 25.7359 32.5255 25.8065C32.4769 25.9585 32.4282 26.0888 32.3958 26.1919C32.3958 26.2354 32.3958 26.2734 32.358 26.306C32.3618 26.3275 32.3618 26.3496 32.358 26.3711V26.4091C32.3721 26.4674 32.3974 26.5224 32.4327 26.5709C32.4679 26.6193 32.5123 26.6603 32.5633 26.6915C32.574 26.6938 32.5851 26.6938 32.5958 26.6915L33.5306 25.6707L33.5631 25.7087L33.6441 25.7847C33.6597 25.7813 33.6744 25.7747 33.6874 25.7653C33.7004 25.756 33.7114 25.7441 33.7198 25.7304C33.7065 25.6834 33.6884 25.6379 33.6657 25.5947L33.5036 25.7142L34.4223 24.7151V24.7477L34.4979 24.8237H34.5249C34.5407 24.8228 34.5559 24.8178 34.5691 24.8092C34.5824 24.8007 34.5932 24.7888 34.6006 24.7748C34.5854 24.7285 34.5674 24.6832 34.5466 24.6391V24.6065L35.168 23.8898L35.4652 23.5641L35.503 23.6075C35.5255 23.6355 35.5508 23.661 35.5787 23.6835C35.5972 23.6803 35.6147 23.6727 35.6297 23.6614C35.6448 23.6501 35.6569 23.6353 35.6652 23.6184C35.65 23.572 35.6319 23.5267 35.6111 23.4826C35.614 23.4683 35.614 23.4535 35.6111 23.4392L36.5244 22.4456C36.5381 22.4576 36.5491 22.4724 36.5568 22.489C36.5806 22.5157 36.6059 22.5411 36.6325 22.565C36.6483 22.5622 36.6633 22.5559 36.6764 22.5465C36.6895 22.5371 36.7003 22.5249 36.7081 22.5107C36.6976 22.4619 36.6812 22.4145 36.6595 22.3696V22.3153L37.5943 21.3C38.3671 22.261 39.1669 23.298 39.9558 24.3242L40.0369 24.4274L40.5773 25.1169L40.6745 25.2418L41.2149 25.9585L41.3933 26.1811L41.9336 26.8706C41.9569 26.8964 41.9785 26.9236 41.9985 26.9521C42.1714 27.1747 42.3443 27.3864 42.5389 27.5928L42.5929 27.6579L42.4308 28.0325C42.4266 28.0541 42.4266 28.0762 42.4308 28.0977C42.0904 28.8687 41.6472 29.9003 41.35 30.6713C41.3352 30.6992 41.3225 30.7282 41.3122 30.7582C41.2798 30.8287 41.2528 30.8939 41.2203 30.959L41.1879 31.0405L41.0312 31.4151L40.9718 31.5509L40.9339 31.6377C40.9303 31.652 40.9303 31.6669 40.9339 31.6812C40.9963 31.9133 41.0929 32.1347 41.2203 32.3381L41.3284 32.5227L42.0417 31.7843L44.2519 29.5202L44.3114 29.5962C44.3483 29.6297 44.3826 29.666 44.414 29.7048L44.6248 29.922C44.707 29.8901 44.785 29.8481 44.8571 29.7971C44.9292 29.7479 44.9946 29.6895 45.0517 29.6234C45.0517 29.5691 45.003 29.5148 44.976 29.4551L44.8517 29.3899C44.8414 29.3618 44.8287 29.3345 44.8139 29.3085C44.8139 29.2759 44.7761 29.2379 44.7599 29.1999L47.678 27.9131L47.6563 27.8751Z" fill="#7D6BEA"/>
<path d="M24.4578 10.204L22.876 10.2745L23.9022 33.5171L25.4839 33.4466L24.4578 10.204Z" fill="white"/>
<path d="M27.1806 17.898L25.5986 17.9652L25.9124 25.4241L27.4943 25.3569L27.1806 17.898Z" fill="white"/>
<path d="M27.5272 25.936L25.9453 26.0051L26.2681 33.4636L27.85 33.3945L27.5272 25.936Z" fill="white"/>
<path d="M26.8352 10.0565L25.2588 10.1254L25.5816 17.5839L27.158 17.515L26.8352 10.0565Z" fill="white"/>
<path d="M29.7585 131.978L28.9648 132.012L29.9506 155.257L30.7443 155.223L29.7585 131.978Z" fill="white"/>
<path d="M31.2717 139.718L30.4834 139.75L30.7868 147.209L31.5751 147.177L31.2717 139.718Z" fill="white"/>
<path d="M31.6271 147.756L30.8389 147.791L31.163 155.249L31.9512 155.215L31.6271 147.756Z" fill="white"/>
<path d="M30.9209 131.877L30.1328 131.914L30.4764 139.371L31.2645 139.335L30.9209 131.877Z" fill="white"/>
<path d="M29.7106 131.182L28.9163 131.22L27.9111 107.976L28.7001 107.938L29.7106 131.182Z" fill="white"/>
<path d="M30.2257 115.679L29.4375 115.713L29.7603 123.172L30.5485 123.137L30.2257 115.679Z" fill="white"/>
<path d="M30.5077 123.85L29.7188 123.881L30.016 131.347L30.8049 131.315L30.5077 123.85Z" fill="white"/>
<path d="M29.8869 107.846L29.0986 107.879L29.4059 115.338L30.1942 115.306L29.8869 107.846Z" fill="white"/>
<g style="mix-blend-mode:multiply">
<path d="M46.0141 6.72718L42.3936 6.88463C45.4684 6.7489 48.0946 9.39306 48.2243 12.7865L54.1686 149.664C54.3145 153.057 51.9422 155.913 48.8674 156.049L52.488 155.892C55.5682 155.756 57.9405 152.9 57.7946 149.507L51.8773 12.6236C51.699 9.23018 49.0889 6.59144 46.0141 6.72718Z" fill="#DEDFE0"/>
</g>
<path d="M39.7809 109.973L38.2422 110.04L40.1956 155.355L41.7343 155.288L39.7809 109.973Z" fill="#ADAFB2"/>
<path d="M42.7569 125.052L41.2129 125.12L41.8421 139.657L43.3861 139.59L42.7569 125.052Z" fill="#ADAFB2"/>
<path d="M43.0904 140.989L41.5449 141.051L42.1242 155.602L43.6697 155.54L43.0904 140.989Z" fill="#ADAFB2"/>
<path d="M42.0919 109.774L40.5479 109.841L41.1722 124.384L42.7163 124.317L42.0919 109.774Z" fill="#ADAFB2"/>
<path d="M37.7594 63.1108L36.2207 63.1772L38.1581 108.488L39.6968 108.422L37.7594 63.1108Z" fill="#ADAFB2"/>
<path d="M40.4928 78.4088L38.9473 78.4709L39.5266 93.022L41.0721 92.9599L40.4928 78.4088Z" fill="#ADAFB2"/>
<path d="M41.4005 93.8777L39.8564 93.9446L40.4806 108.482L42.0247 108.415L41.4005 93.8777Z" fill="#ADAFB2"/>
<path d="M39.9488 63.0701L38.4033 63.1322L38.9828 77.6887L40.5283 77.6266L39.9488 63.0701Z" fill="#ADAFB2"/>
<g style="mix-blend-mode:multiply">
<path d="M22.156 151.825H60.1344C60.1424 151.664 60.1424 151.503 60.1344 151.342L59.2049 129.841L70.6179 37.4961H21.0752L25.02 128.467L22.156 151.825Z" fill="#BEC0C2"/>
</g>
<path d="M82.3118 149.957C83.5655 149.545 85.1867 148.774 85.1867 146.417V43.9789C85.1164 41.9483 84.0249 40.4171 82.4848 40.0099C81.9319 39.8594 81.3651 39.7666 80.7933 39.733H5.13379V150.126H80.9392C81.4015 150.12 81.8618 150.064 82.3118 149.957Z" fill="white"/>
<g style="mix-blend-mode:screen">
<path d="M68.6289 40.0533H79.4961C79.4961 40.0533 84.2245 39.9013 84.7486 43.6585L84.5055 66.2398L84.2029 44.9127C84.2029 44.9127 83.2031 40.8461 79.642 40.4551C76.7347 40.1456 68.6289 40.0533 68.6289 40.0533Z" fill="#294468"/>
</g>
<path d="M14.7188 70.5653C14.6733 70.1619 14.4858 69.8494 14.1562 69.6278C13.8267 69.4034 13.4119 69.2912 12.9119 69.2912C12.554 69.2912 12.2443 69.348 11.983 69.4616C11.7216 69.5724 11.5185 69.7259 11.3736 69.9219C11.2315 70.1151 11.1605 70.3352 11.1605 70.5824C11.1605 70.7898 11.2088 70.9687 11.3054 71.1193C11.4048 71.2699 11.5341 71.3963 11.6932 71.4986C11.8551 71.598 12.0284 71.6818 12.2131 71.75C12.3977 71.8153 12.5753 71.8693 12.7457 71.9119L13.598 72.1335C13.8764 72.2017 14.1619 72.294 14.4545 72.4105C14.7472 72.527 15.0185 72.6804 15.2685 72.8707C15.5185 73.0611 15.7202 73.2969 15.8736 73.5781C16.0298 73.8594 16.108 74.196 16.108 74.5881C16.108 75.0824 15.9801 75.5213 15.7244 75.9048C15.4716 76.2884 15.1037 76.5909 14.6207 76.8125C14.1406 77.0341 13.5597 77.1449 12.8778 77.1449C12.2244 77.1449 11.6591 77.0412 11.1818 76.8338C10.7045 76.6264 10.331 76.3324 10.0611 75.9517C9.79119 75.5682 9.64205 75.1136 9.61364 74.5881H10.9347C10.9602 74.9034 11.0625 75.1662 11.2415 75.3764C11.4233 75.5838 11.6548 75.7386 11.9361 75.8409C12.2202 75.9403 12.5312 75.9901 12.8693 75.9901C13.2415 75.9901 13.5724 75.9318 13.8622 75.8153C14.1548 75.696 14.3849 75.5312 14.5526 75.321C14.7202 75.108 14.804 74.8594 14.804 74.5753C14.804 74.3168 14.7301 74.1051 14.5824 73.9403C14.4375 73.7756 14.2401 73.6392 13.9901 73.5312C13.7429 73.4233 13.4631 73.3281 13.1506 73.2457L12.1193 72.9645C11.4205 72.7741 10.8665 72.4943 10.4574 72.125C10.0511 71.7557 9.84801 71.267 9.84801 70.6591C9.84801 70.1562 9.98438 69.7173 10.2571 69.3423C10.5298 68.9673 10.8991 68.6761 11.3651 68.4688C11.831 68.2585 12.3565 68.1534 12.9418 68.1534C13.5327 68.1534 14.054 68.2571 14.5057 68.4645C14.9602 68.6719 15.3182 68.9574 15.5795 69.321C15.8409 69.6818 15.9773 70.0966 15.9886 70.5653H14.7188ZM17.2511 69.4062V68.2727H24.0053V69.4062H21.2823V77H19.9698V69.4062H17.2511ZM31.1101 68.2727H32.4311V74.0128C32.4311 74.6236 32.2876 75.1648 32.0007 75.6364C31.7138 76.1051 31.3104 76.4744 30.7905 76.7443C30.2706 77.0114 29.6612 77.1449 28.9624 77.1449C28.2663 77.1449 27.6584 77.0114 27.1385 76.7443C26.6186 76.4744 26.2152 76.1051 25.9283 75.6364C25.6413 75.1648 25.4979 74.6236 25.4979 74.0128V68.2727H26.8146V73.9062C26.8146 74.3011 26.9013 74.652 27.0746 74.9588C27.2507 75.2656 27.4993 75.5071 27.8203 75.6832C28.1413 75.8565 28.522 75.9432 28.9624 75.9432C29.4055 75.9432 29.7876 75.8565 30.1087 75.6832C30.4325 75.5071 30.6797 75.2656 30.8501 74.9588C31.0234 74.652 31.1101 74.3011 31.1101 73.9062V68.2727ZM37.1708 77H34.3455V68.2727H37.2603C38.1154 68.2727 38.8498 68.4474 39.4634 68.7969C40.0771 69.1435 40.5472 69.642 40.8739 70.2926C41.2035 70.9403 41.3683 71.7173 41.3683 72.6236C41.3683 73.5327 41.2021 74.3139 40.8697 74.9673C40.5401 75.6207 40.0629 76.1236 39.4379 76.4759C38.8129 76.8253 38.0572 77 37.1708 77ZM35.6623 75.8494H37.0984C37.7631 75.8494 38.3157 75.7244 38.756 75.4744C39.1964 75.2216 39.5259 74.8565 39.7447 74.3793C39.9634 73.8991 40.0728 73.3139 40.0728 72.6236C40.0728 71.9389 39.9634 71.358 39.7447 70.8807C39.5288 70.4034 39.2063 70.0412 38.7773 69.794C38.3484 69.5469 37.8157 69.4233 37.1793 69.4233H35.6623V75.8494ZM41.8871 68.2727H43.3828L45.6626 72.2401H45.7564L48.0362 68.2727H49.532L46.3658 73.5739V77H45.0533V73.5739L41.8871 68.2727ZM54.7138 68.2727L57.1428 75.3807H57.2408L59.6697 68.2727H61.093L57.9524 77H56.4311L53.2905 68.2727H54.7138ZM63.6701 68.2727V77H62.3533V68.2727H63.6701ZM70.3477 70.5653C70.3022 70.1619 70.1147 69.8494 69.7852 69.6278C69.4556 69.4034 69.0408 69.2912 68.5408 69.2912C68.1829 69.2912 67.8732 69.348 67.6119 69.4616C67.3505 69.5724 67.1474 69.7259 67.0025 69.9219C66.8604 70.1151 66.7894 70.3352 66.7894 70.5824C66.7894 70.7898 66.8377 70.9687 66.9343 71.1193C67.0337 71.2699 67.163 71.3963 67.3221 71.4986C67.484 71.598 67.6573 71.6818 67.842 71.75C68.0266 71.8153 68.2042 71.8693 68.3746 71.9119L69.2269 72.1335C69.5053 72.2017 69.7908 72.294 70.0835 72.4105C70.3761 72.527 70.6474 72.6804 70.8974 72.8707C71.1474 73.0611 71.3491 73.2969 71.5025 73.5781C71.6587 73.8594 71.7369 74.196 71.7369 74.5881C71.7369 75.0824 71.609 75.5213 71.3533 75.9048C71.1005 76.2884 70.7326 76.5909 70.2496 76.8125C69.7695 77.0341 69.1886 77.1449 68.5067 77.1449C67.8533 77.1449 67.288 77.0412 66.8107 76.8338C66.3335 76.6264 65.9599 76.3324 65.69 75.9517C65.4201 75.5682 65.271 75.1136 65.2425 74.5881H66.5636C66.5891 74.9034 66.6914 75.1662 66.8704 75.3764C67.0522 75.5838 67.2837 75.7386 67.565 75.8409C67.8491 75.9403 68.1602 75.9901 68.4982 75.9901C68.8704 75.9901 69.2013 75.9318 69.4911 75.8153C69.7837 75.696 70.0138 75.5312 70.1815 75.321C70.3491 75.108 70.4329 74.8594 70.4329 74.5753C70.4329 74.3168 70.359 74.1051 70.2113 73.9403C70.0664 73.7756 69.869 73.6392 69.619 73.5312C69.3718 73.4233 69.092 73.3281 68.7795 73.2457L67.7482 72.9645C67.0494 72.7741 66.4954 72.4943 66.0863 72.125C65.68 71.7557 65.4769 71.267 65.4769 70.6591C65.4769 70.1562 65.6133 69.7173 65.886 69.3423C66.1587 68.9673 66.5281 68.6761 66.994 68.4688C67.4599 68.2585 67.9854 68.1534 68.5707 68.1534C69.1616 68.1534 69.6829 68.2571 70.1346 68.4645C70.5891 68.6719 70.9471 68.9574 71.2085 69.321C71.4698 69.6818 71.6062 70.0966 71.6175 70.5653H70.3477ZM73.9773 77H72.5795L75.7202 68.2727H77.2415L80.3821 77H78.9844L76.517 69.858H76.4489L73.9773 77ZM74.2116 73.5824H78.7457V74.6903H74.2116V73.5824Z" fill="#7D6BEA"/>
<path d="M83.5336 82.0056H6V63H83.5336V82.0056ZM6.41134 81.5849H83.1139V63.4208H6.41974L6.41134 81.5849Z" fill="#7D6BEA"/>
</g>
<defs>
<clipPath id="clip0_1085_5115">
<rect width="91" height="173" fill="white"/>
</clipPath>
</defs>
</svg>
