<svg width="30" height="24" viewBox="0 0 30 24" fill="none" xmlns="http://www.w3.org/2000/svg">
<path d="M24.2761 23.9968C21.1537 23.6766 17.6747 22.0916 16.7158 18.0809C15.7331 13.9661 16.7395 10.5879 19.2359 7.51381C21.6926 4.49579 24.6169 2.01413 28.1118 0.268962C28.405 0.124865 28.6744 -0.0112257 28.9994 0.00478505C29.2609 0.0207958 29.6017 -0.0832739 29.7205 0.22093C29.8711 0.605187 29.5145 0.805321 29.2609 0.957422C26.0434 2.91873 23.7055 5.60053 22.3821 9.19493C21.328 12.0528 22.7704 15.4631 25.4807 16.9281C26.717 17.5926 27.977 18.0729 29.2847 18.4731C30.3466 18.8014 29.9662 19.6499 29.7681 20.1463C28.9043 22.3237 26.6615 24.0849 24.2761 23.9968Z" fill="#DDE1E6"/>
<path d="M7.93236 23.9968C4.80995 23.6766 1.33092 22.0916 0.372002 18.0809C-0.610687 13.9661 0.395776 10.5879 2.89212 7.51381C5.34884 4.49579 8.27313 2.01413 11.768 0.268962C12.0612 0.124865 12.3307 -0.0112257 12.6556 0.00478505C12.9171 0.0207958 13.2579 -0.0832739 13.3768 0.22093C13.5273 0.605187 13.1707 0.805321 12.9171 0.957422C9.69962 2.91873 7.36177 5.60053 6.03831 9.19493C4.9843 12.0528 6.42663 15.4631 9.13695 16.9281C10.3732 17.5926 11.6333 18.0729 12.9409 18.4731C14.0028 18.8014 13.6224 19.6499 13.4243 20.1463C12.5526 22.3237 10.3178 24.0849 7.93236 23.9968Z" fill="#DDE1E6"/>
</svg>
