<svg width="81" height="76" viewBox="0 0 81 76" fill="none" xmlns="http://www.w3.org/2000/svg">
<g clip-path="url(#clip0_6250_14740)">
<path d="M78.8899 45.8354C76.2501 55.4036 68.5223 62.9468 59.9465 68.2484C51.3832 73.4734 41.9719 76.4568 33.5277 74.7694C25.0518 73.0369 17.4985 66.665 11.5009 58.7232C5.45889 50.8128 0.959877 41.4091 0.744132 30.8114C0.528387 20.2138 4.59591 8.42218 12.6832 3.93827C20.7706 -0.545644 32.7888 2.34078 44.1647 5.07146C55.4962 7.83348 66.1855 10.4398 72.7479 17.5777C79.234 24.7018 81.606 36.281 78.8899 45.8354Z" fill="#F2F6FF"/>
<path d="M61.4938 54.6166C62.8065 54.615 64.0653 54.094 64.9953 53.1675C65.9253 52.2409 66.4509 50.984 66.4573 49.6712L66.548 22.2479C66.548 20.9335 66.0279 19.6725 65.1013 18.7402C64.1747 17.808 62.9169 17.2803 61.6026 17.2723L16.5561 17.1272C15.2443 17.1288 13.9864 17.6489 13.0566 18.5742C12.1268 19.4994 11.6005 20.7548 11.5925 22.0665L11.5079 49.4898C11.5047 50.1411 11.63 50.7865 11.8767 51.3893C12.1233 51.992 12.4865 52.5402 12.9453 53.0024C13.4041 53.4646 13.9496 53.8317 14.5505 54.0828C15.1514 54.3338 15.796 54.4639 16.4472 54.4654L61.4998 54.6166H61.4938ZM18.2912 52.4099H16.55H16.4351C16.058 52.4083 15.6849 52.3325 15.3371 52.1867C14.9893 52.0409 14.6736 51.8281 14.4081 51.5603C14.1425 51.2925 13.9323 50.975 13.7895 50.626C13.6466 50.2769 13.5739 49.9032 13.5755 49.5261L13.6662 22.1028C13.671 21.3438 13.9754 20.6174 14.5133 20.0818C15.0512 19.5462 15.7789 19.2448 16.5379 19.2432L61.5844 19.3883C62.3461 19.3931 63.075 19.699 63.6119 20.2393C64.1488 20.7796 64.4501 21.5104 64.4501 22.2721L64.3534 49.6954C64.3526 50.0717 64.2777 50.4442 64.1329 50.7916C63.9882 51.1389 63.7764 51.4544 63.5098 51.7199C63.2431 51.9855 62.9267 52.1959 62.5788 52.3392C62.2308 52.4825 61.858 52.5558 61.4817 52.555L18.2851 52.4159L18.2912 52.4099Z" fill="#6F96E4"/>
<path d="M58.9435 21.468H48.5025C48.363 21.468 48.2293 21.5235 48.1306 21.6221C48.032 21.7207 47.9766 21.8545 47.9766 21.994V35.8991C47.9766 35.9679 47.9902 36.036 48.0167 36.0995C48.0432 36.163 48.0821 36.2206 48.131 36.2689C48.1799 36.3173 48.2379 36.3555 48.3017 36.3812C48.3655 36.407 48.4338 36.4199 48.5025 36.4191H58.9435C59.0123 36.4199 59.0805 36.407 59.1443 36.3812C59.2081 36.3555 59.2661 36.3173 59.315 36.2689C59.3639 36.2206 59.4028 36.163 59.4293 36.0995C59.4558 36.036 59.4694 35.9679 59.4694 35.8991V21.994C59.4694 21.8545 59.414 21.7207 59.3154 21.6221C59.2167 21.5235 59.083 21.468 58.9435 21.468V21.468ZM58.4236 35.3732H49.0225V22.5139H58.4236V35.3732Z" fill="#6F96E4"/>
<path d="M20.0381 40.3365H36.2285C36.5059 40.3365 36.7719 40.2263 36.9681 40.0301C37.1642 39.834 37.2744 39.5679 37.2744 39.2906C37.2744 39.0132 37.1642 38.7471 36.9681 38.551C36.7719 38.3549 36.5059 38.2447 36.2285 38.2447H20.0381C19.7607 38.2447 19.4947 38.3549 19.2985 38.551C19.1024 38.7471 18.9922 39.0132 18.9922 39.2906C18.9922 39.5679 19.1024 39.834 19.2985 40.0301C19.4947 40.2263 19.7607 40.3365 20.0381 40.3365Z" fill="#6F96E4"/>
<path d="M43.7977 44.2481H20.0381C19.7607 44.2481 19.4947 44.3583 19.2985 44.5544C19.1024 44.7506 18.9922 45.0166 18.9922 45.294C18.9922 45.5714 19.1024 45.8374 19.2985 46.0336C19.4947 46.2297 19.7607 46.3399 20.0381 46.3399H43.7977C44.0751 46.3399 44.3411 46.2297 44.5373 46.0336C44.7334 45.8374 44.8436 45.5714 44.8436 45.294C44.8436 45.0166 44.7334 44.7506 44.5373 44.5544C44.3411 44.3583 44.0751 44.2481 43.7977 44.2481Z" fill="#6F96E4"/>
</g>
<defs>
<clipPath id="clip0_6250_14740">
<rect width="81" height="76" fill="white"/>
</clipPath>
</defs>
</svg>
