<svg width="16" height="15" viewBox="0 0 16 15" fill="none" xmlns="http://www.w3.org/2000/svg">
<path d="M1.11487 11.6959L4.51653 8.59819C4.67733 8.45181 4.88863 8.37374 5.10581 8.38047C5.323 8.38719 5.52908 8.47818 5.68054 8.63423L7.68305 10.6969C8.16506 10.6047 9.13409 10.3021 10.1316 9.30558C11.1291 8.30568 11.4312 7.3326 11.5207 6.85319L9.46296 4.84669C9.30697 4.69509 9.21598 4.48865 9.20927 4.27106C9.20255 4.05347 9.28063 3.8418 9.42698 3.68084L12.519 0.274651C12.6654 0.113189 12.8689 0.015251 13.0863 0.00163587C13.3036 -0.0119793 13.5177 0.0598014 13.683 0.201733L15.4989 1.76151C15.6436 1.90694 15.73 2.10049 15.7416 2.30546C15.7542 2.51499 15.9935 7.47844 12.1508 11.3288C8.79853 14.6856 4.59937 14.9312 3.44289 14.9312C3.27386 14.9312 3.17009 14.9261 3.14248 14.9244C2.93786 14.913 2.74471 14.8261 2.60022 14.6805L1.04374 12.861C0.901466 12.6959 0.82927 12.4816 0.842561 12.2639C0.85585 12.0463 0.953574 11.8424 1.11487 11.6959Z" fill="#1D66FF"/>
</svg>
