<svg width="81" height="74" viewBox="0 0 81 74" fill="none" xmlns="http://www.w3.org/2000/svg">
<path d="M72.4805 11.445C78.7801 19.1154 80.4931 29.7777 79.8852 39.8416C79.2221 49.8511 76.2381 59.2623 69.9939 65.1918C63.6943 71.1214 54.1345 73.6237 44.1878 73.9501C34.2412 74.3309 23.963 72.5902 15.1768 66.6606C6.39059 60.731 -0.90362 50.6127 0.0910449 41.4192C1.08571 32.2257 10.3692 24.0657 19.1555 16.341C27.9417 8.67064 36.2305 1.43549 45.8456 0.184304C55.4054 -1.01249 66.2362 3.72028 72.4805 11.445Z" fill="#F2F6FF"/>
<path d="M15.3176 32.8701L15.3509 32.8614L15.3162 32.8676C15.1544 32.8973 14.9951 32.9399 14.84 32.995L15.317 32.8721L15.3176 32.8701Z" fill="#82BFAB"/>
<path d="M32.9194 46.3624C32.3233 45.4724 31.8033 44.5336 31.3649 43.5562L21.8347 46.043L24.1216 48.6632L25.0435 48.418C25.259 48.3306 25.4849 48.2715 25.7155 48.242L32.9194 46.3624Z" fill="#CDDBF8"/>
<path d="M29.8336 38.1207C29.6961 37.0666 29.6471 36.0029 29.687 34.9407L16.7721 38.3183L16.3826 38.4185L16.2739 38.4485L16.3869 38.4251C16.7713 39.4158 17.255 40.3651 17.8304 41.2585L18.3416 41.1239L19.2809 40.8841L29.8336 38.1207Z" fill="#CDDBF8"/>
<path d="M30.9769 28.7774L41.0105 26.1535L41.0084 26.1603L45.3293 25.033L45.4908 24.9896L45.782 24.8306C45.7125 24.669 45.6781 24.4943 45.6812 24.3184C45.6843 24.1424 45.7248 23.9691 45.8001 23.8099L45.8296 23.7587C45.899 23.6286 45.9902 23.5114 46.0992 23.4122L46.2441 23.3299C46.4922 23.1617 46.7925 23.0882 47.0902 23.1228C47.3879 23.1574 47.6633 23.2977 47.8662 23.5182L47.8968 23.553L56.2705 33.2199L57.9516 35.1616C58.1763 35.4557 58.4582 35.7013 58.7803 35.8836C59.1025 36.0658 59.4582 36.181 59.826 36.222C60.1938 36.2631 60.5662 36.2293 60.9206 36.1225C61.275 36.0158 61.6041 35.8384 61.8881 35.6011C62.1721 35.3637 62.4051 35.0713 62.573 34.7415C62.7409 34.4116 62.8403 34.0512 62.8652 33.6819C62.8901 33.3126 62.8399 32.9421 62.7177 32.5927C62.5955 32.2434 62.4038 31.9224 62.1542 31.6491L62.0938 31.5807L51.6054 19.4663L51.5956 19.4707L51.5712 19.4399C48.2904 15.7202 43.711 13.3964 38.7718 12.9449C37.9773 12.8735 37.1792 12.8525 36.3821 12.882C35.6649 12.9099 34.9499 12.978 34.2403 13.0859C32.8088 12.9478 31.4842 12.2678 30.5375 11.1851L28.1909 8.49791L11.1867 23.3494L13.317 25.787L14.642 27.3048C15.2399 28.3051 15.5127 29.4663 15.4226 30.6282L15.3923 30.895C15.3457 31.3039 15.328 31.7121 15.3147 32.1227C15.308 32.3714 15.3118 32.6201 15.3162 32.8638L15.3509 32.8575L30.9769 28.7774Z" fill="#CDDBF8"/>
<path d="M69.5085 21.2173L66.0568 22.1192C64.6655 22.482 63.1881 22.2993 61.9271 21.6084C60.8171 20.5757 59.5864 19.6809 58.2617 18.9436C55.235 17.2501 51.805 16.4108 48.3383 16.5156C49.5216 17.3636 50.6041 18.344 51.5648 19.4377L51.5892 19.4685L51.599 19.4641L62.0886 31.5747L62.149 31.643C62.3934 31.9172 62.5803 32.2376 62.6984 32.5854C62.8166 32.9332 62.8637 33.3011 62.8368 33.6674C62.81 34.0337 62.7099 34.3909 62.5423 34.7178C62.3748 35.0446 62.1432 35.3345 61.8615 35.5701C61.5798 35.8057 61.2535 35.9823 60.9022 36.0894C60.5509 36.1965 60.1816 36.2319 59.8163 36.1935C59.451 36.1551 59.0972 36.0437 58.7758 35.8659C58.4545 35.6881 58.1721 35.4475 57.9455 35.1584L56.2661 33.2215L47.8924 23.5546L47.8618 23.5198C47.6593 23.2991 47.3842 23.1584 47.0867 23.1233C46.7892 23.0882 46.489 23.161 46.2406 23.3286L46.316 23.4787C46.3799 23.7318 46.3623 23.9985 46.2658 24.241C46.1693 24.4835 45.9988 24.6894 45.7785 24.8293L45.4906 24.9914L45.3291 25.0348L41.0081 26.1621L41.0102 26.1554L30.9766 28.7792L15.3462 32.8601L15.3122 32.8708L14.8353 32.9937C14.1676 33.2327 13.614 33.7135 13.2838 34.3411C12.9536 34.9686 12.8709 35.6972 13.0521 36.3828C13.2333 37.0684 13.6652 37.661 14.2623 38.0435C14.8595 38.4259 15.5784 38.5704 16.2769 38.4483L16.3856 38.4183L16.7751 38.3181L29.6929 34.9414C29.6521 36.0033 29.7002 37.0666 29.8366 38.1205L19.2854 40.8791L18.3461 41.1189C18.0091 41.2764 17.7063 41.4987 17.4552 41.7732C17.204 42.0477 17.0094 42.369 16.8824 42.7187C16.7555 43.0684 16.6986 43.4397 16.7151 43.8113C16.7316 44.183 16.8212 44.5478 16.9787 44.8849C17.1362 45.2219 17.3585 45.5247 17.633 45.7758C17.9075 46.027 18.2288 46.2216 18.5785 46.3485C18.9282 46.4755 19.2995 46.5324 19.6711 46.5159C20.0428 46.4994 20.4076 46.4098 20.7447 46.2523L20.767 46.3174L21.8339 46.0375L31.3655 43.5458C31.8039 44.5233 32.3239 45.462 32.9201 46.3521L25.7169 48.2361C25.4862 48.2656 25.2603 48.3247 25.0448 48.4121C24.6827 48.5517 24.3534 48.7647 24.0777 49.0378C23.8019 49.3108 23.5857 49.638 23.4425 49.9987C23.2994 50.3594 23.2324 50.7458 23.2459 51.1337C23.2594 51.5215 23.353 51.9023 23.5209 52.2522C23.6887 52.6021 23.9272 52.9135 24.2212 53.1667C24.5153 53.42 24.8586 53.6096 25.2295 53.7237C25.6004 53.8378 25.9909 53.8739 26.3764 53.8297C26.762 53.7855 27.1342 53.662 27.4697 53.4669L27.5187 53.5963L28.284 53.396L34.3824 51.8014L36.213 51.3229L36.631 49.9651L36.6975 49.701L36.7905 49.4471C37.0785 48.7925 37.6037 48.2711 38.2604 47.9877C38.9171 47.7044 39.6567 47.6801 40.3306 47.9198C41.0045 48.1594 41.5627 48.6452 41.8931 49.2796C42.2235 49.914 42.3015 50.6498 42.1115 51.3394L42.0948 51.3935L41.0662 54.7343L39.6005 59.4947L43.1421 58.5686L43.2528 58.2091L43.2608 58.183L43.2692 58.156L44.155 55.2791L45.4255 51.1526L46.3024 48.3047L46.3333 48.1735L46.3821 48.0457C46.6195 47.3369 47.1286 46.7514 47.7977 46.418C48.4667 46.0846 49.2408 46.0306 49.9496 46.2679C50.6584 46.5053 51.2439 47.0144 51.5773 47.6835C51.9107 48.3525 51.9646 49.1265 51.7273 49.8354L51.6823 49.9643L51.6949 49.9682L49.557 56.9117L53.0967 55.985L54.0459 52.9022L55.2254 49.0715L55.2281 49.0628L55.2578 48.9662L55.3526 48.7203L55.4552 48.3869L55.5084 48.4032C55.8244 47.8439 56.3221 47.4094 56.919 47.1717C57.5159 46.9341 58.176 46.9076 58.79 47.0966C59.404 47.2857 59.9349 47.6789 60.2948 48.2111C60.6546 48.7433 60.8217 49.3826 60.7684 50.0228L60.8196 50.0386L60.6917 50.4541L60.6696 50.5669L60.6595 50.6272L60.6137 50.7485L59.561 54.1676C62.0448 53.1315 64.2262 51.4841 65.9023 49.3785C66.5079 48.6139 67.043 47.796 67.5011 46.9349L67.6232 46.6963C68.2034 45.6851 69.0831 44.8788 70.1409 44.3885L72.0881 43.8782L75.2197 43.0608L69.5085 21.2173Z" fill="#6F96E4" fill-opacity="0.6"/>
<path d="M51.6927 49.9673L51.6801 49.9634L51.7251 49.8344C51.9437 49.1309 51.878 48.3697 51.5422 47.714C51.2064 47.0583 50.6272 46.5601 49.9287 46.3262C49.2301 46.0923 48.4677 46.1413 47.8047 46.4626C47.1418 46.7839 46.6311 47.3521 46.3819 48.0453L46.333 48.1731L46.3022 48.3043L45.4259 51.1503L44.1553 55.2768L43.2692 58.1547L43.2609 58.1817L43.2529 58.2078L43.1422 58.5673L43.1816 58.5562C43.0699 59.2282 43.2068 59.918 43.5666 60.4965C43.9264 61.075 44.4845 61.5028 45.1366 61.6998C45.7888 61.8969 46.4904 61.8497 47.1103 61.5672C47.7303 61.2847 48.2262 60.7861 48.5053 60.1647L48.5285 60.1718L48.5952 59.9553L48.6431 59.841L48.6678 59.7195L49.5307 56.917L49.5565 56.9123L51.6946 49.9679L51.6927 49.9673Z" fill="#CDDBF8"/>
<path d="M42.0937 51.3951L42.1106 51.34C42.3006 50.6505 42.2226 49.9146 41.8922 49.2803C41.5619 48.6459 41.0037 48.1601 40.3298 47.9204C39.6559 47.6808 38.9163 47.7051 38.2596 47.9884C37.6028 48.2717 37.0777 48.7931 36.7896 49.4478L36.6967 49.7016L36.6302 49.9658L35.6233 53.236L34.3785 51.8117L28.2802 53.4063L30.5663 56.0252L31.4882 55.7801L31.5572 55.7622L35.1249 54.8272L33.172 61.1695L33.3387 61.1267C33.3388 61.7692 33.5598 62.3921 33.9645 62.8911C34.3693 63.3901 34.9333 63.7349 35.5619 63.8676C36.1906 64.0002 36.8458 63.9128 37.4177 63.62C37.9896 63.3271 38.4434 62.8466 38.7032 62.259L38.7254 62.2658L38.7927 62.0474L38.8415 61.9334L38.8653 61.8116L39.5767 59.501L39.5942 59.4958L41.0599 54.7354L42.0937 51.3951Z" fill="#CDDBF8"/>
<path d="M60.6628 50.6315L60.673 50.5712L60.695 50.4584L60.8241 50.039L60.7768 50.0244C60.8279 49.3851 60.6596 48.7475 60.2995 48.2168C59.9394 47.6861 59.4092 47.294 58.7962 47.1053C58.1833 46.9166 57.5243 46.9425 56.9281 47.1787C56.3319 47.415 55.8341 47.8475 55.5168 48.4048L55.4617 48.3879L55.3596 48.7193L55.2649 48.9652L55.2351 49.0619L55.2324 49.0706L54.0529 52.9013L53.1038 55.9841L53.1235 55.9785L52.9896 56.4134L52.9432 56.5229L52.9193 56.6414L52.8512 56.8627L52.8754 56.8702C52.756 57.5432 52.8868 58.2366 53.2431 58.8199C53.5993 59.4031 54.1565 59.8361 54.8097 60.0372C55.4629 60.2384 56.1672 60.1938 56.7898 59.9119C57.4125 59.63 57.9106 59.1303 58.1905 58.5067L58.2137 58.5138L58.2809 58.2954L58.3288 58.1811L58.3529 58.0616L59.5491 54.1767L59.5633 54.1716L60.6161 50.7525L60.6628 50.6315Z" fill="#CDDBF8"/>
<path d="M34.5443 56.7312L35.1293 54.8313L31.5617 55.7663L31.4927 55.7842C30.7784 56.0079 30.1823 56.5062 29.8354 57.1694C29.4885 57.8326 29.4193 58.6065 29.643 59.3208C29.8668 60.035 30.365 60.6312 31.0283 60.978C31.6915 61.3249 32.4654 61.3941 33.1796 61.1704L34.5454 56.7347L34.5443 56.7312Z" fill="#6F96E4" fill-opacity="0.6"/>
</svg>
