<svg width="26" height="21" viewBox="0 0 26 21" fill="none" xmlns="http://www.w3.org/2000/svg">
<path d="M25.0478 2.45674C24.8803 2.81261 24.5685 3.26213 24.1125 3.80526C23.6564 4.34839 23.0934 4.82601 22.4232 5.23806C22.4419 5.38792 22.4558 5.52837 22.4651 5.65947C22.5374 7.67804 22.0569 9.77235 21.3901 11.5171C20.0978 14.7611 18.1177 17.372 15.2893 19.1447C12.34 20.847 8.90502 21.209 5.74026 20.9006C3.63924 20.6578 1.56847 19.9675 0.00244141 18.6671C2.86665 19.0116 5.53967 18.0312 7.65287 16.4476C5.30545 16.5074 3.59988 14.7988 2.79459 12.8235C3.1576 12.9192 3.53735 12.9077 3.88352 12.8797C4.30962 12.8394 4.71411 12.7992 5.11206 12.7112C3.61524 12.2252 2.30553 11.3319 1.6219 9.98599C1.2209 9.13316 1.03984 8.32103 1.03556 7.40131C1.73694 7.77288 2.58061 8.13501 3.35304 8.10365C2.1865 7.10935 1.25131 5.83861 1.07745 4.38116C0.967691 3.16594 1.26991 2.05666 1.7057 1.0239C3.45067 2.95352 5.40855 4.54151 7.66688 5.51898C9.2113 6.15534 10.7513 6.49565 12.3437 6.50226C12.1599 5.07119 12.3028 3.68715 12.972 2.51287C13.7594 1.25037 14.9083 0.517869 16.1969 0.152944C18.0406 -0.322758 19.8388 0.349194 20.9714 1.64194C22.1928 1.5092 23.3629 0.963982 24.2941 0.40579C23.8984 1.61143 23.1279 2.81017 22.0045 3.38378C23.0741 3.18453 24.0947 2.86593 25.0478 2.45674Z" fill="#1D66FF"/>
</svg>
