<svg width="24" height="24" viewBox="0 0 24 24" fill="none" xmlns="http://www.w3.org/2000/svg">
<mask id="path-1-inside-1_337_874" fill="white">
<path d="M7.20037 21.9923C9.00647 22.0541 10.8064 21.7449 12.4937 21.0828C14.181 20.4208 15.7215 19.4194 17.0241 18.1378C18.3267 16.8562 19.365 15.3204 20.0777 13.6212C20.7904 11.922 21.1629 10.0939 21.1734 8.24489C22.001 7.19686 22.6156 5.99011 22.981 4.69557C23.0083 4.59329 23.0061 4.48513 22.9747 4.3841C22.9433 4.28307 22.884 4.19349 22.804 4.12614C22.724 4.05879 22.6266 4.01654 22.5237 4.00449C22.4207 3.99243 22.3166 4.01108 22.2238 4.05819C21.7908 4.27147 21.3033 4.34036 20.8299 4.25516C20.3566 4.16996 19.9214 3.93497 19.5855 3.58328C19.1567 3.10285 18.6381 2.71536 18.0603 2.44379C17.4825 2.17221 16.8572 2.02207 16.2217 2.00225C15.5861 1.98244 14.9531 2.09336 14.3602 2.32845C13.7673 2.56353 13.2266 2.91799 12.77 3.37083C12.1449 3.99028 11.687 4.76467 11.4409 5.61874C11.1948 6.47281 11.1687 7.3775 11.3654 8.24489C7.27365 8.49485 4.4644 6.50773 2.21699 3.78325C2.14948 3.70501 2.06116 3.64859 1.96282 3.62086C1.86448 3.59314 1.76038 3.59532 1.66323 3.62712C1.56608 3.65893 1.48009 3.719 1.41575 3.79999C1.35141 3.88098 1.31152 3.97938 1.30093 4.08319C0.872788 6.51325 1.18163 9.01918 2.18599 11.2644C3.19035 13.5096 4.84211 15.3866 6.91944 16.6433C5.52658 18.2778 3.57058 19.2986 1.45972 19.4927C1.34663 19.5119 1.24223 19.5668 1.16114 19.6497C1.08005 19.7326 1.02632 19.8394 1.00748 19.9551C0.988633 20.0708 1.00561 20.1896 1.05604 20.295C1.10647 20.4003 1.18782 20.4869 1.28872 20.5425C3.12514 21.4816 5.14745 21.9775 7.20037 21.9923"/>
</mask>
<path d="M21.1734 8.24489L19.6038 7.00533L19.1773 7.54542L19.1734 8.23363L21.1734 8.24489ZM22.981 4.69557L24.9058 5.23887L24.9098 5.22492L24.9135 5.21092L22.981 4.69557ZM22.5237 4.00449L22.2911 5.99091L22.5237 4.00449ZM22.2238 4.05819L23.1075 5.85237L23.1182 5.84707L23.1289 5.84164L22.2238 4.05819ZM19.5855 3.58328L18.0934 4.915L18.1158 4.9402L18.1392 4.96462L19.5855 3.58328ZM12.77 3.37083L14.1778 4.79147L14.1784 4.79082L12.77 3.37083ZM11.3654 8.24489L11.4873 10.2412L13.8362 10.0977L13.3159 7.80271L11.3654 8.24489ZM2.21699 3.78325L3.75982 2.51058L3.74565 2.49341L3.73111 2.47655L2.21699 3.78325ZM1.30093 4.08319L3.27059 4.43022L3.28323 4.35851L3.29061 4.28607L1.30093 4.08319ZM6.91944 16.6433L8.44168 17.9405L9.96767 16.1498L7.95465 14.932L6.91944 16.6433ZM1.45972 19.4927L1.27655 17.5011L1.20046 17.5081L1.12513 17.5209L1.45972 19.4927ZM1.28872 20.5425L0.322355 22.2936L0.350032 22.3089L0.378177 22.3232L1.28872 20.5425ZM7.13193 23.9911C9.21175 24.0623 11.2835 23.7061 13.2242 22.9446L11.7631 19.221C10.3292 19.7836 8.80118 20.0459 7.2688 19.9934L7.13193 23.9911ZM13.2242 22.9446C15.1648 22.1832 16.9334 21.0327 18.4267 19.5634L15.6214 16.7121C14.5095 17.806 13.1972 18.6583 11.7631 19.221L13.2242 22.9446ZM18.4267 19.5634C19.92 18.0943 21.1077 16.3364 21.9221 14.3948L18.2334 12.8477C17.6224 14.3044 16.7334 15.618 15.6214 16.7121L18.4267 19.5634ZM21.9221 14.3948C22.7364 12.4533 23.1614 10.3661 23.1733 8.25616L19.1734 8.23363C19.1644 9.82175 18.8444 11.3908 18.2334 12.8477L21.9221 14.3948ZM22.7429 9.48445C23.7349 8.22842 24.4695 6.78472 24.9058 5.23887L21.0563 4.15228C20.7618 5.19551 20.2672 6.16529 19.6038 7.00533L22.7429 9.48445ZM24.9135 5.21092C25.0379 4.74438 25.028 4.25169 24.8845 3.79027L21.0649 4.97793C20.9843 4.71857 20.9787 4.44221 21.0486 4.18023L24.9135 5.21092ZM24.8845 3.79027C24.741 3.32856 24.468 2.91257 24.0919 2.59599L21.5161 5.65629C21.3 5.47441 21.1456 5.23758 21.0649 4.97793L24.8845 3.79027ZM24.0919 2.59599C23.7152 2.27898 23.2518 2.07609 22.7563 2.01806L22.2911 5.99091C22.0014 5.957 21.7327 5.83859 21.5161 5.65629L24.0919 2.59599ZM22.7563 2.01806C22.2606 1.96001 21.7608 2.0503 21.3186 2.27475L23.1289 5.84164C22.8723 5.97186 22.5809 6.02485 22.2911 5.99091L22.7563 2.01806ZM21.3401 2.26402C21.289 2.28918 21.2352 2.29597 21.1843 2.2868L20.4756 6.22353C21.3713 6.38475 22.2925 6.25376 23.1075 5.85237L21.3401 2.26402ZM21.1843 2.2868C21.133 2.27756 21.0786 2.25092 21.0319 2.20195L18.1392 4.96462C18.7642 5.61902 19.5803 6.06236 20.4756 6.22353L21.1843 2.2868ZM21.0777 2.25157C20.4711 1.5719 19.7348 1.02094 18.911 0.633745L17.2095 4.25383C17.5413 4.40979 17.8424 4.6338 18.0934 4.915L21.0777 2.25157ZM18.911 0.633745C18.0871 0.246493 17.1936 0.0315825 16.284 0.0032258L16.1594 4.00128C16.5208 4.01255 16.8778 4.09793 17.2095 4.25383L18.911 0.633745ZM16.284 0.0032258C15.3743 -0.0251312 14.4693 0.133725 13.6231 0.469255L15.0974 4.18764C15.437 4.053 15.7979 3.99002 16.1594 4.00128L16.284 0.0032258ZM13.6231 0.469255C12.7769 0.804742 12.0083 1.30938 11.3616 1.95083L14.1784 4.79082C14.4448 4.5266 14.7577 4.32232 15.0974 4.18764L13.6231 0.469255ZM11.3623 1.95018C10.4921 2.81246 9.85879 3.88619 9.5191 5.06491L13.3627 6.17257C13.5152 5.64315 13.7977 5.1681 14.1778 4.79147L11.3623 1.95018ZM9.5191 5.06491C9.17946 6.24346 9.14368 7.4908 9.41488 8.68708L13.3159 7.80271C13.1938 7.2642 13.2101 6.70215 13.3627 6.17257L9.5191 5.06491ZM11.2434 6.24861C8.02178 6.44542 5.77423 4.9526 3.75982 2.51058L0.674165 5.05591C3.15456 8.06285 6.52552 10.5443 11.4873 10.2412L11.2434 6.24861ZM3.73111 2.47655C3.41052 2.10507 2.98584 1.83132 2.50553 1.6959L1.42011 5.54582C1.13647 5.46586 0.888435 5.30496 0.702874 5.08994L3.73111 2.47655ZM2.50553 1.6959C2.02482 1.56038 1.51516 1.57113 1.04089 1.72642L2.28558 5.52783C2.00561 5.6195 1.70414 5.6259 1.42011 5.54582L2.50553 1.6959ZM1.04089 1.72642C0.567046 1.88157 0.154532 2.17229 -0.150247 2.55594L2.98175 5.04403C2.80565 5.26571 2.56512 5.4363 2.28558 5.52783L1.04089 1.72642ZM-0.150247 2.55594C-0.454655 2.93913 -0.63974 3.39963 -0.688752 3.88031L3.29061 4.28607C3.26277 4.55913 3.15748 4.82282 2.98175 5.04403L-0.150247 2.55594ZM-0.668732 3.73616C-1.16598 6.55846 -0.807771 9.46981 0.360328 12.0811L4.01165 10.4477C3.17104 8.56855 2.91156 6.46805 3.27059 4.43022L-0.668732 3.73616ZM0.360328 12.0811C1.52863 14.6928 3.45365 16.8842 5.88423 18.3545L7.95465 14.932C6.23057 13.8891 4.85206 12.3264 4.01165 10.4477L0.360328 12.0811ZM5.3972 15.3461C4.33801 16.589 2.85998 17.3555 1.27655 17.5011L1.64288 21.4843C4.28117 21.2417 6.71515 19.9665 8.44168 17.9405L5.3972 15.3461ZM1.12513 17.5209C0.590681 17.6116 0.104313 17.87 -0.268635 18.2512L2.59092 21.0482C2.38015 21.2637 2.10257 21.4122 1.7943 21.4646L1.12513 17.5209ZM-0.268635 18.2512C-0.640988 18.6319 -0.882222 19.1161 -0.966506 19.6336L2.98146 20.2766C2.93487 20.5627 2.80109 20.8333 2.59092 21.0482L-0.268635 18.2512ZM-0.966506 19.6336C-1.05075 20.1508 -0.975403 20.6834 -0.747882 21.1586L2.85997 19.4313C2.98663 19.6959 3.02802 19.9908 2.98146 20.2766L-0.966506 19.6336ZM-0.747882 21.1586C-0.520112 21.6344 -0.148562 22.0337 0.322355 22.2936L2.25508 18.7915C2.52421 18.94 2.73305 19.1662 2.85997 19.4313L-0.747882 21.1586ZM0.378177 22.3232C2.4908 23.4035 4.81983 23.9752 7.18599 23.9922L7.21474 19.9923C5.47507 19.9798 3.75948 19.5596 2.19926 18.7618L0.378177 22.3232Z" fill="#1C93E4" mask="url(#path-1-inside-1_337_874)"/>
</svg>
