<svg width="77" height="83" viewBox="0 0 77 83" fill="none" xmlns="http://www.w3.org/2000/svg">
<path d="M62.7572 74.3797C54.8958 80.4391 44.1856 81.8217 34.1453 80.903C24.1611 79.9308 14.8467 76.6573 9.11301 70.2327C3.38104 63.7528 1.1754 54.1202 1.15665 44.1682C1.08353 34.2146 3.14124 23.9951 9.33958 15.3964C15.5379 6.79771 25.8769 -0.180204 35.0353 1.0982C44.1937 2.3766 52.0627 11.908 59.5121 20.9288C66.9072 29.9479 73.8826 38.4565 74.836 48.1057C75.7367 57.6979 70.6713 68.3772 62.7572 74.3797Z" fill="#F2F6FF"/>
<path d="M30.6635 34.0627C30.6981 34.2164 30.7713 34.3586 30.8761 34.4761C30.9809 34.5936 31.114 34.6825 31.2627 34.7343C31.4114 34.7861 31.5708 34.7992 31.726 34.7722C31.8811 34.7453 32.0269 34.6793 32.1495 34.5805L34.6036 32.6389V44.6197H31.5281C31.4056 44.619 31.2841 44.6426 31.1707 44.6892C31.0573 44.7358 30.9543 44.8044 30.8676 44.8911C30.7809 44.9778 30.7123 45.0808 30.6657 45.1942C30.6191 45.3076 30.5955 45.4291 30.5962 45.5516V48.5598C30.5955 48.6824 30.6191 48.8039 30.6657 48.9172C30.7123 49.0306 30.7809 49.1336 30.8676 49.2203C30.9543 49.307 31.0573 49.3756 31.1707 49.4222C31.2841 49.4688 31.4056 49.4924 31.5281 49.4917H44.1457C44.2677 49.4926 44.3886 49.4692 44.5015 49.423C44.6144 49.3768 44.717 49.3087 44.8033 49.2225C44.8903 49.1355 44.9593 49.0321 45.0064 48.9184C45.0535 48.8047 45.0777 48.6829 45.0777 48.5598V45.5516C45.0784 45.4291 45.0547 45.3076 45.0082 45.1942C44.9616 45.0808 44.8929 44.9778 44.8063 44.8911C44.7196 44.8044 44.6166 44.7358 44.5032 44.6892C44.3898 44.6426 44.2683 44.619 44.1457 44.6197H41.0858V26.5346C41.0872 26.4123 41.0642 26.2909 41.0182 26.1776C40.9722 26.0642 40.904 25.9612 40.8178 25.8744C40.7315 25.7877 40.6288 25.719 40.5158 25.6723C40.4027 25.6257 40.2814 25.602 40.1591 25.6027H36.1879C36.0025 25.6039 35.8219 25.6617 35.6702 25.7684L30.2597 29.5065C30.1076 29.6121 29.9905 29.7606 29.9232 29.933C29.8559 30.1055 29.8414 30.294 29.8817 30.4747L30.6635 34.0627ZM36.2242 26.633H40.0503V45.6604H44.0422V48.4614H31.6162V45.6604H35.6236V30.511L31.6213 33.6744L30.8861 30.3194L36.2242 26.633Z" fill="#6F96E4"/>
<path d="M6.04272 61.7211C6.09939 61.8866 6.20301 62.032 6.34092 62.1396C6.47883 62.2471 6.64506 62.3122 6.81935 62.3269L14.7099 62.9638L14.9584 70.2899C14.9638 70.4601 15.0179 70.6252 15.1142 70.7656C15.2106 70.906 15.3452 71.0158 15.502 71.0821C15.6108 71.1318 15.7293 71.1566 15.8489 71.1546C16.0704 71.1555 16.2844 71.0743 16.4495 70.9268L31.1381 57.6982L31.8474 59.6346C31.9582 60.0505 32.1986 60.4203 32.5337 60.6903C32.8689 60.9603 33.2814 61.1165 33.7114 61.1361C34.0412 61.1208 34.3635 61.032 34.6547 60.8761C34.9458 60.7202 35.1984 60.5012 35.394 60.2352L37.9828 57.0407C38.0869 56.9112 38.2185 56.8064 38.368 56.7339C38.5175 56.6614 38.6813 56.6229 38.8475 56.6213C39.1269 56.6217 39.3956 56.7292 39.5982 56.9216L42.6529 59.6916C43.0678 60.1015 43.6231 60.3384 44.2062 60.3543C44.6047 60.3537 44.9915 60.2188 45.3038 59.9712L55.9281 71.75C56.0114 71.8432 56.1136 71.9177 56.2278 71.9685C56.342 72.0194 56.4657 72.0455 56.5908 72.0451C56.6839 72.0469 56.7767 72.0329 56.8652 72.0037C57.0291 71.9526 57.1747 71.8548 57.2841 71.7225C57.3935 71.5901 57.462 71.4288 57.4813 71.2581L58.3201 64.0873L66.1899 63.3624C66.355 63.3466 66.5125 63.2852 66.6448 63.1851C66.7771 63.0849 66.879 62.9501 66.9391 62.7954C66.9992 62.6408 67.0152 62.4726 66.9853 62.3094C66.9554 62.1462 66.8808 61.9945 66.7698 61.8713L53.7121 47.3743C53.7237 47.3423 53.7376 47.3111 53.7535 47.2811C53.8306 47.1493 53.9345 47.0351 54.0585 46.9459C54.1824 46.8567 54.3237 46.7945 54.4732 46.7633L58.4858 45.821C58.8683 45.7806 59.2304 45.6281 59.5265 45.3826C59.8226 45.1372 60.0396 44.8097 60.1503 44.4413C60.2609 44.0729 60.2602 43.68 60.1483 43.312C60.0364 42.944 59.8183 42.6172 59.5213 42.3728L56.6633 39.3957C56.5567 39.2866 56.4736 39.1568 56.4193 39.0143C56.365 38.8718 56.3405 38.7196 56.3474 38.5673C56.3545 38.4152 56.3931 38.2662 56.4609 38.1298C56.5286 37.9934 56.624 37.8727 56.7409 37.7751L59.8474 35.0777C60.1663 34.8632 60.4148 34.5594 60.5617 34.2043C60.7086 33.8493 60.7475 33.4587 60.6734 33.0817C60.5993 32.7046 60.4156 32.3578 60.1452 32.0848C59.8749 31.8117 59.5299 31.6245 59.1536 31.5466L55.2498 30.2574C55.1049 30.2098 54.971 30.1335 54.8562 30.033C54.7414 29.9324 54.6482 29.8098 54.5819 29.6723C54.5216 29.5325 54.4906 29.3819 54.4906 29.2297C54.4906 29.0774 54.5216 28.9268 54.5819 28.787L56.0886 24.9504C56.2399 24.6276 56.3088 24.2722 56.2889 23.9161C56.269 23.5601 56.161 23.2145 55.9747 22.9105C55.7338 22.5846 55.4011 22.3381 55.0192 22.2025C54.6373 22.0669 54.2236 22.0484 53.8312 22.1494L49.7616 22.8069C49.6116 22.8334 49.4577 22.8284 49.3096 22.7923C49.1616 22.7563 49.0226 22.69 48.9015 22.5976C48.7804 22.5051 48.6797 22.3886 48.6059 22.2553C48.532 22.1221 48.4866 21.9749 48.4724 21.8232L48.022 17.7226C47.877 16.3713 46.9865 15.7655 46.1426 15.7655C45.6258 15.7785 45.1276 15.9604 44.7239 16.2833L41.4258 18.7581C41.304 18.8484 41.165 18.913 41.0175 18.9482C40.8699 18.9833 40.7168 18.9882 40.5673 18.9625C40.4178 18.9369 40.2751 18.8813 40.1477 18.799C40.0203 18.7167 39.9108 18.6094 39.826 18.4837L37.522 15.0614C37.3415 14.7519 37.0862 14.4925 36.7796 14.3071C36.473 14.1217 36.1248 14.0161 35.7668 14C35.3651 14.0199 34.9779 14.1563 34.6524 14.3926C34.3269 14.6288 34.0773 14.9548 33.934 15.3306L32.1633 19.0584C32.099 19.1977 32.0068 19.3223 31.8925 19.4246C31.7782 19.5269 31.6441 19.6046 31.4986 19.6532C31.3531 19.7017 31.1992 19.7199 31.0463 19.7066C30.8935 19.6934 30.745 19.649 30.61 19.5762L26.9858 17.6139C26.6057 17.3659 26.1536 17.2521 25.7015 17.2906C25.2493 17.329 24.8229 17.5176 24.4902 17.8262C24.2846 18.0541 24.1286 18.3223 24.0324 18.6138C23.9361 18.9053 23.9016 19.2137 23.931 19.5192L24.0967 23.6612C24.1039 23.8132 24.0796 23.9651 24.0255 24.1073C23.9714 24.2496 23.8886 24.3791 23.7822 24.4879C23.6758 24.5967 23.5482 24.6825 23.4072 24.7398C23.2662 24.7971 23.115 24.8247 22.9628 24.821L18.7949 24.7744C18.4212 24.7472 18.0471 24.8219 17.7124 24.9906C17.3778 25.1593 17.0952 25.4156 16.8948 25.7322C16.7236 26.0685 16.6449 26.4442 16.6668 26.8208C16.6886 27.1975 16.8102 27.5615 17.019 27.8757L19.0901 31.4482C19.1672 31.5798 19.2167 31.7257 19.2354 31.8771C19.2541 32.0284 19.2416 32.182 19.1988 32.3284C19.1559 32.4747 19.0831 32.6105 18.9851 32.7272C18.8871 32.8439 18.7659 32.9391 18.6293 33.0066L14.9584 34.824C14.5964 34.9553 14.2813 35.1908 14.0529 35.5009C13.8244 35.8109 13.6927 36.1816 13.6745 36.5662C13.6562 36.9509 13.7522 37.3324 13.9502 37.6627C14.1483 37.9929 14.4396 38.2573 14.7875 38.4223L18.272 40.628C18.4014 40.7079 18.5129 40.8137 18.5995 40.9388C18.686 41.0638 18.7458 41.2055 18.7749 41.3548C18.8041 41.504 18.8021 41.6577 18.769 41.8062C18.7359 41.9547 18.6725 42.0947 18.5827 42.2175L16.201 45.5828C15.9427 45.8676 15.7742 46.2223 15.7168 46.6025C15.6593 46.9826 15.7154 47.3713 15.878 47.7197C16.0405 48.0681 16.3024 48.3607 16.6307 48.5609C16.9589 48.761 17.339 48.8597 17.7232 48.8447L19.3852 48.9793L6.31195 60.7685C6.17841 60.8832 6.08164 61.0348 6.03376 61.2042C5.98587 61.3737 5.98899 61.5535 6.04272 61.7211V61.7211ZM53.9865 54.628C54.0438 54.5706 54.0958 54.5082 54.1418 54.4416C54.2955 54.3397 54.4318 54.2138 54.5457 54.0688C54.7385 53.7853 54.862 53.4605 54.9061 53.1205C54.9501 52.7805 54.9136 52.4349 54.7994 52.1117L54.4318 50.8328L64.269 61.7056L57.4399 62.358C57.2358 62.3777 57.0445 62.4664 56.8977 62.6095C56.7508 62.7525 56.6572 62.9414 56.6322 63.145L55.9384 69.0887L46.1633 58.216L46.9244 54.5037C46.9518 54.3731 47.0026 54.2485 47.0745 54.1361C47.3184 54.0096 47.6001 53.9765 47.8667 54.0429L51.8534 55.0784C52.2166 55.2015 52.6063 55.2247 52.9816 55.1455C53.357 55.0662 53.704 54.8875 53.9865 54.628ZM17.8475 47.0998C17.7051 47.1051 17.5649 47.0632 17.4488 46.9808C17.446 46.9751 17.4446 46.9689 17.4446 46.9626C17.4446 46.9564 17.446 46.9502 17.4488 46.9445V46.9445C17.4739 46.8178 17.529 46.6989 17.6093 46.5976L19.9961 43.2374C20.1088 43.0743 20.2058 42.901 20.2861 42.7197C20.5624 42.0916 20.6036 41.3851 20.4021 40.7292C20.2006 40.0732 19.7698 39.5117 19.1884 39.1472L15.704 36.9416C15.6179 36.8886 15.5395 36.8242 15.471 36.75V36.75C15.4446 36.722 15.4252 36.6884 15.414 36.6516C15.414 36.6257 15.4865 36.5118 15.735 36.3876L17.6196 35.4245L19.4059 34.5133C19.7486 34.3452 20.0538 34.1096 20.3034 33.8207C20.5529 33.5318 20.7415 33.1955 20.8581 32.832C20.9746 32.4685 21.0165 32.0852 20.9814 31.7051C20.9463 31.325 20.8348 30.9558 20.6537 30.6198L20.6071 30.5266L18.5361 26.9541C18.4673 26.8441 18.4232 26.7204 18.4066 26.5917V26.5555H18.448C18.5645 26.5078 18.69 26.4866 18.8156 26.4933H19.8511L22.9577 26.5348C23.3445 26.5361 23.7276 26.4588 24.0836 26.3075C24.4396 26.1562 24.7612 25.934 25.0287 25.6546C25.2976 25.378 25.5057 25.0482 25.6396 24.6864C25.653 24.6529 25.6634 24.6182 25.6707 24.5828C25.7838 24.2498 25.8347 23.8988 25.8208 23.5473L25.6603 19.4053C25.6603 19.1257 25.7121 19.0067 25.7691 18.9911C25.8978 19.0005 26.0223 19.0414 26.1315 19.1102L29.1085 20.7204L29.7609 21.0673C29.8043 21.0911 29.8493 21.1119 29.8955 21.1294C30.2812 21.3172 30.704 21.4163 31.1329 21.4194C31.8578 21.4216 32.5554 21.1433 33.0797 20.6427C33.3431 20.3959 33.5589 20.1028 33.7165 19.7781L35.4872 16.0503C35.5123 15.9892 35.5454 15.9318 35.5856 15.8794C35.6181 15.8225 35.6622 15.7732 35.715 15.7345L35.7824 15.7707L35.8341 15.8121C35.9045 15.8752 35.9671 15.9465 36.0205 16.0244L37.5738 18.3439L38.3142 19.4467C38.4913 19.7082 38.7099 19.9391 38.9613 20.1302C39.4565 20.5129 40.0648 20.7205 40.6906 20.7204C40.875 20.7197 41.0589 20.7006 41.2395 20.6635C41.667 20.5823 42.0706 20.4053 42.4199 20.1457L43.7661 19.1102L45.7128 17.645C45.8142 17.5597 45.9352 17.5009 46.0649 17.4741H46.0908C46.1774 17.589 46.2247 17.7289 46.2254 17.8728L46.6707 21.9734C46.7389 22.5495 46.9809 23.0913 47.3645 23.5266C47.5019 23.6882 47.6583 23.8325 47.8304 23.9564C48.1359 24.1835 48.4843 24.3464 48.8544 24.4354C49.2246 24.5244 49.6089 24.5376 49.9843 24.4741L54.0538 23.8166C54.1898 23.783 54.332 23.783 54.468 23.8166C54.468 23.8166 54.468 23.8166 54.468 23.8476C54.4735 23.9792 54.4487 24.1103 54.3955 24.2308L52.8837 28.0673C52.8492 28.1605 52.8181 28.2537 52.7905 28.3469V28.4142C52.653 28.9375 52.6692 29.4893 52.8371 30.0037C52.8733 30.1124 52.9147 30.2263 52.9613 30.3351C53.0292 30.4657 53.1053 30.592 53.1892 30.713C53.5382 31.243 54.0565 31.6391 54.6596 31.8365L57.5797 32.8151L58.5686 33.1464C58.6851 33.1808 58.7941 33.237 58.8896 33.3121L58.931 33.3587C58.911 33.4211 58.8794 33.479 58.8378 33.5296C58.7883 33.5869 58.7347 33.6406 58.6773 33.6901L56.7513 35.4349L55.5915 36.4393C55.2971 36.6923 55.0573 37.0027 54.887 37.3515C54.7167 37.7003 54.6193 38.0802 54.6009 38.468C54.5825 38.8557 54.6434 39.2431 54.7799 39.6065C54.9164 39.9699 55.1256 40.3016 55.3948 40.5814L58.2528 43.5584C58.361 43.6496 58.4372 43.7729 58.4702 43.9105V43.9105C58.3673 43.9902 58.2464 44.0436 58.1181 44.0658L54.1056 45.003C53.7243 45.0885 53.3648 45.2517 53.0494 45.4824C52.7341 45.7132 52.4697 46.0064 52.2727 46.3439C52.1856 46.4938 52.1128 46.6516 52.0553 46.8151V46.8151C51.9984 46.9839 51.9551 47.1571 51.9258 47.3328V47.3328C51.7433 47.5612 51.6153 47.8282 51.5516 48.1135C51.4879 48.3989 51.4902 48.695 51.5582 48.9793L52.7025 52.9401L48.7727 51.9046C48.6111 51.8657 48.4466 51.8397 48.2809 51.8269H48.0324C47.885 51.8285 47.7379 51.8407 47.5923 51.8632H47.4939C47.3694 51.888 47.2466 51.9209 47.1263 51.9615L46.9761 52.0185C46.8996 52.0477 46.8252 52.0823 46.7535 52.122C46.6569 52.1694 46.5635 52.223 46.4739 52.2825L46.3807 52.3447C46.2435 52.4436 46.1153 52.5545 45.9976 52.676V52.676C45.3752 53.0946 44.9434 53.7422 44.7964 54.4778L44.0871 57.9467C44.0476 58.1316 44.0694 58.3242 44.1492 58.4956V58.4956C44.1149 58.4813 44.082 58.464 44.0508 58.4438V58.4438C44.0012 58.4116 43.9545 58.3752 43.9111 58.3351L40.8563 55.5599C40.6314 55.3604 40.3763 55.1978 40.1004 55.0784C39.6936 54.8816 39.2446 54.788 38.7931 54.8061C38.3415 54.8242 37.9014 54.9533 37.5116 55.182C37.3672 55.2607 37.2303 55.3526 37.1026 55.4564C36.9503 55.5811 36.8099 55.7198 36.6832 55.8706L34.0945 59.0651L33.9961 59.1738C33.9633 59.2051 33.9287 59.2345 33.8926 59.2618C33.8635 59.2854 33.8301 59.303 33.7942 59.3136L33.758 59.2877C33.6711 59.1943 33.6057 59.0829 33.5664 58.9615L32.6137 56.3728C32.7336 56.2523 32.8167 56.1002 32.8534 55.9343C32.89 55.7684 32.8788 55.5954 32.8208 55.4356L32.7535 55.2596C32.5791 54.7617 32.269 54.3223 31.8583 53.9912C31.4475 53.66 30.9524 53.4502 30.4288 53.3854C30.2801 53.333 30.1279 53.2915 29.9732 53.2611C29.8111 53.2299 29.6464 53.2143 29.4813 53.2145C29.2884 53.215 29.0959 53.234 28.9066 53.2714V53.2714C28.7167 53.312 28.5312 53.371 28.3526 53.4475V53.4475L24.7284 55.0007C24.7235 54.9664 24.7235 54.9315 24.7284 54.8972L25.2772 50.8069C25.3305 50.4179 25.3039 50.022 25.1988 49.6437C25.0937 49.2653 24.9125 48.9124 24.6662 48.6065C24.2034 48.0346 23.5374 47.6636 22.8075 47.571V47.571C22.7074 47.5345 22.6055 47.5034 22.502 47.4778C22.3559 47.4393 22.207 47.4116 22.0568 47.395L20.6692 47.2811L17.8475 47.0998ZM21.4717 49.4919L22.3778 49.3831C22.462 49.4405 22.5385 49.5083 22.6056 49.585C22.701 49.7037 22.7705 49.841 22.8098 49.9881C22.849 50.1352 22.8571 50.2889 22.8334 50.4393L22.3156 54.5296C22.2566 54.845 22.2668 55.1694 22.3454 55.4805C22.4241 55.7916 22.5694 56.0819 22.7713 56.3313C23.0503 56.6478 23.4349 56.8521 23.8534 56.9061C24.1536 57.048 24.4817 57.1217 24.8138 57.1217C25.1459 57.1217 25.474 57.048 25.7742 56.9061L29.5642 55.2907C29.6495 55.2311 29.7495 55.196 29.8533 55.1892C29.9572 55.1825 30.0609 55.2043 30.1532 55.2523C30.2455 55.3003 30.3229 55.3727 30.377 55.4616C30.431 55.5506 30.4597 55.6526 30.4599 55.7566L30.5065 55.8809L16.7136 68.3069L16.5065 62.0939C16.4983 61.8747 16.41 61.6661 16.2582 61.5077C16.1065 61.3493 15.9019 61.252 15.6832 61.2344L9.06121 60.7167L21.4717 49.4919Z" fill="#6F96E4"/>
</svg>
