<svg width="109" height="162" viewBox="0 0 109 162" fill="none" xmlns="http://www.w3.org/2000/svg">
<path d="M98.9184 146.992L9.31908 143.426C4.09512 143.223 -0.0334981 138.88 0.000204877 133.641L0.792216 12.0037C0.825919 6.74749 5.00508 2.48842 10.229 2.33631L95.5649 0.00396607C100.924 -0.148143 105.389 4.09402 105.524 9.46856L108.996 137.004C109.164 142.632 104.53 147.212 98.9184 146.992Z" fill="white"/>
<path d="M11.3155 139.341C6.54941 138.753 2.96644 134.666 3.00024 129.722L3.92978 15.4887C3.96359 10.2756 8.01979 6.10519 13.1576 5.97066L92.2875 4.00314C97.5098 3.86861 101.853 8.0727 101.989 13.3699L104.997 133.153C105.065 135.843 104.017 138.45 102.107 140.317C100.231 142.149 97.7633 143.108 95.1437 142.99L12.0591 139.408C11.8056 139.392 11.5521 139.358 11.3155 139.341ZM93.5381 4.97849C93.1325 4.92804 92.7269 4.91123 92.3044 4.91123L13.1745 6.87873C8.54371 6.99645 4.89313 10.7633 4.85933 15.4719L3.92978 129.705C3.89598 134.414 7.47897 138.265 12.1098 138.467L95.1944 142.049C97.5436 142.149 99.7745 141.292 101.465 139.644C103.189 137.962 104.135 135.591 104.084 133.17L101.076 13.3867C100.958 9.01441 97.6788 5.48298 93.5381 4.97849Z" fill="#99E1DC"/>
<path d="M50.9051 130.937C50.9051 130.937 32.0543 138.984 31.6035 157.712C31.6035 157.712 33.2064 158.724 37.1469 158.69C41.0874 158.657 42.0725 161.559 45.0946 161.609C48.1167 161.66 49.1352 154.743 51.9403 146.172C54.7454 137.601 57.9679 135.003 57.9679 135.003L50.9051 130.937Z" fill="#24BFB4"/>
<path d="M58.6525 130.734C58.6525 130.734 77.8873 137.82 79.2564 156.497C79.2564 156.497 77.7036 157.594 73.7631 157.762C69.8227 157.931 68.9711 160.884 65.9657 161.086C62.9436 161.289 61.5911 154.422 58.3686 146.003C55.1294 137.584 51.79 135.154 51.79 135.154L58.6525 130.734Z" fill="#24BFB4"/>
<path d="M39.9181 124.981C41.1203 116.983 47.5987 111.551 55.6132 111.348C63.611 111.146 71.8258 118.603 72.0262 126.685C72.31 138.09 64.3456 140.418 56.3311 140.621C48.3333 140.823 38.215 136.167 39.9181 124.981Z" fill="#24BFB4"/>
<path d="M53.7765 137.82C50.7544 137.449 47.3649 136.2 45.1108 133.619C43.1573 131.375 42.3892 128.439 42.8902 125.133C43.8586 118.772 49.1014 114.217 55.6466 114.048C62.2251 113.879 68.8371 120.071 68.9874 126.533C69.2545 137.618 59.4535 137.871 56.231 137.955C55.4629 137.955 54.6448 137.921 53.7765 137.82ZM43.9254 125.268C43.4579 128.305 44.1257 130.869 45.8956 132.894C48.5504 135.947 52.9584 136.943 56.2143 136.858C64.4959 136.656 68.1191 133.467 67.9522 126.533C67.8019 120.594 61.7242 114.925 55.68 115.077C49.5522 115.246 44.827 119.346 43.9254 125.268Z" fill="#99E1DC"/>
<path d="M51.789 52.3069L30.8011 52.8299C30.3335 52.8468 29.6156 52.1551 29.5321 51.4802C29.3651 50.0967 30.2668 49.6749 30.7176 49.6749L51.7222 49.8268C52.1897 49.8099 52.5738 50.3667 52.5905 51.0415C52.6239 51.7333 52.2565 52.29 51.789 52.3069Z" fill="#99E1DC"/>
<path d="M78.621 51.632L57.6331 52.155C57.1656 52.1719 56.4476 51.4801 56.3641 50.8053C56.1971 49.4218 57.0988 49 57.5496 49L78.5543 49.1518C79.0218 49.135 79.4058 49.6917 79.4225 50.3666C79.4392 51.0415 79.0885 51.6151 78.621 51.632Z" fill="#99E1DC"/>
<path d="M52.3584 75.2692L31.3704 75.7922C30.9029 75.8091 30.1849 75.1173 30.1014 74.4425C29.9344 73.059 30.8361 72.6372 31.2869 72.6372L52.2916 72.789C52.7591 72.7722 53.1431 73.3289 53.1598 74.0038C53.1932 74.6956 52.8259 75.2692 52.3584 75.2692Z" fill="#99E1DC"/>
<path d="M79.1884 74.5944L58.2005 75.1174C57.7329 75.1343 57.015 74.4425 56.9315 73.7677C56.7645 72.3842 57.6662 71.9624 58.117 71.9624L79.1216 72.1142C79.5891 72.0974 79.9732 72.6541 79.9899 73.329C80.0066 74.0207 79.6559 74.5775 79.1884 74.5944Z" fill="#99E1DC"/>
<path d="M47.5129 59.8484L19.6959 60.557C19.0781 60.5739 18.1264 59.7134 18.0262 58.8698C17.8091 57.1489 18.9946 56.6259 19.6124 56.609L47.4461 56.7608C48.0639 56.744 48.5815 57.4357 48.5982 58.2793C48.5982 59.1398 48.114 59.8315 47.5129 59.8484Z" fill="#99E1DC"/>
<path d="M68.7027 59.4606L52.7237 59.8655C52.3731 59.8824 51.8054 59.1737 51.7553 58.4989C51.6218 57.1154 52.3063 56.7105 52.6569 56.6936L68.6526 56.9804C69.0032 56.9635 69.3037 57.5203 69.3204 58.1952C69.3371 58.8869 69.0533 59.4606 68.7027 59.4606Z" fill="#99E1DC"/>
<path d="M90.6942 58.9037L74.7153 59.3086C74.3647 59.3255 73.797 58.6169 73.7469 57.942C73.6133 56.5585 74.2812 56.1536 74.6318 56.1367L90.6274 56.4235C90.9781 56.4067 91.2786 56.9634 91.2953 57.6383C91.3287 58.33 91.0449 58.9037 90.6942 58.9037Z" fill="#99E1DC"/>
<path d="M41.5874 67.4916L25.6085 67.8965C25.2579 67.9134 24.6902 67.2048 24.6401 66.5299C24.5065 65.1464 25.1911 64.7415 25.5417 64.7246L41.5373 65.0114C41.888 64.9946 42.1885 65.5513 42.2052 66.2262C42.2052 66.9179 41.9381 67.4747 41.5874 67.4916Z" fill="#99E1DC"/>
<path d="M58.8512 67.0529L45.7608 67.3904C45.477 67.3904 45.0095 66.6986 44.9594 66.0238C44.8425 64.6403 45.3935 64.2354 45.6774 64.2185L58.7844 64.5728C59.0683 64.5728 59.3187 65.1127 59.3354 65.8044C59.3688 66.4793 59.135 67.0529 58.8512 67.0529Z" fill="#99E1DC"/>
<path d="M84.2636 66.4118L63.2757 66.9348C62.8082 66.9517 62.0902 66.2599 62.0067 65.585C61.8397 64.2016 62.7414 63.7798 63.1922 63.7798L84.1968 63.9316C84.6643 63.9148 85.0484 64.4715 85.0651 65.1464C85.0818 65.8381 84.7144 66.3949 84.2636 66.4118Z" fill="#99E1DC"/>
<path d="M56.7004 102.922L40.2373 103.344C39.8699 103.361 39.3022 102.652 39.2354 101.977C39.1019 100.594 39.8031 100.172 40.1538 100.172L56.6336 100.442C57.0009 100.425 57.3015 100.982 57.3181 101.657C57.3515 102.349 57.0677 102.905 56.7004 102.922Z" fill="#99E1DC"/>
<path d="M77.7375 102.382L61.2744 102.804C60.907 102.821 60.3393 102.112 60.2726 101.437C60.139 100.054 60.8402 99.6491 61.1909 99.6322L77.6707 99.9021C78.038 99.8853 78.3386 100.442 78.3553 101.117C78.3887 101.809 78.1048 102.382 77.7375 102.382Z" fill="#99E1DC"/>
<path d="M48.1989 95.0765L35.6595 95.3971C35.3924 95.3971 34.9416 94.7054 34.8915 94.0305C34.7746 92.647 35.3089 92.2421 35.576 92.2252L48.1321 92.5964C48.4159 92.5964 48.6497 93.1363 48.6664 93.828C48.6831 94.5029 48.4827 95.0765 48.1989 95.0765Z" fill="#99E1DC"/>
<path d="M61.7401 94.7392L51.4715 94.9923C51.2378 94.9923 50.8871 94.3006 50.837 93.6257C50.7369 92.2422 51.171 91.8373 51.388 91.8204L61.6733 92.2422C61.8904 92.2422 62.0907 92.7821 62.1074 93.4739C62.1408 94.1656 61.9738 94.7224 61.7401 94.7392Z" fill="#99E1DC"/>
<path d="M81.6769 94.233L65.2138 94.6548C64.8465 94.6717 64.2788 93.9631 64.212 93.2882C64.0784 91.9047 64.7797 91.4829 65.1303 91.4829L81.6101 91.7529C81.9775 91.7529 82.278 92.2928 82.2947 92.9676C82.3114 93.6594 82.0443 94.2161 81.6769 94.233Z" fill="#99E1DC"/>
<path d="M18.13 33.12C17.57 33.12 17.0333 33.0467 16.52 32.9C16.0067 32.7467 15.5933 32.55 15.28 32.31L15.83 31.09C16.13 31.3033 16.4833 31.48 16.89 31.62C17.3033 31.7533 17.72 31.82 18.14 31.82C18.46 31.82 18.7167 31.79 18.91 31.73C19.11 31.6633 19.2567 31.5733 19.35 31.46C19.4433 31.3467 19.49 31.2167 19.49 31.07C19.49 30.8833 19.4167 30.7367 19.27 30.63C19.1233 30.5167 18.93 30.4267 18.69 30.36C18.45 30.2867 18.1833 30.22 17.89 30.16C17.6033 30.0933 17.3133 30.0133 17.02 29.92C16.7333 29.8267 16.47 29.7067 16.23 29.56C15.99 29.4133 15.7933 29.22 15.64 28.98C15.4933 28.74 15.42 28.4333 15.42 28.06C15.42 27.66 15.5267 27.2967 15.74 26.97C15.96 26.6367 16.2867 26.3733 16.72 26.18C17.16 25.98 17.71 25.88 18.37 25.88C18.81 25.88 19.2433 25.9333 19.67 26.04C20.0967 26.14 20.4733 26.2933 20.8 26.5L20.3 27.73C19.9733 27.5433 19.6467 27.4067 19.32 27.32C18.9933 27.2267 18.6733 27.18 18.36 27.18C18.0467 27.18 17.79 27.2167 17.59 27.29C17.39 27.3633 17.2467 27.46 17.16 27.58C17.0733 27.6933 17.03 27.8267 17.03 27.98C17.03 28.16 17.1033 28.3067 17.25 28.42C17.3967 28.5267 17.59 28.6133 17.83 28.68C18.07 28.7467 18.3333 28.8133 18.62 28.88C18.9133 28.9467 19.2033 29.0233 19.49 29.11C19.7833 29.1967 20.05 29.3133 20.29 29.46C20.53 29.6067 20.7233 29.8 20.87 30.04C21.0233 30.28 21.1 30.5833 21.1 30.95C21.1 31.3433 20.99 31.7033 20.77 32.03C20.55 32.3567 20.22 32.62 19.78 32.82C19.3467 33.02 18.7967 33.12 18.13 33.12ZM25.557 33.12C25.017 33.12 24.5136 33.0333 24.047 32.86C23.587 32.68 23.187 32.4267 22.847 32.1C22.507 31.7733 22.2403 31.39 22.047 30.95C21.8603 30.51 21.767 30.0267 21.767 29.5C21.767 28.9733 21.8603 28.49 22.047 28.05C22.2403 27.61 22.507 27.2267 22.847 26.9C23.1936 26.5733 23.597 26.3233 24.057 26.15C24.517 25.97 25.0203 25.88 25.567 25.88C26.1736 25.88 26.7203 25.9867 27.207 26.2C27.7003 26.4067 28.1136 26.7133 28.447 27.12L27.407 28.08C27.167 27.8067 26.9003 27.6033 26.607 27.47C26.3136 27.33 25.9936 27.26 25.647 27.26C25.3203 27.26 25.0203 27.3133 24.747 27.42C24.4736 27.5267 24.237 27.68 24.037 27.88C23.837 28.08 23.6803 28.3167 23.567 28.59C23.4603 28.8633 23.407 29.1667 23.407 29.5C23.407 29.8333 23.4603 30.1367 23.567 30.41C23.6803 30.6833 23.837 30.92 24.037 31.12C24.237 31.32 24.4736 31.4733 24.747 31.58C25.0203 31.6867 25.3203 31.74 25.647 31.74C25.9936 31.74 26.3136 31.6733 26.607 31.54C26.9003 31.4 27.167 31.19 27.407 30.91L28.447 31.87C28.1136 32.2767 27.7003 32.5867 27.207 32.8C26.7203 33.0133 26.1703 33.12 25.557 33.12ZM34.3409 26H35.9609V33H34.3409V26ZM31.1609 33H29.5409V26H31.1609V33ZM34.4609 30.13H31.0409V28.76H34.4609V30.13ZM41.0171 33.12C40.4638 33.12 39.9504 33.03 39.4771 32.85C39.0104 32.67 38.6038 32.4167 38.2571 32.09C37.9171 31.7633 37.6504 31.38 37.4571 30.94C37.2704 30.5 37.1771 30.02 37.1771 29.5C37.1771 28.98 37.2704 28.5 37.4571 28.06C37.6504 27.62 37.9204 27.2367 38.2671 26.91C38.6138 26.5833 39.0204 26.33 39.4871 26.15C39.9538 25.97 40.4604 25.88 41.0071 25.88C41.5604 25.88 42.0671 25.97 42.5271 26.15C42.9938 26.33 43.3971 26.5833 43.7371 26.91C44.0838 27.2367 44.3538 27.62 44.5471 28.06C44.7404 28.4933 44.8371 28.9733 44.8371 29.5C44.8371 30.02 44.7404 30.5033 44.5471 30.95C44.3538 31.39 44.0838 31.7733 43.7371 32.1C43.3971 32.42 42.9938 32.67 42.5271 32.85C42.0671 33.03 41.5638 33.12 41.0171 33.12ZM41.0071 31.74C41.3204 31.74 41.6071 31.6867 41.8671 31.58C42.1338 31.4733 42.3671 31.32 42.5671 31.12C42.7671 30.92 42.9204 30.6833 43.0271 30.41C43.1404 30.1367 43.1971 29.8333 43.1971 29.5C43.1971 29.1667 43.1404 28.8633 43.0271 28.59C42.9204 28.3167 42.7671 28.08 42.5671 27.88C42.3738 27.68 42.1438 27.5267 41.8771 27.42C41.6104 27.3133 41.3204 27.26 41.0071 27.26C40.6938 27.26 40.4038 27.3133 40.1371 27.42C39.8771 27.5267 39.6471 27.68 39.4471 27.88C39.2471 28.08 39.0904 28.3167 38.9771 28.59C38.8704 28.8633 38.8171 29.1667 38.8171 29.5C38.8171 29.8267 38.8704 30.13 38.9771 30.41C39.0904 30.6833 39.2438 30.92 39.4371 31.12C39.6371 31.32 39.8704 31.4733 40.1371 31.58C40.4038 31.6867 40.6938 31.74 41.0071 31.74ZM46.0546 33V26H47.6746V31.68H51.1846V33H46.0546ZM51.2088 33L54.3288 26H55.9288L59.0588 33H57.3588L54.7988 26.82H55.4388L52.8688 33H51.2088ZM52.7688 31.5L53.1988 30.27H56.7988L57.2388 31.5H52.7688ZM59.7851 33V26H62.8151C63.4417 26 63.9817 26.1033 64.4351 26.31C64.8884 26.51 65.2384 26.8 65.4851 27.18C65.7317 27.56 65.8551 28.0133 65.8551 28.54C65.8551 29.06 65.7317 29.51 65.4851 29.89C65.2384 30.2633 64.8884 30.55 64.4351 30.75C63.9817 30.95 63.4417 31.05 62.8151 31.05H60.6851L61.4051 30.34V33H59.7851ZM64.2351 33L62.4851 30.46H64.2151L65.9851 33H64.2351ZM61.4051 30.52L60.6851 29.76H62.7251C63.2251 29.76 63.5984 29.6533 63.8451 29.44C64.0917 29.22 64.2151 28.92 64.2151 28.54C64.2151 28.1533 64.0917 27.8533 63.8451 27.64C63.5984 27.4267 63.2251 27.32 62.7251 27.32H60.6851L61.4051 26.55V30.52ZM69.4386 33.12C68.8786 33.12 68.3419 33.0467 67.8286 32.9C67.3153 32.7467 66.9019 32.55 66.5886 32.31L67.1386 31.09C67.4386 31.3033 67.7919 31.48 68.1986 31.62C68.6119 31.7533 69.0286 31.82 69.4486 31.82C69.7686 31.82 70.0253 31.79 70.2186 31.73C70.4186 31.6633 70.5653 31.5733 70.6586 31.46C70.7519 31.3467 70.7986 31.2167 70.7986 31.07C70.7986 30.8833 70.7253 30.7367 70.5786 30.63C70.4319 30.5167 70.2386 30.4267 69.9986 30.36C69.7586 30.2867 69.4919 30.22 69.1986 30.16C68.9119 30.0933 68.6219 30.0133 68.3286 29.92C68.0419 29.8267 67.7786 29.7067 67.5386 29.56C67.2986 29.4133 67.1019 29.22 66.9486 28.98C66.8019 28.74 66.7286 28.4333 66.7286 28.06C66.7286 27.66 66.8353 27.2967 67.0486 26.97C67.2686 26.6367 67.5953 26.3733 68.0286 26.18C68.4686 25.98 69.0186 25.88 69.6786 25.88C70.1186 25.88 70.5519 25.9333 70.9786 26.04C71.4053 26.14 71.7819 26.2933 72.1086 26.5L71.6086 27.73C71.2819 27.5433 70.9553 27.4067 70.6286 27.32C70.3019 27.2267 69.9819 27.18 69.6686 27.18C69.3553 27.18 69.0986 27.2167 68.8986 27.29C68.6986 27.3633 68.5553 27.46 68.4686 27.58C68.3819 27.6933 68.3386 27.8267 68.3386 27.98C68.3386 28.16 68.4119 28.3067 68.5586 28.42C68.7053 28.5267 68.8986 28.6133 69.1386 28.68C69.3786 28.7467 69.6419 28.8133 69.9286 28.88C70.2219 28.9467 70.5119 29.0233 70.7986 29.11C71.0919 29.1967 71.3586 29.3133 71.5986 29.46C71.8386 29.6067 72.0319 29.8 72.1786 30.04C72.3319 30.28 72.4086 30.5833 72.4086 30.95C72.4086 31.3433 72.2986 31.7033 72.0786 32.03C71.8586 32.3567 71.5286 32.62 71.0886 32.82C70.6553 33.02 70.1053 33.12 69.4386 33.12ZM78.3155 26H79.9355V33H78.3155V26ZM75.1355 33H73.5155V26H75.1355V33ZM78.4355 30.13H75.0155V28.76H78.4355V30.13ZM81.5917 33V26H83.2117V33H81.5917ZM84.873 33V26H87.903C88.5296 26 89.0696 26.1033 89.523 26.31C89.9763 26.51 90.3263 26.8 90.573 27.18C90.8196 27.56 90.943 28.0133 90.943 28.54C90.943 29.06 90.8196 29.51 90.573 29.89C90.3263 30.27 89.9763 30.5633 89.523 30.77C89.0696 30.97 88.5296 31.07 87.903 31.07H85.773L86.493 30.34V33H84.873ZM86.493 30.52L85.773 29.75H87.813C88.313 29.75 88.6863 29.6433 88.933 29.43C89.1796 29.2167 89.303 28.92 89.303 28.54C89.303 28.1533 89.1796 27.8533 88.933 27.64C88.6863 27.4267 88.313 27.32 87.813 27.32H85.773L86.493 26.55V30.52Z" fill="#084B8A"/>
<path d="M95 39H11V20H95V39ZM11.4456 38.5794H94.5453V20.4206H11.4547L11.4456 38.5794Z" fill="#084B8A"/>
</svg>
