<svg width="24" height="24" viewBox="0 0 24 24" fill="none" xmlns="http://www.w3.org/2000/svg">
<path fill-rule="evenodd" clip-rule="evenodd" d="M12 21.9998C6.47745 21.9998 2 17.5226 2 11.9998C2 6.47754 6.47779 1.99976 12 1.99976C17.5222 1.99976 22 6.47754 22 11.9998C22 17.5226 17.5225 21.9998 12 21.9998ZM12 3.49976C7.30621 3.49976 3.5 7.30597 3.5 11.9998C3.5 16.6942 7.30586 20.4998 12 20.4998C16.6941 20.4998 20.5 16.6942 20.5 11.9998C20.5 7.30597 16.6938 3.49976 12 3.49976Z" fill="#2E536B"/>
<line x1="3" y1="8.25" x2="20" y2="8.25" stroke="#2E536B" stroke-width="1.5"/>
<line x1="3" y1="15.25" x2="21" y2="15.25" stroke="#2E536B" stroke-width="1.5"/>
<path d="M12 3C15.0185 5.75676 19.2444 13.2162 12 21" stroke="#2E536B" stroke-width="1.5"/>
<path d="M12 3C8.98151 5.75676 4.75561 13.2162 12 21" stroke="#2E536B" stroke-width="1.5"/>
</svg>
