<svg width="27" height="24" viewBox="0 0 27 24" fill="none" xmlns="http://www.w3.org/2000/svg">
<path d="M0.602844 0H26.6411V24H0.602844V0Z" fill="white" fill-opacity="0.01"/>
<path fill-rule="evenodd" clip-rule="evenodd" d="M13.622 22C19.6139 22 24.4713 17.5229 24.4713 12C24.4713 6.47715 19.6139 2 13.622 2C7.63015 2 2.77277 6.47715 2.77277 12C2.77277 17.5229 7.63015 22 13.622 22Z" stroke="white" stroke-width="1.5" stroke-linecap="round" stroke-linejoin="round"/>
<path d="M2.77277 12H24.4713" stroke="white" stroke-width="1.5" stroke-linecap="round" stroke-linejoin="round"/>
<path fill-rule="evenodd" clip-rule="evenodd" d="M13.6219 22C16.0187 22 17.9617 17.5229 17.9617 12C17.9617 6.47715 16.0187 2 13.6219 2C11.2252 2 9.28223 6.47715 9.28223 12C9.28223 17.5229 11.2252 22 13.6219 22Z" stroke="white" stroke-width="1.5" stroke-linecap="round" stroke-linejoin="round"/>
<path d="M5.95038 5.07031C7.91371 6.87996 10.626 7.99926 13.622 7.99926C16.6179 7.99926 19.3302 6.87996 21.2936 5.07031" stroke="white" stroke-width="1.5" stroke-linecap="round" stroke-linejoin="round"/>
<path d="M21.2936 18.9289C19.3302 17.1193 16.6179 16 13.622 16C10.626 16 7.91371 17.1193 5.95038 18.9289" stroke="white" stroke-width="1.5" stroke-linecap="round" stroke-linejoin="round"/>
</svg>
